<svg width="351" height="561" viewBox="0 0 351 561" fill="none" xmlns="http://www.w3.org/2000/svg">
<g clip-path="url(#clip0_280_847)">
<path d="M348.546 163.016C348.763 163.015 348.979 163.058 349.18 163.141C349.382 163.224 349.565 163.346 349.719 163.5C349.873 163.654 349.995 163.837 350.078 164.038C350.161 164.239 350.203 164.455 350.203 164.673V241.636C350.203 241.854 350.16 242.069 350.077 242.27C349.993 242.471 349.871 242.653 349.717 242.807C349.563 242.96 349.381 243.082 349.18 243.165C348.978 243.248 348.763 243.29 348.546 243.29H335.78C335.563 243.29 335.347 243.248 335.146 243.165C334.945 243.082 334.763 242.96 334.609 242.807C334.455 242.653 334.333 242.471 334.249 242.27C334.166 242.069 334.123 241.854 334.123 241.636V164.673C334.123 163.754 334.858 163.019 335.777 163.019L348.546 163.016Z" fill="black"/>
<mask id="mask0_280_847" style="mask-type:luminance" maskUnits="userSpaceOnUse" x="334" y="163" width="17" height="81">
<path d="M348.546 163.015C348.763 163.015 348.979 163.057 349.18 163.14C349.381 163.223 349.564 163.345 349.718 163.498C349.871 163.652 349.994 163.834 350.077 164.035C350.16 164.236 350.203 164.451 350.203 164.669V241.632C350.203 242.551 349.465 243.289 348.546 243.289H335.781C335.563 243.29 335.348 243.247 335.147 243.165C334.946 243.082 334.763 242.96 334.609 242.806C334.455 242.653 334.333 242.47 334.25 242.27C334.166 242.069 334.123 241.853 334.123 241.636V164.669C334.123 164.451 334.165 164.236 334.248 164.035C334.331 163.834 334.453 163.651 334.606 163.497C334.76 163.343 334.942 163.221 335.143 163.138C335.344 163.055 335.559 163.012 335.777 163.012L348.546 163.015Z" fill="white"/>
</mask>
<g mask="url(#mask0_280_847)">
<path d="M348.193 164.492C348.387 164.492 348.579 164.53 348.759 164.604C348.938 164.678 349.101 164.786 349.238 164.924C349.376 165.061 349.484 165.224 349.558 165.403C349.633 165.583 349.67 165.775 349.67 165.969V240.335C349.67 241.154 349.009 241.812 348.193 241.812H347.733V164.492H348.193Z" fill="url(#paint0_linear_280_847)"/>
</g>
<path d="M14.6294 95.5918H1.86034C0.945087 95.5918 0.203125 96.3338 0.203125 97.249V121.189C0.203125 122.104 0.945087 122.846 1.86034 122.846H14.6294C15.5446 122.846 16.2866 122.104 16.2866 121.189V97.249C16.2866 96.3338 15.5446 95.5918 14.6294 95.5918Z" fill="black"/>
<mask id="mask1_280_847" style="mask-type:luminance" maskUnits="userSpaceOnUse" x="0" y="95" width="17" height="28">
<path d="M14.6294 95.5918H1.86034C0.945087 95.5918 0.203125 96.3338 0.203125 97.249V121.189C0.203125 122.104 0.945087 122.846 1.86034 122.846H14.6294C15.5446 122.846 16.2866 122.104 16.2866 121.189V97.249C16.2866 96.3338 15.5446 95.5918 14.6294 95.5918Z" fill="white"/>
</mask>
<g mask="url(#mask1_280_847)">
<path d="M2.21717 97.0703C2.02274 97.0694 1.83005 97.1069 1.65018 97.1807C1.47032 97.2546 1.30685 97.3633 1.1692 97.5006C1.03154 97.6379 0.922426 97.8011 0.848134 97.9808C0.773842 98.1605 0.735845 98.3531 0.736333 98.5475V119.889C0.736333 120.709 1.39775 121.366 2.2135 121.366H2.67281V97.0703H2.21717Z" fill="url(#paint1_linear_280_847)"/>
</g>
<path d="M1.86034 146.414C1.64289 146.413 1.42747 146.456 1.22643 146.539C1.02539 146.622 0.84267 146.743 0.688735 146.897C0.5348 147.05 0.412672 147.233 0.329344 147.434C0.246016 147.635 0.203124 147.85 0.203125 148.067L0.203125 195.517C0.203125 196.435 0.941708 197.174 1.86034 197.174H14.6257C14.8432 197.174 15.0586 197.132 15.2596 197.049C15.4607 196.966 15.6434 196.845 15.7973 196.691C15.9512 196.537 16.0734 196.355 16.1567 196.154C16.24 195.953 16.2829 195.738 16.2829 195.52V148.067C16.2834 147.85 16.241 147.634 16.1581 147.433C16.0752 147.232 15.9535 147.05 15.7999 146.896C15.6463 146.742 15.4639 146.62 15.263 146.536C15.0621 146.453 14.8468 146.41 14.6294 146.41L1.86034 146.414Z" fill="black"/>
<path d="M1.86035 210.248C1.64258 210.248 1.42687 210.29 1.22558 210.373C1.0243 210.456 0.84142 210.578 0.687437 210.732C0.533453 210.886 0.411402 211.069 0.328291 211.27C0.245179 211.472 0.202645 211.688 0.203129 211.905V259.355C0.203129 260.273 0.941712 261.008 1.86035 261.008H14.6257C14.8432 261.009 15.0586 260.966 15.2596 260.883C15.4607 260.8 15.6434 260.679 15.7973 260.525C15.9512 260.372 16.0734 260.189 16.1567 259.988C16.24 259.787 16.2829 259.572 16.2829 259.355V211.902C16.2829 211.463 16.1087 211.042 15.7986 210.732C15.4885 210.422 15.0679 210.248 14.6294 210.248H1.86035Z" fill="black"/>
<mask id="mask2_280_847" style="mask-type:luminance" maskUnits="userSpaceOnUse" x="0" y="210" width="17" height="52">
<path d="M1.86034 210.252C1.64289 210.251 1.42747 210.294 1.22643 210.377C1.02539 210.459 0.84267 210.581 0.688735 210.735C0.5348 210.888 0.412672 211.071 0.329344 211.272C0.246016 211.472 0.203124 211.688 0.203125 211.905L0.203125 259.355C0.203125 260.273 0.941708 261.012 1.86034 261.012H14.6257C14.8432 261.012 15.0586 260.97 15.2596 260.887C15.4607 260.804 15.6434 260.682 15.7973 260.529C15.9512 260.375 16.0734 260.193 16.1567 259.992C16.24 259.791 16.2829 259.576 16.2829 259.358V211.905C16.2834 211.688 16.241 211.472 16.1581 211.271C16.0752 211.07 15.9535 210.888 15.7999 210.734C15.6463 210.58 15.4639 210.458 15.263 210.374C15.0621 210.291 14.8468 210.248 14.6294 210.248L1.86034 210.252Z" fill="white"/>
</mask>
<g mask="url(#mask2_280_847)">
<path d="M2.2135 211.729C2.01938 211.728 1.82708 211.766 1.64764 211.84C1.4682 211.914 1.30517 212.023 1.1679 212.16C1.03064 212.297 0.921851 212.46 0.847788 212.64C0.773725 212.819 0.735848 213.012 0.736333 213.206V258.057C0.736333 258.877 1.39775 259.534 2.2135 259.534H2.67282V211.729H2.2135Z" fill="url(#paint2_linear_280_847)"/>
</g>
<path d="M51.3243 0.498158C44.5823 0.48411 37.9038 1.80176 31.6723 4.37546C25.4408 6.94916 19.779 10.7282 15.0118 15.4958C10.2446 20.2633 6.46588 25.9254 3.89262 32.1571C1.31936 38.3888 0.00219817 45.0674 0.0167286 51.8094V649.415C0.00171191 656.157 1.31864 662.837 3.89191 669.069C6.46518 675.301 10.2441 680.964 15.0117 685.732C19.7794 690.5 25.4418 694.279 31.674 696.853C37.9062 699.427 44.5853 700.744 51.328 700.73H155.321L157.445 697.717H188.771L190.902 700.73H294.891C301.634 700.744 308.313 699.427 314.545 696.853C320.777 694.279 326.44 690.5 331.208 685.732C335.975 680.964 339.754 675.301 342.327 669.069C344.901 662.837 346.218 656.157 346.203 649.415V51.8094C346.217 45.0671 344.899 38.3883 342.325 32.1566C339.751 25.9248 335.972 20.2628 331.204 15.4956C326.436 10.7283 320.773 6.94971 314.541 4.37667C308.309 1.80363 301.63 0.486818 294.888 0.501833L51.3243 0.498158Z" fill="black"/>
<path d="M3.27832 629.66H7.32766V73.4336H3.27832V629.66Z" fill="#EBEBEB"/>
<path d="M347.127 73.4297H343.078V629.663H347.127V73.4297Z" fill="#EBEBEB"/>
<path d="M347.127 68.6406H343.078V73.4285H347.127V68.6406Z" fill="#7D7E7F"/>
<path d="M55.3614 2.78333C48.5178 2.76831 41.7387 4.10511 35.4132 6.71697C29.0877 9.32884 23.3403 13.1643 18.501 18.0033C13.6617 22.8422 9.8258 28.5893 7.21349 34.9147C4.60118 41.24 3.2639 48.0191 3.27844 54.8626V68.6421H7.32778V53.2936C7.3147 47.1641 8.51239 41.0925 10.8521 35.4271C13.1918 29.7618 16.6275 24.6144 20.9618 20.2804C25.2962 15.9464 30.4438 12.5111 36.1094 10.1719C41.7749 7.8326 47.8466 6.63538 53.9761 6.64895H296.43C302.559 6.63587 308.631 7.83356 314.296 10.1733C319.961 12.513 325.109 15.9486 329.443 20.283C333.777 24.6173 337.212 29.765 339.551 35.4305C341.891 41.096 343.088 47.1678 343.074 53.2972V68.6421H347.124V54.8626C347.138 48.0197 345.801 41.2413 343.189 34.9164C340.577 28.5915 336.742 22.8447 331.904 18.0059C327.065 13.167 321.319 9.33139 314.994 6.71909C308.669 4.10679 301.891 2.76928 295.048 2.78333H55.3614Z" fill="#EBEBEB"/>
<mask id="mask3_280_847" style="mask-type:luminance" maskUnits="userSpaceOnUse" x="3" y="2" width="345" height="699">
<path d="M55.3606 2.53516C26.5073 2.53516 3.27734 25.7642 3.27734 54.6184V648.097C3.27734 676.951 26.5073 700.181 55.3606 700.181H295.041C323.895 700.181 347.125 676.951 347.125 648.097V54.6184C347.125 25.7642 323.895 2.53516 295.041 2.53516H55.3606ZM53.9771 6.40261H296.425C322.269 6.40261 343.074 27.206 343.074 53.0492V650.218C343.074 676.061 322.269 696.866 296.425 696.866H53.9771C28.1329 696.866 7.32757 676.061 7.32757 650.218V53.0502C7.32757 27.206 28.1329 6.40261 53.9771 6.40261Z" fill="white"/>
</mask>
<g mask="url(#mask3_280_847)">
<path fill-rule="evenodd" clip-rule="evenodd" d="M37.0734 11.8352C30.6695 11.6718 18.4653 13.6104 5.93256 27.6948C-12.2964 48.1803 4.02217 35.8536 4.02217 35.8536C4.02217 35.8536 15.2201 18.4938 30.8454 16.2364C46.4698 13.9799 41.6953 12.4156 41.6953 12.4156C41.6953 12.4156 39.9842 11.91 37.0734 11.8352ZM313.329 11.8352C310.418 11.9091 308.707 12.4166 308.707 12.4166C308.707 12.4166 303.932 13.9799 319.557 16.2373C335.181 18.4948 346.38 35.8536 346.38 35.8536C346.38 35.8536 362.699 48.1803 344.47 27.6948C331.938 13.6104 319.733 11.6728 313.33 11.8352H313.329ZM-2.16789 663.567C-3.5669 663.4 -2.61219 665.793 5.93256 675.395C24.1615 695.881 41.6953 690.673 41.6953 690.673C41.6953 690.673 46.4698 689.11 30.8454 686.852C15.2201 684.597 4.02217 667.236 4.02217 667.236C4.02217 667.236 -0.583191 663.757 -2.16789 663.567ZM352.57 663.567C350.985 663.757 346.38 667.236 346.38 667.236C346.38 667.236 335.182 684.596 319.557 686.853C303.932 689.11 308.707 690.674 308.707 690.674C308.707 690.674 326.241 695.881 344.47 675.395C353.015 665.792 353.968 663.4 352.57 663.567Z" fill="#434343"/>
</g>
<path d="M316.32 15.5154C315.178 15.4027 315.717 16.5411 318.28 18.9143C326.734 26.7454 331.983 38.0804 331.983 50.6978V652.636C331.983 665.253 326.733 676.588 318.28 684.419C315.717 686.792 315.178 687.931 316.32 687.818C317.005 687.75 318.295 687.232 320.115 686.261C332.472 679.669 339.647 665.448 339.647 650.342V52.9912C339.647 37.886 332.472 23.6645 320.115 17.0729C318.295 16.1017 317.004 15.5835 316.32 15.5154Z" fill="url(#paint3_linear_280_847)"/>
<path d="M34.0818 15.5151C35.2246 15.4049 34.6845 16.5403 32.1233 18.9141C23.6719 26.7445 18.4173 38.0805 18.4173 50.6989V652.644C18.4173 665.258 23.6719 676.594 32.1233 684.429C34.6845 686.799 35.2246 687.938 34.0818 687.824C33.3984 687.758 32.1086 687.236 30.286 686.27C17.9322 679.677 10.7559 665.453 10.7559 650.351V52.9918C10.7559 37.8857 17.9322 23.6653 30.286 17.0731C32.1086 16.0994 33.3984 15.5813 34.0818 15.5151Z" fill="url(#paint4_linear_280_847)"/>
<path d="M193.733 27.2637H157.278C155.815 27.2637 154.629 28.449 154.629 29.9112C154.629 31.3734 155.815 32.5587 157.278 32.5587H193.733C195.197 32.5587 196.383 31.3734 196.383 29.9112C196.383 28.449 195.197 27.2637 193.733 27.2637Z" fill="#1E1E1E"/>
<path d="M213.015 34.5134C215.744 34.5134 217.957 32.3007 217.957 29.5712C217.957 26.8416 215.744 24.6289 213.015 24.6289C210.285 24.6289 208.072 26.8416 208.072 29.5712C208.072 32.3007 210.285 34.5134 213.015 34.5134Z" fill="#2B2B2B"/>
<path d="M213.014 33.5282C215.2 33.5282 216.972 31.7564 216.972 29.5708C216.972 27.3851 215.2 25.6133 213.014 25.6133C210.828 25.6133 209.057 27.3851 209.057 29.5708C209.057 31.7564 210.828 33.5282 213.014 33.5282Z" fill="#0A0D13"/>
<path d="M213.014 32.5883C214.68 32.5883 216.031 31.2376 216.031 29.5715C216.031 27.9054 214.68 26.5547 213.014 26.5547C211.348 26.5547 209.997 27.9054 209.997 29.5715C209.997 31.2376 211.348 32.5883 213.014 32.5883Z" fill="#091427"/>
<path fill-rule="evenodd" clip-rule="evenodd" d="M210.938 27.5508C210.578 27.5875 210.071 28.1387 210.034 29.208C209.998 30.281 210.468 30.8652 210.732 30.8652C210.993 30.8652 212.085 29.2999 210.938 27.5508Z" fill="#235A91" fill-opacity="0.556"/>
<path fill-rule="evenodd" clip-rule="evenodd" d="M213.507 27.1747C212.941 27.3474 212.834 28.2624 212.856 28.7805C212.878 29.3023 213.613 30.6692 214.506 30.3642C215.395 30.0629 215.546 28.9312 215.178 28.1742C214.811 27.4136 214.135 26.8734 213.507 27.1747Z" fill="#235A91" fill-opacity="0.556"/>
<path d="M148.067 30.0249C148.067 31.0518 147.66 32.0369 146.936 32.7648C146.212 33.4927 145.228 33.904 144.202 33.9089C143.173 33.9128 142.186 33.5088 141.455 32.7856C140.724 32.0623 140.31 31.0788 140.303 30.0506C140.296 29.0236 140.696 28.0358 141.416 27.3031C142.135 26.5704 143.116 26.1525 144.143 26.1409C145.17 26.1291 146.161 26.5251 146.897 27.242C147.633 27.959 148.055 28.9385 148.071 29.9661L144.187 30.0249H148.067Z" fill="#0F0F0F"/>
<path d="M126.041 30.1136C126.041 31.6399 125.427 33.104 124.333 34.1852C123.238 35.2665 121.753 35.8769 120.203 35.8826C118.653 35.8874 117.164 35.2878 116.062 34.2149C114.96 33.142 114.335 31.6832 114.323 30.1577C114.313 28.6325 114.917 27.1655 116.003 26.0775C117.089 24.9895 118.569 24.3691 120.118 24.3519C121.667 24.3355 123.16 24.9234 124.27 25.9873C125.38 27.0511 126.017 28.5043 126.041 30.0291L120.181 30.1136H126.041Z" fill="#101010"/>
<path d="M53.9394 10.047C45.8255 10.0316 37.8731 12.3146 31.0029 16.6317V22.1619C37.5523 17.8663 45.2178 15.5858 53.0502 15.6029H297.844C306.002 15.6029 313.571 18.017 319.892 22.1619V16.6354C313.023 12.318 305.072 10.0349 296.959 10.0506H150.102L53.9394 10.047Z" fill="url(#paint5_linear_280_847)"/>
<path d="M54.4327 22.1621C37.1575 22.1621 23.251 36.0686 23.251 53.3428V649.499C23.251 666.773 37.1575 680.68 54.4317 680.68H295.969C313.244 680.68 327.15 666.773 327.15 649.499V53.3428C327.15 36.0686 313.244 22.1621 295.969 22.1621H265.468C264.087 22.1621 262.762 22.7109 261.785 23.6878C260.808 24.6647 260.259 25.9897 260.259 27.3712V29.7687C260.259 39.1544 252.705 46.7104 243.319 46.7104H107.082C104.856 46.7153 102.65 46.2804 100.593 45.4307C98.5354 44.581 96.6659 43.3332 95.0919 41.759C93.5179 40.1849 92.2704 38.3153 91.4209 36.2576C90.5715 34.2 90.1368 31.9948 90.1419 29.7687V27.3722C90.1419 26.6881 90.0072 26.0107 89.7454 25.3787C89.4836 24.7467 89.0999 24.1725 88.6162 23.6888C88.1325 23.2051 87.5583 22.8214 86.9263 22.5596C86.2943 22.2978 85.6169 22.1631 84.9328 22.1631L54.4327 22.1621Z" fill="url(#paint6_linear_280_847)"/>
<path d="M244.185 29.4979C244.184 31.5486 243.362 33.5153 241.898 34.9677C240.435 36.4201 238.449 37.2398 236.376 37.2475C234.304 37.2543 232.312 36.4485 230.839 35.0065C229.365 33.5644 228.529 31.6035 228.513 29.553C228.498 27.5035 229.304 25.5315 230.755 24.0682C232.206 22.605 234.183 21.7696 236.255 21.7446C238.329 21.7213 240.327 22.5118 241.813 23.943C243.298 25.3741 244.15 27.3293 244.181 29.3803L236.343 29.4942L244.185 29.4979Z" fill="#0F0F0F"/>
</g>
<path d="M49.8535 38.7541V44.5781H49.1483V39.4935H49.1141L47.6923 40.4376V39.721L49.1483 38.7541H49.8535ZM51.5285 44.5781V44.0662L53.4508 41.9619C53.6764 41.7154 53.8622 41.5012 54.0082 41.3192C54.1542 41.1353 54.2623 40.9628 54.3324 40.8016C54.4044 40.6386 54.4405 40.468 54.4405 40.2897C54.4405 40.085 54.3912 39.9077 54.2926 39.758C54.1959 39.6082 54.0632 39.4926 53.8945 39.411C53.7257 39.3295 53.5362 39.2887 53.3257 39.2887C53.102 39.2887 52.9067 39.3352 52.7399 39.4281C52.575 39.5191 52.447 39.6471 52.356 39.812C52.2669 39.9769 52.2223 40.1703 52.2223 40.3921H51.5512C51.5512 40.0509 51.6299 39.7513 51.7873 39.4935C51.9446 39.2357 52.1588 39.0347 52.4299 38.8906C52.7029 38.7465 53.0091 38.6745 53.3485 38.6745C53.6897 38.6745 53.9921 38.7465 54.2556 38.8906C54.5191 39.0347 54.7258 39.229 54.8756 39.4736C55.0253 39.7182 55.1002 39.9902 55.1002 40.2897C55.1002 40.504 55.0614 40.7135 54.9836 40.9182C54.9078 41.1211 54.7751 41.3476 54.5855 41.5979C54.3978 41.8462 54.1371 42.1496 53.8035 42.5079L52.4953 43.907V43.9525H55.2026V44.5781H51.5285ZM56.8776 43.8331C56.7373 43.8331 56.6169 43.7828 56.5164 43.6823C56.4159 43.5819 56.3657 43.4615 56.3657 43.3212C56.3657 43.1809 56.4159 43.0605 56.5164 42.96C56.6169 42.8596 56.7373 42.8093 56.8776 42.8093C57.0179 42.8093 57.1382 42.8596 57.2387 42.96C57.3392 43.0605 57.3894 43.1809 57.3894 43.3212C57.3894 43.4141 57.3657 43.4994 57.3183 43.5771C57.2728 43.6549 57.2112 43.7174 57.1335 43.7648C57.0577 43.8103 56.9724 43.8331 56.8776 43.8331ZM56.8776 40.8869C56.7373 40.8869 56.6169 40.8367 56.5164 40.7362C56.4159 40.6357 56.3657 40.5154 56.3657 40.3751C56.3657 40.2348 56.4159 40.1144 56.5164 40.0139C56.6169 39.9134 56.7373 39.8632 56.8776 39.8632C57.0179 39.8632 57.1382 39.9134 57.2387 40.0139C57.3392 40.1144 57.3894 40.2348 57.3894 40.3751C57.3894 40.468 57.3657 40.5533 57.3183 40.631C57.2728 40.7087 57.2112 40.7713 57.1335 40.8187C57.0577 40.8642 56.9724 40.8869 56.8776 40.8869ZM58.4459 43.3837V42.8036L61.0053 38.7541H61.4261V39.6527H61.1418L59.208 42.7126V42.7581H62.6546V43.3837H58.4459ZM61.1873 44.5781V43.2074V42.9373V38.7541H61.8584V44.5781H61.1873ZM65.5858 44.6578C65.1953 44.6578 64.8503 44.5886 64.5507 44.4502C64.2531 44.3099 64.0208 44.1174 63.854 43.8729C63.6872 43.6264 63.6047 43.3458 63.6066 43.0311C63.6047 42.7847 63.653 42.5572 63.7516 42.3486C63.8502 42.1382 63.9848 41.9628 64.1554 41.8225C64.328 41.6803 64.5204 41.5903 64.7327 41.5524V41.5182C64.454 41.4462 64.2322 41.2898 64.0673 41.049C63.9023 40.8064 63.8208 40.5305 63.8227 40.2215C63.8208 39.9257 63.8957 39.6613 64.0474 39.4281C64.199 39.1949 64.4076 39.011 64.673 38.8764C64.9403 38.7418 65.2446 38.6745 65.5858 38.6745C65.9233 38.6745 66.2247 38.7418 66.4901 38.8764C66.7556 39.011 66.9641 39.1949 67.1158 39.4281C67.2693 39.6613 67.3471 39.9257 67.349 40.2215C67.3471 40.5305 67.2627 40.8064 67.0959 41.049C66.9309 41.2898 66.712 41.4462 66.439 41.5182V41.5524C66.6494 41.5903 66.839 41.6803 67.0077 41.8225C67.1764 41.9628 67.311 42.1382 67.4115 42.3486C67.512 42.5572 67.5632 42.7847 67.5651 43.0311C67.5632 43.3458 67.4779 43.6264 67.3091 43.8729C67.1423 44.1174 66.9101 44.3099 66.6124 44.4502C66.3167 44.5886 65.9745 44.6578 65.5858 44.6578ZM65.5858 44.0321C65.8494 44.0321 66.0769 43.9895 66.2683 43.9042C66.4598 43.8188 66.6077 43.6985 66.712 43.543C66.8162 43.3875 66.8693 43.2055 66.8712 42.997C66.8693 42.7771 66.8124 42.5828 66.7006 42.414C66.5887 42.2453 66.4361 42.1126 66.2427 42.0159C66.0513 41.9192 65.8323 41.8709 65.5858 41.8709C65.3375 41.8709 65.1157 41.9192 64.9204 42.0159C64.727 42.1126 64.5744 42.2453 64.4626 42.414C64.3526 42.5828 64.2986 42.7771 64.3005 42.997C64.2986 43.2055 64.3488 43.3875 64.4512 43.543C64.5555 43.6985 64.7043 43.8188 64.8976 43.9042C65.091 43.9895 65.3204 44.0321 65.5858 44.0321ZM65.5858 41.268C65.7944 41.268 65.9792 41.2263 66.1404 41.1429C66.3034 41.0595 66.4314 40.9429 66.5243 40.7931C66.6172 40.6433 66.6646 40.468 66.6665 40.267C66.6646 40.0698 66.6181 39.8983 66.5271 39.7523C66.4361 39.6044 66.31 39.4907 66.1489 39.411C65.9878 39.3295 65.8001 39.2887 65.5858 39.2887C65.3678 39.2887 65.1773 39.3295 65.0142 39.411C64.8512 39.4907 64.7251 39.6044 64.636 39.7523C64.5469 39.8983 64.5033 40.0698 64.5052 40.267C64.5033 40.468 64.5479 40.6433 64.6389 40.7931C64.7318 40.9429 64.8597 41.0595 65.0228 41.1429C65.1858 41.2263 65.3735 41.268 65.5858 41.268ZM71.0096 44.5781V38.7541H72.9775C73.4344 38.7541 73.8078 38.8366 74.0979 39.0015C74.3899 39.1646 74.606 39.3854 74.7463 39.6641C74.8866 39.9428 74.9567 40.2537 74.9567 40.5969C74.9567 40.94 74.8866 41.2519 74.7463 41.5325C74.6079 41.8131 74.3936 42.0368 74.1036 42.2036C73.8135 42.3685 73.4419 42.451 72.9888 42.451H71.5783V41.8254H72.9661C73.2789 41.8254 73.5301 41.7713 73.7197 41.6633C73.9093 41.5552 74.0467 41.4092 74.132 41.2253C74.2192 41.0396 74.2628 40.8301 74.2628 40.5969C74.2628 40.3637 74.2192 40.1551 74.132 39.9712C74.0467 39.7874 73.9083 39.6433 73.7168 39.539C73.5254 39.4328 73.2713 39.3797 72.9547 39.3797H71.7148V44.5781H71.0096ZM76.0928 38.7541H76.9345L78.9138 43.5885H78.982L80.9613 38.7541H81.803V44.5781H81.1433V40.1532H81.0864L79.2664 44.5781H78.6294L76.8094 40.1532H76.7525V44.5781H76.0928V38.7541Z" fill="#E0E2FF"/>
<defs>
<linearGradient id="paint0_linear_280_847" x1="347.733" y1="164.492" x2="347.733" y2="241.812" gradientUnits="userSpaceOnUse">
<stop stop-color="#CBCBCB" stop-opacity="0.275"/>
<stop offset="0.04" stop-color="#CBCBCB"/>
<stop offset="0.96" stop-color="#CBCBCB"/>
<stop offset="1" stop-color="#CBCBCB" stop-opacity="0.276"/>
</linearGradient>
<linearGradient id="paint1_linear_280_847" x1="2.67281" y1="97.0703" x2="2.67281" y2="121.366" gradientUnits="userSpaceOnUse">
<stop stop-color="#CBCBCB" stop-opacity="0.275"/>
<stop offset="0.05" stop-color="#CBCBCB"/>
<stop offset="0.95" stop-color="#CBCBCB"/>
<stop offset="1" stop-color="#CBCBCB" stop-opacity="0.276"/>
</linearGradient>
<linearGradient id="paint2_linear_280_847" x1="2.67281" y1="211.729" x2="2.67281" y2="259.534" gradientUnits="userSpaceOnUse">
<stop stop-color="#CBCBCB" stop-opacity="0.275"/>
<stop offset="0.05" stop-color="#CBCBCB"/>
<stop offset="0.95" stop-color="#CBCBCB"/>
<stop offset="1" stop-color="#CBCBCB" stop-opacity="0.276"/>
</linearGradient>
<linearGradient id="paint3_linear_280_847" x1="330.973" y1="351.667" x2="339.647" y2="351.667" gradientUnits="userSpaceOnUse">
<stop stop-color="#404040"/>
<stop offset="0.6" stop-color="#838383"/>
<stop offset="1" stop-color="#A7A7A7"/>
</linearGradient>
<linearGradient id="paint4_linear_280_847" x1="19.4325" y1="351.666" x2="10.7585" y2="351.666" gradientUnits="userSpaceOnUse">
<stop stop-color="#404040"/>
<stop offset="0.6" stop-color="#838383"/>
<stop offset="1" stop-color="#A7A7A7"/>
</linearGradient>
<linearGradient id="paint5_linear_280_847" x1="31.0029" y1="22.1619" x2="319.895" y2="22.1619" gradientUnits="userSpaceOnUse">
<stop stop-color="#4F4F4F" stop-opacity="0.131"/>
<stop offset="0.07" stop-color="#4F4F4F"/>
<stop offset="0.937" stop-color="#4F4F4F" stop-opacity="0.953"/>
<stop offset="1" stop-color="#4F4F4F" stop-opacity="0"/>
</linearGradient>
<linearGradient id="paint6_linear_280_847" x1="295.969" y1="22.1621" x2="294.987" y2="895.104" gradientUnits="userSpaceOnUse">
<stop stop-color="#404040"/>
<stop offset="0.022" stop-color="#464646"/>
<stop offset="0.999" stop-color="#525252" stop-opacity="0.016"/>
<stop offset="1" stop-color="#444444" stop-opacity="0"/>
</linearGradient>
<clipPath id="clip0_280_847">
<rect width="350" height="701.944" fill="white" transform="translate(0.203125 0.578125)"/>
</clipPath>
</defs>
</svg>
