<svg width="350" height="500" viewBox="0 0 350 500" fill="none" xmlns="http://www.w3.org/2000/svg">
<path d="M65.8336 125V103.903H70.294V121.322H79.3384V125H65.8336ZM89.4206 125.309C87.7931 125.309 86.3921 124.979 85.2178 124.32C84.0503 123.654 83.1507 122.713 82.5189 121.498C81.8871 120.275 81.5712 118.83 81.5712 117.161C81.5712 115.533 81.8871 114.105 82.5189 112.876C83.1507 111.646 84.04 110.688 85.1869 110.002C86.3406 109.315 87.6935 108.971 89.2455 108.971C90.2894 108.971 91.2611 109.14 92.1607 109.476C93.0672 109.806 93.857 110.304 94.53 110.97C95.2099 111.636 95.7387 112.474 96.1164 113.483C96.4941 114.486 96.6829 115.66 96.6829 117.006V118.212H83.3224V115.492H92.5522C92.5522 114.86 92.4148 114.301 92.1401 113.813C91.8654 113.325 91.4843 112.944 90.9967 112.67C90.516 112.388 89.9563 112.247 89.3176 112.247C88.6515 112.247 88.0609 112.402 87.5458 112.711C87.0376 113.013 86.6393 113.422 86.3509 113.937C86.0625 114.445 85.9148 115.011 85.9079 115.636V118.222C85.9079 119.005 86.0522 119.681 86.3406 120.251C86.6359 120.821 87.0514 121.261 87.587 121.57C88.1227 121.879 88.7579 122.033 89.4927 122.033C89.9803 122.033 90.4267 121.965 90.8319 121.827C91.2371 121.69 91.5839 121.484 91.8723 121.209C92.1607 120.934 92.3805 120.598 92.5316 120.2L96.5902 120.468C96.3842 121.443 95.9619 122.294 95.3232 123.022C94.6914 123.743 93.8742 124.306 92.8715 124.712C91.8757 125.11 90.7254 125.309 89.4206 125.309ZM107.963 109.177V112.474H98.4341V109.177H107.963ZM100.597 105.387H104.986V120.138C104.986 120.543 105.047 120.859 105.171 121.086C105.295 121.305 105.466 121.46 105.686 121.549C105.913 121.638 106.174 121.683 106.469 121.683C106.675 121.683 106.881 121.666 107.087 121.632C107.293 121.59 107.451 121.559 107.561 121.539L108.251 124.804C108.031 124.873 107.722 124.952 107.324 125.041C106.926 125.137 106.442 125.196 105.872 125.216C104.814 125.258 103.887 125.117 103.09 124.794C102.3 124.471 101.686 123.97 101.246 123.29C100.807 122.61 100.59 121.752 100.597 120.715V105.387ZM113.644 103.903V111.918H110.512V103.903H113.644ZM130.048 113.689L126.031 113.937C125.962 113.593 125.815 113.284 125.588 113.009C125.361 112.728 125.063 112.505 124.692 112.34C124.328 112.168 123.892 112.082 123.383 112.082C122.704 112.082 122.13 112.227 121.663 112.515C121.196 112.797 120.963 113.174 120.963 113.648C120.963 114.026 121.114 114.345 121.416 114.606C121.718 114.867 122.237 115.077 122.971 115.235L125.835 115.811C127.373 116.127 128.52 116.635 129.276 117.336C130.031 118.036 130.409 118.957 130.409 120.097C130.409 121.134 130.103 122.044 129.492 122.826C128.888 123.609 128.057 124.221 126.999 124.66C125.948 125.093 124.736 125.309 123.363 125.309C121.268 125.309 119.6 124.873 118.357 124.001C117.12 123.122 116.396 121.927 116.183 120.416L120.499 120.189C120.63 120.828 120.946 121.316 121.447 121.652C121.948 121.982 122.59 122.147 123.373 122.147C124.142 122.147 124.76 121.999 125.227 121.704C125.701 121.401 125.942 121.013 125.948 120.54C125.942 120.141 125.773 119.815 125.444 119.561C125.114 119.3 124.606 119.101 123.919 118.964L121.179 118.418C119.634 118.109 118.484 117.573 117.728 116.811C116.98 116.048 116.605 115.077 116.605 113.895C116.605 112.879 116.88 112.003 117.429 111.269C117.986 110.534 118.765 109.967 119.768 109.569C120.777 109.171 121.958 108.971 123.311 108.971C125.31 108.971 126.882 109.394 128.029 110.238C129.183 111.083 129.856 112.233 130.048 113.689ZM147.035 125.309C145.414 125.309 144.02 124.966 142.853 124.279C141.692 123.585 140.799 122.624 140.174 121.395C139.556 120.165 139.247 118.751 139.247 117.151C139.247 115.53 139.56 114.108 140.185 112.886C140.816 111.657 141.713 110.699 142.873 110.012C144.034 109.318 145.414 108.971 147.014 108.971C148.395 108.971 149.603 109.222 150.64 109.723C151.677 110.225 152.498 110.929 153.102 111.835C153.707 112.742 154.04 113.806 154.101 115.029H149.96C149.844 114.239 149.535 113.604 149.033 113.123C148.539 112.635 147.89 112.391 147.086 112.391C146.407 112.391 145.812 112.577 145.304 112.948C144.803 113.312 144.412 113.844 144.13 114.544C143.848 115.245 143.708 116.093 143.708 117.089C143.708 118.098 143.845 118.957 144.12 119.664C144.401 120.371 144.796 120.91 145.304 121.281C145.812 121.652 146.407 121.838 147.086 121.838C147.588 121.838 148.038 121.735 148.436 121.529C148.841 121.322 149.174 121.024 149.435 120.632C149.703 120.234 149.878 119.757 149.96 119.2H154.101C154.033 120.409 153.703 121.474 153.113 122.394C152.529 123.307 151.722 124.021 150.692 124.536C149.662 125.052 148.443 125.309 147.035 125.309ZM161.299 115.853V125H156.911V103.903H161.176V111.969H161.361C161.718 111.035 162.295 110.304 163.092 109.775C163.888 109.239 164.888 108.971 166.089 108.971C167.188 108.971 168.146 109.212 168.963 109.693C169.788 110.166 170.426 110.85 170.879 111.742C171.34 112.628 171.566 113.689 171.559 114.925V125H167.171V115.708C167.178 114.733 166.931 113.974 166.429 113.432C165.935 112.889 165.241 112.618 164.349 112.618C163.751 112.618 163.222 112.745 162.762 112.999C162.309 113.253 161.952 113.624 161.691 114.112C161.437 114.592 161.306 115.173 161.299 115.853ZM179.525 125.299C178.515 125.299 177.616 125.124 176.826 124.773C176.036 124.416 175.411 123.891 174.951 123.197C174.498 122.497 174.271 121.625 174.271 120.581C174.271 119.702 174.432 118.964 174.755 118.366C175.078 117.769 175.518 117.288 176.074 116.924C176.63 116.56 177.262 116.285 177.969 116.1C178.683 115.914 179.432 115.784 180.215 115.708C181.135 115.612 181.877 115.523 182.44 115.441C183.003 115.351 183.412 115.221 183.666 115.049C183.92 114.877 184.047 114.623 184.047 114.287V114.225C184.047 113.573 183.841 113.068 183.429 112.711C183.024 112.354 182.447 112.175 181.698 112.175C180.908 112.175 180.28 112.35 179.813 112.7C179.346 113.044 179.037 113.476 178.886 113.998L174.827 113.669C175.033 112.707 175.439 111.876 176.043 111.176C176.647 110.469 177.427 109.926 178.381 109.548C179.343 109.164 180.455 108.971 181.719 108.971C182.598 108.971 183.439 109.074 184.243 109.28C185.053 109.486 185.771 109.806 186.396 110.238C187.027 110.671 187.525 111.227 187.889 111.907C188.253 112.58 188.435 113.387 188.435 114.328V125H184.273V122.806H184.15C183.896 123.3 183.556 123.736 183.13 124.114C182.704 124.485 182.193 124.777 181.595 124.99C180.998 125.196 180.308 125.299 179.525 125.299ZM180.781 122.27C181.427 122.27 181.997 122.143 182.491 121.889C182.986 121.628 183.374 121.278 183.655 120.838C183.937 120.399 184.078 119.901 184.078 119.345V117.666C183.94 117.755 183.752 117.837 183.511 117.913C183.278 117.981 183.013 118.047 182.718 118.109C182.423 118.163 182.127 118.215 181.832 118.263C181.537 118.304 181.269 118.342 181.029 118.376C180.514 118.452 180.064 118.572 179.679 118.737C179.295 118.902 178.996 119.125 178.783 119.406C178.57 119.681 178.464 120.025 178.464 120.437C178.464 121.034 178.68 121.491 179.113 121.807C179.552 122.116 180.108 122.27 180.781 122.27ZM200.256 109.177V112.474H190.727V109.177H200.256ZM192.89 105.387H197.279V120.138C197.279 120.543 197.34 120.859 197.464 121.086C197.588 121.305 197.759 121.46 197.979 121.549C198.206 121.638 198.467 121.683 198.762 121.683C198.968 121.683 199.174 121.666 199.38 121.632C199.586 121.59 199.744 121.559 199.854 121.539L200.544 124.804C200.324 124.873 200.015 124.952 199.617 125.041C199.219 125.137 198.735 125.196 198.165 125.216C197.107 125.258 196.18 125.117 195.383 124.794C194.594 124.471 193.979 123.97 193.539 123.29C193.1 122.61 192.884 121.752 192.89 120.715V105.387Z" fill="white"/>
<path d="M65.4091 158.219V146.582H72.3864V147.832H66.8182V151.764H71.8636V153.014H66.8182V158.219H65.4091ZM74.6179 158.219V149.491H75.9588V158.219H74.6179ZM75.2997 148.037C75.0384 148.037 74.813 147.948 74.6236 147.77C74.438 147.592 74.3452 147.378 74.3452 147.128C74.3452 146.878 74.438 146.664 74.6236 146.486C74.813 146.308 75.0384 146.219 75.2997 146.219C75.5611 146.219 75.7846 146.308 75.9702 146.486C76.1596 146.664 76.2543 146.878 76.2543 147.128C76.2543 147.378 76.1596 147.592 75.9702 147.77C75.7846 147.948 75.5611 148.037 75.2997 148.037ZM79.7557 146.582V158.219H78.4148V146.582H79.7557ZM83.5526 146.582V158.219H82.2116V146.582H83.5526ZM94.054 158.401C93.2661 158.401 92.5748 158.213 91.9801 157.838C91.3892 157.463 90.9271 156.938 90.5938 156.264C90.2642 155.59 90.0994 154.802 90.0994 153.901C90.0994 152.991 90.2642 152.198 90.5938 151.52C90.9271 150.842 91.3892 150.315 91.9801 149.94C92.5748 149.565 93.2661 149.378 94.054 149.378C94.8419 149.378 95.5313 149.565 96.1222 149.94C96.7169 150.315 97.179 150.842 97.5085 151.52C97.8419 152.198 98.0085 152.991 98.0085 153.901C98.0085 154.802 97.8419 155.59 97.5085 156.264C97.179 156.938 96.7169 157.463 96.1222 157.838C95.5313 158.213 94.8419 158.401 94.054 158.401ZM94.054 157.196C94.6525 157.196 95.1449 157.043 95.5312 156.736C95.9176 156.429 96.2036 156.026 96.3892 155.526C96.5748 155.026 96.6676 154.484 96.6676 153.901C96.6676 153.317 96.5748 152.774 96.3892 152.27C96.2036 151.766 95.9176 151.359 95.5312 151.048C95.1449 150.738 94.6525 150.582 94.054 150.582C93.4555 150.582 92.9631 150.738 92.5767 151.048C92.1903 151.359 91.9044 151.766 91.7188 152.27C91.5331 152.774 91.4403 153.317 91.4403 153.901C91.4403 154.484 91.5331 155.026 91.7188 155.526C91.9044 156.026 92.1903 156.429 92.5767 156.736C92.9631 157.043 93.4555 157.196 94.054 157.196ZM105.555 154.651V149.491H106.896V158.219H105.555V156.741H105.464C105.26 157.185 104.942 157.562 104.51 157.872C104.078 158.179 103.533 158.332 102.874 158.332C102.328 158.332 101.843 158.213 101.419 157.974C100.995 157.732 100.661 157.368 100.419 156.884C100.177 156.395 100.055 155.779 100.055 155.037V149.491H101.396V154.946C101.396 155.582 101.574 156.09 101.93 156.469C102.29 156.848 102.749 157.037 103.305 157.037C103.639 157.037 103.978 156.952 104.322 156.781C104.671 156.611 104.963 156.349 105.197 155.997C105.436 155.645 105.555 155.196 105.555 154.651ZM113.148 149.491V150.628H108.625V149.491H113.148ZM109.943 147.401H111.284V155.719C111.284 156.098 111.339 156.382 111.449 156.571C111.563 156.757 111.706 156.882 111.881 156.946C112.059 157.007 112.246 157.037 112.443 157.037C112.591 157.037 112.712 157.029 112.807 157.014C112.902 156.995 112.977 156.98 113.034 156.969L113.307 158.173C113.216 158.207 113.089 158.241 112.926 158.276C112.763 158.313 112.557 158.332 112.307 158.332C111.928 158.332 111.557 158.251 111.193 158.088C110.833 157.925 110.534 157.677 110.295 157.344C110.061 157.01 109.943 156.59 109.943 156.082V147.401ZM123.46 149.491V150.628H118.938V149.491H123.46ZM120.256 147.401H121.597V155.719C121.597 156.098 121.652 156.382 121.761 156.571C121.875 156.757 122.019 156.882 122.193 156.946C122.371 157.007 122.559 157.037 122.756 157.037C122.903 157.037 123.025 157.029 123.119 157.014C123.214 156.995 123.29 156.98 123.347 156.969L123.619 158.173C123.528 158.207 123.402 158.241 123.239 158.276C123.076 158.313 122.869 158.332 122.619 158.332C122.241 158.332 121.869 158.251 121.506 158.088C121.146 157.925 120.847 157.677 120.608 157.344C120.373 157.01 120.256 156.59 120.256 156.082V147.401ZM127.006 152.969V158.219H125.665V146.582H127.006V150.855H127.119C127.324 150.404 127.631 150.046 128.04 149.781C128.453 149.512 129.002 149.378 129.688 149.378C130.282 149.378 130.803 149.497 131.25 149.736C131.697 149.971 132.044 150.332 132.29 150.821C132.54 151.306 132.665 151.923 132.665 152.673V158.219H131.324V152.764C131.324 152.071 131.144 151.535 130.784 151.156C130.428 150.774 129.934 150.582 129.301 150.582C128.862 150.582 128.468 150.675 128.119 150.861C127.775 151.046 127.502 151.317 127.301 151.673C127.104 152.029 127.006 152.461 127.006 152.969ZM138.777 158.401C137.936 158.401 137.211 158.215 136.601 157.844C135.995 157.469 135.527 156.946 135.197 156.276C134.872 155.601 134.709 154.817 134.709 153.923C134.709 153.029 134.872 152.241 135.197 151.56C135.527 150.874 135.985 150.34 136.572 149.957C137.163 149.571 137.853 149.378 138.641 149.378C139.095 149.378 139.544 149.454 139.987 149.605C140.43 149.757 140.834 150.003 141.197 150.344C141.561 150.681 141.851 151.128 142.067 151.685C142.283 152.241 142.391 152.927 142.391 153.741V154.31H135.663V153.151H141.027C141.027 152.658 140.929 152.219 140.732 151.832C140.538 151.446 140.262 151.141 139.902 150.918C139.546 150.694 139.125 150.582 138.641 150.582C138.107 150.582 137.644 150.715 137.254 150.98C136.868 151.241 136.571 151.582 136.362 152.003C136.154 152.423 136.05 152.874 136.05 153.355V154.128C136.05 154.787 136.163 155.346 136.391 155.804C136.622 156.259 136.942 156.605 137.351 156.844C137.76 157.079 138.235 157.196 138.777 157.196C139.129 157.196 139.447 157.147 139.732 157.048C140.019 156.946 140.268 156.795 140.476 156.594C140.684 156.389 140.845 156.135 140.959 155.832L142.254 156.196C142.118 156.635 141.889 157.022 141.567 157.355C141.245 157.685 140.847 157.942 140.374 158.128C139.9 158.31 139.368 158.401 138.777 158.401ZM152.817 149.491V150.628H148.112V149.491H152.817ZM149.521 158.219V148.287C149.521 147.787 149.639 147.37 149.874 147.037C150.108 146.704 150.413 146.454 150.788 146.287C151.163 146.12 151.559 146.037 151.976 146.037C152.305 146.037 152.574 146.063 152.783 146.116C152.991 146.17 153.146 146.219 153.249 146.264L152.862 147.423C152.794 147.401 152.699 147.372 152.578 147.338C152.461 147.304 152.305 147.287 152.112 147.287C151.669 147.287 151.349 147.399 151.152 147.622C150.959 147.846 150.862 148.173 150.862 148.605V158.219H149.521ZM157.882 158.401C157.094 158.401 156.403 158.213 155.808 157.838C155.217 157.463 154.755 156.938 154.422 156.264C154.092 155.59 153.928 154.802 153.928 153.901C153.928 152.991 154.092 152.198 154.422 151.52C154.755 150.842 155.217 150.315 155.808 149.94C156.403 149.565 157.094 149.378 157.882 149.378C158.67 149.378 159.359 149.565 159.95 149.94C160.545 150.315 161.007 150.842 161.337 151.52C161.67 152.198 161.837 152.991 161.837 153.901C161.837 154.802 161.67 155.59 161.337 156.264C161.007 156.938 160.545 157.463 159.95 157.838C159.359 158.213 158.67 158.401 157.882 158.401ZM157.882 157.196C158.481 157.196 158.973 157.043 159.359 156.736C159.746 156.429 160.032 156.026 160.217 155.526C160.403 155.026 160.496 154.484 160.496 153.901C160.496 153.317 160.403 152.774 160.217 152.27C160.032 151.766 159.746 151.359 159.359 151.048C158.973 150.738 158.481 150.582 157.882 150.582C157.284 150.582 156.791 150.738 156.405 151.048C156.018 151.359 155.732 151.766 155.547 152.27C155.361 152.774 155.268 153.317 155.268 153.901C155.268 154.484 155.361 155.026 155.547 155.526C155.732 156.026 156.018 156.429 156.405 156.736C156.791 157.043 157.284 157.196 157.882 157.196ZM163.884 158.219V149.491H165.179V150.81H165.27C165.429 150.378 165.717 150.027 166.134 149.759C166.55 149.49 167.02 149.355 167.543 149.355C167.641 149.355 167.764 149.357 167.912 149.361C168.06 149.365 168.171 149.37 168.247 149.378V150.741C168.202 150.73 168.098 150.713 167.935 150.69C167.776 150.664 167.607 150.651 167.429 150.651C167.005 150.651 166.626 150.74 166.293 150.918C165.963 151.092 165.702 151.334 165.509 151.645C165.319 151.952 165.224 152.302 165.224 152.696V158.219H163.884ZM169.837 158.219V149.491H171.132V150.855H171.246C171.428 150.389 171.721 150.027 172.126 149.77C172.532 149.509 173.018 149.378 173.587 149.378C174.162 149.378 174.642 149.509 175.024 149.77C175.411 150.027 175.712 150.389 175.928 150.855H176.018C176.242 150.404 176.577 150.046 177.024 149.781C177.471 149.512 178.007 149.378 178.632 149.378C179.412 149.378 180.051 149.622 180.547 150.111C181.043 150.596 181.291 151.351 181.291 152.378V158.219H179.95V152.378C179.95 151.734 179.774 151.274 179.422 150.997C179.07 150.721 178.655 150.582 178.178 150.582C177.564 150.582 177.089 150.768 176.751 151.139C176.414 151.507 176.246 151.973 176.246 152.537V158.219H174.882V152.241C174.882 151.745 174.721 151.346 174.399 151.043C174.077 150.736 173.662 150.582 173.155 150.582C172.806 150.582 172.481 150.675 172.178 150.861C171.878 151.046 171.636 151.304 171.45 151.634C171.268 151.959 171.178 152.336 171.178 152.764V158.219H169.837ZM190.811 158.423C190.258 158.423 189.756 158.319 189.305 158.111C188.855 157.899 188.497 157.594 188.232 157.196C187.966 156.795 187.834 156.31 187.834 155.741C187.834 155.241 187.932 154.836 188.129 154.526C188.326 154.211 188.589 153.965 188.919 153.787C189.249 153.609 189.612 153.476 190.01 153.389C190.411 153.298 190.815 153.226 191.22 153.173C191.75 153.105 192.18 153.054 192.51 153.02C192.843 152.982 193.086 152.92 193.237 152.832C193.393 152.745 193.47 152.594 193.47 152.378V152.332C193.47 151.772 193.317 151.336 193.01 151.026C192.707 150.715 192.247 150.56 191.629 150.56C190.989 150.56 190.487 150.7 190.124 150.98C189.76 151.26 189.504 151.56 189.357 151.878L188.084 151.423C188.311 150.893 188.614 150.48 188.993 150.185C189.375 149.885 189.792 149.677 190.243 149.56C190.697 149.438 191.144 149.378 191.584 149.378C191.864 149.378 192.186 149.412 192.55 149.48C192.917 149.545 193.271 149.679 193.612 149.884C193.957 150.088 194.243 150.397 194.47 150.81C194.697 151.223 194.811 151.776 194.811 152.469V158.219H193.47V157.037H193.402C193.311 157.226 193.16 157.429 192.947 157.645C192.735 157.861 192.453 158.045 192.101 158.196C191.749 158.348 191.319 158.423 190.811 158.423ZM191.016 157.219C191.546 157.219 191.993 157.115 192.357 156.906C192.724 156.698 193 156.429 193.186 156.099C193.375 155.77 193.47 155.423 193.47 155.06V153.832C193.413 153.901 193.288 153.963 193.095 154.02C192.906 154.073 192.686 154.12 192.436 154.162C192.19 154.2 191.949 154.234 191.714 154.264C191.483 154.291 191.296 154.313 191.152 154.332C190.804 154.378 190.478 154.452 190.175 154.554C189.875 154.652 189.633 154.802 189.447 155.003C189.266 155.2 189.175 155.469 189.175 155.81C189.175 156.276 189.347 156.628 189.692 156.866C190.04 157.101 190.482 157.219 191.016 157.219ZM198.599 152.969V158.219H197.259V149.491H198.554V150.855H198.668C198.872 150.412 199.183 150.056 199.599 149.787C200.016 149.514 200.554 149.378 201.213 149.378C201.804 149.378 202.321 149.499 202.764 149.741C203.207 149.98 203.552 150.344 203.798 150.832C204.045 151.317 204.168 151.931 204.168 152.673V158.219H202.827V152.764C202.827 152.079 202.649 151.545 202.293 151.162C201.937 150.776 201.448 150.582 200.827 150.582C200.399 150.582 200.016 150.675 199.679 150.861C199.346 151.046 199.082 151.317 198.889 151.673C198.696 152.029 198.599 152.461 198.599 152.969ZM209.913 158.401C209.186 158.401 208.544 158.217 207.987 157.849C207.43 157.478 206.995 156.955 206.68 156.281C206.366 155.603 206.209 154.802 206.209 153.878C206.209 152.961 206.366 152.166 206.68 151.491C206.995 150.817 207.432 150.296 207.993 149.929C208.554 149.562 209.201 149.378 209.936 149.378C210.504 149.378 210.953 149.473 211.283 149.662C211.616 149.848 211.87 150.06 212.044 150.298C212.222 150.533 212.36 150.726 212.459 150.878H212.572V146.582H213.913V158.219H212.618V156.878H212.459C212.36 157.037 212.22 157.238 212.038 157.48C211.857 157.719 211.597 157.933 211.26 158.122C210.923 158.308 210.474 158.401 209.913 158.401ZM210.095 157.196C210.633 157.196 211.088 157.056 211.459 156.776C211.83 156.491 212.112 156.099 212.305 155.599C212.499 155.096 212.595 154.514 212.595 153.855C212.595 153.204 212.5 152.634 212.311 152.145C212.122 151.652 211.841 151.27 211.47 150.997C211.099 150.721 210.641 150.582 210.095 150.582C209.527 150.582 209.054 150.728 208.675 151.02C208.3 151.308 208.018 151.7 207.828 152.196C207.643 152.688 207.55 153.241 207.55 153.855C207.55 154.476 207.644 155.041 207.834 155.548C208.027 156.052 208.311 156.454 208.686 156.753C209.065 157.048 209.535 157.196 210.095 157.196ZM223.033 158.219L220.374 149.491H221.783L223.669 156.173H223.76L225.624 149.491H227.055L228.896 156.151H228.987L230.874 149.491H232.283L229.624 158.219H228.305L226.396 151.514H226.26L224.351 158.219H223.033ZM237.418 158.401C236.577 158.401 235.851 158.215 235.241 157.844C234.635 157.469 234.168 156.946 233.838 156.276C233.512 155.601 233.349 154.817 233.349 153.923C233.349 153.029 233.512 152.241 233.838 151.56C234.168 150.874 234.626 150.34 235.213 149.957C235.804 149.571 236.493 149.378 237.281 149.378C237.736 149.378 238.185 149.454 238.628 149.605C239.071 149.757 239.474 150.003 239.838 150.344C240.202 150.681 240.491 151.128 240.707 151.685C240.923 152.241 241.031 152.927 241.031 153.741V154.31H234.304V153.151H239.668C239.668 152.658 239.569 152.219 239.372 151.832C239.179 151.446 238.902 151.141 238.543 150.918C238.187 150.694 237.766 150.582 237.281 150.582C236.747 150.582 236.285 150.715 235.895 150.98C235.509 151.241 235.211 151.582 235.003 152.003C234.795 152.423 234.69 152.874 234.69 153.355V154.128C234.69 154.787 234.804 155.346 235.031 155.804C235.262 156.259 235.582 156.605 235.991 156.844C236.401 157.079 236.876 157.196 237.418 157.196C237.77 157.196 238.088 157.147 238.372 157.048C238.66 156.946 238.908 156.795 239.116 156.594C239.325 156.389 239.486 156.135 239.599 155.832L240.895 156.196C240.759 156.635 240.529 157.022 240.207 157.355C239.885 157.685 239.488 157.942 239.014 158.128C238.541 158.31 238.009 158.401 237.418 158.401ZM244.23 146.582V150.582H242.98V146.582H244.23ZM247.959 146.582V158.219H246.618V146.582H247.959ZM251.756 146.582V158.219H250.415V146.582H251.756ZM258.893 158.219V146.582H260.234V150.878H260.348C260.446 150.726 260.583 150.533 260.757 150.298C260.935 150.06 261.189 149.848 261.518 149.662C261.852 149.473 262.303 149.378 262.871 149.378C263.606 149.378 264.253 149.562 264.814 149.929C265.375 150.296 265.812 150.817 266.126 151.491C266.441 152.166 266.598 152.961 266.598 153.878C266.598 154.802 266.441 155.603 266.126 156.281C265.812 156.955 265.376 157.478 264.82 157.849C264.263 158.217 263.621 158.401 262.893 158.401C262.333 158.401 261.884 158.308 261.547 158.122C261.21 157.933 260.95 157.719 260.768 157.48C260.587 157.238 260.446 157.037 260.348 156.878H260.189V158.219H258.893ZM260.212 153.855C260.212 154.514 260.308 155.096 260.501 155.599C260.695 156.099 260.977 156.491 261.348 156.776C261.719 157.056 262.174 157.196 262.712 157.196C263.272 157.196 263.74 157.048 264.115 156.753C264.494 156.454 264.778 156.052 264.967 155.548C265.161 155.041 265.257 154.476 265.257 153.855C265.257 153.241 265.162 152.688 264.973 152.196C264.787 151.7 264.505 151.308 264.126 151.02C263.751 150.728 263.28 150.582 262.712 150.582C262.166 150.582 261.708 150.721 261.337 150.997C260.965 151.27 260.685 151.652 260.496 152.145C260.306 152.634 260.212 153.204 260.212 153.855ZM272.308 158.401C271.467 158.401 270.742 158.215 270.132 157.844C269.526 157.469 269.058 156.946 268.729 156.276C268.403 155.601 268.24 154.817 268.24 153.923C268.24 153.029 268.403 152.241 268.729 151.56C269.058 150.874 269.517 150.34 270.104 149.957C270.695 149.571 271.384 149.378 272.172 149.378C272.626 149.378 273.075 149.454 273.518 149.605C273.962 149.757 274.365 150.003 274.729 150.344C275.092 150.681 275.382 151.128 275.598 151.685C275.814 152.241 275.922 152.927 275.922 153.741V154.31H269.195V153.151H274.558C274.558 152.658 274.46 152.219 274.263 151.832C274.07 151.446 273.793 151.141 273.433 150.918C273.077 150.694 272.657 150.582 272.172 150.582C271.638 150.582 271.176 150.715 270.786 150.98C270.399 151.241 270.102 151.582 269.893 152.003C269.685 152.423 269.581 152.874 269.581 153.355V154.128C269.581 154.787 269.695 155.346 269.922 155.804C270.153 156.259 270.473 156.605 270.882 156.844C271.291 157.079 271.767 157.196 272.308 157.196C272.661 157.196 272.979 157.147 273.263 157.048C273.551 156.946 273.799 156.795 274.007 156.594C274.215 156.389 274.376 156.135 274.49 155.832L275.786 156.196C275.649 156.635 275.42 157.022 275.098 157.355C274.776 157.685 274.378 157.942 273.905 158.128C273.431 158.31 272.899 158.401 272.308 158.401ZM65.2273 182.219V173.491H66.5682V182.219H65.2273ZM65.9091 172.037C65.6477 172.037 65.4223 171.948 65.233 171.77C65.0473 171.592 64.9545 171.378 64.9545 171.128C64.9545 170.878 65.0473 170.664 65.233 170.486C65.4223 170.308 65.6477 170.219 65.9091 170.219C66.1705 170.219 66.3939 170.308 66.5795 170.486C66.7689 170.664 66.8636 170.878 66.8636 171.128C66.8636 171.378 66.7689 171.592 66.5795 171.77C66.3939 171.948 66.1705 172.037 65.9091 172.037ZM70.3651 176.969V182.219H69.0241V173.491H70.3196V174.855H70.4332C70.6378 174.412 70.9484 174.056 71.3651 173.787C71.7817 173.514 72.3196 173.378 72.9787 173.378C73.5696 173.378 74.0866 173.499 74.5298 173.741C74.973 173.98 75.3177 174.344 75.5639 174.832C75.8101 175.317 75.9332 175.931 75.9332 176.673V182.219H74.5923V176.764C74.5923 176.079 74.4143 175.545 74.0582 175.162C73.7022 174.776 73.2135 174.582 72.5923 174.582C72.1643 174.582 71.7817 174.675 71.4446 174.861C71.1113 175.046 70.848 175.317 70.6548 175.673C70.4616 176.029 70.3651 176.461 70.3651 176.969ZM86.679 173.491V174.628H82.1562V173.491H86.679ZM83.4744 171.401H84.8153V179.719C84.8153 180.098 84.8703 180.382 84.9801 180.571C85.0938 180.757 85.2377 180.882 85.4119 180.946C85.59 181.007 85.7775 181.037 85.9744 181.037C86.1222 181.037 86.2434 181.029 86.3381 181.014C86.4328 180.995 86.5085 180.98 86.5653 180.969L86.8381 182.173C86.7472 182.207 86.6203 182.241 86.4574 182.276C86.2945 182.313 86.0881 182.332 85.8381 182.332C85.4593 182.332 85.0881 182.251 84.7244 182.088C84.3646 181.925 84.0653 181.677 83.8267 181.344C83.5919 181.01 83.4744 180.59 83.4744 180.082V171.401ZM92.1477 182.401C91.3598 182.401 90.6686 182.213 90.0739 181.838C89.483 181.463 89.0208 180.938 88.6875 180.264C88.358 179.59 88.1932 178.802 88.1932 177.901C88.1932 176.991 88.358 176.198 88.6875 175.52C89.0208 174.842 89.483 174.315 90.0739 173.94C90.6686 173.565 91.3598 173.378 92.1477 173.378C92.9356 173.378 93.625 173.565 94.2159 173.94C94.8106 174.315 95.2727 174.842 95.6023 175.52C95.9356 176.198 96.1023 176.991 96.1023 177.901C96.1023 178.802 95.9356 179.59 95.6023 180.264C95.2727 180.938 94.8106 181.463 94.2159 181.838C93.625 182.213 92.9356 182.401 92.1477 182.401ZM92.1477 181.196C92.7462 181.196 93.2386 181.043 93.625 180.736C94.0114 180.429 94.2973 180.026 94.483 179.526C94.6686 179.026 94.7614 178.484 94.7614 177.901C94.7614 177.317 94.6686 176.774 94.483 176.27C94.2973 175.766 94.0114 175.359 93.625 175.048C93.2386 174.738 92.7462 174.582 92.1477 174.582C91.5492 174.582 91.0568 174.738 90.6705 175.048C90.2841 175.359 89.9981 175.766 89.8125 176.27C89.6269 176.774 89.5341 177.317 89.5341 177.901C89.5341 178.484 89.6269 179.026 89.8125 179.526C89.9981 180.026 90.2841 180.429 90.6705 180.736C91.0568 181.043 91.5492 181.196 92.1477 181.196ZM103.649 178.651V173.491H104.99V182.219H103.649V180.741H103.558C103.354 181.185 103.036 181.562 102.604 181.872C102.172 182.179 101.626 182.332 100.967 182.332C100.422 182.332 99.937 182.213 99.5128 181.974C99.0885 181.732 98.7552 181.368 98.5128 180.884C98.2704 180.395 98.1491 179.779 98.1491 179.037V173.491H99.4901V178.946C99.4901 179.582 99.6681 180.09 100.024 180.469C100.384 180.848 100.842 181.037 101.399 181.037C101.732 181.037 102.071 180.952 102.416 180.781C102.765 180.611 103.056 180.349 103.291 179.997C103.53 179.645 103.649 179.196 103.649 178.651ZM110.991 182.401C110.173 182.401 109.469 182.207 108.878 181.821C108.287 181.435 107.832 180.902 107.514 180.224C107.196 179.546 107.037 178.772 107.037 177.901C107.037 177.014 107.2 176.232 107.526 175.554C107.855 174.872 108.313 174.34 108.901 173.957C109.491 173.571 110.181 173.378 110.969 173.378C111.582 173.378 112.135 173.491 112.628 173.719C113.12 173.946 113.524 174.264 113.838 174.673C114.152 175.082 114.348 175.56 114.423 176.105H113.082C112.98 175.707 112.753 175.355 112.401 175.048C112.052 174.738 111.582 174.582 110.991 174.582C110.469 174.582 110.01 174.719 109.616 174.991C109.226 175.26 108.921 175.641 108.702 176.134C108.486 176.622 108.378 177.196 108.378 177.855C108.378 178.529 108.484 179.116 108.696 179.616C108.912 180.116 109.215 180.505 109.605 180.781C109.999 181.058 110.461 181.196 110.991 181.196C111.34 181.196 111.656 181.135 111.94 181.014C112.224 180.893 112.465 180.719 112.662 180.491C112.859 180.264 112.999 179.991 113.082 179.673H114.423C114.348 180.188 114.16 180.652 113.861 181.065C113.565 181.474 113.173 181.8 112.685 182.043C112.2 182.281 111.635 182.401 110.991 182.401ZM117.724 176.969V182.219H116.384V170.582H117.724V174.855H117.838C118.043 174.404 118.349 174.046 118.759 173.781C119.171 173.512 119.721 173.378 120.406 173.378C121.001 173.378 121.522 173.497 121.969 173.736C122.416 173.971 122.762 174.332 123.009 174.821C123.259 175.306 123.384 175.923 123.384 176.673V182.219H122.043V176.764C122.043 176.071 121.863 175.535 121.503 175.156C121.147 174.774 120.652 174.582 120.02 174.582C119.58 174.582 119.187 174.675 118.838 174.861C118.493 175.046 118.221 175.317 118.02 175.673C117.823 176.029 117.724 176.461 117.724 176.969ZM136.518 175.446L135.314 175.787C135.238 175.586 135.126 175.391 134.979 175.202C134.835 175.009 134.638 174.849 134.388 174.724C134.138 174.599 133.818 174.537 133.428 174.537C132.893 174.537 132.448 174.66 132.092 174.906C131.74 175.149 131.564 175.457 131.564 175.832C131.564 176.166 131.685 176.429 131.928 176.622C132.17 176.815 132.549 176.976 133.064 177.105L134.359 177.423C135.14 177.613 135.721 177.902 136.104 178.293C136.486 178.679 136.678 179.177 136.678 179.787C136.678 180.287 136.534 180.734 136.246 181.128C135.962 181.522 135.564 181.832 135.053 182.06C134.541 182.287 133.946 182.401 133.268 182.401C132.378 182.401 131.642 182.207 131.058 181.821C130.475 181.435 130.106 180.87 129.95 180.128L131.223 179.81C131.344 180.279 131.573 180.632 131.911 180.866C132.251 181.101 132.696 181.219 133.246 181.219C133.871 181.219 134.367 181.086 134.734 180.821C135.106 180.552 135.291 180.23 135.291 179.855C135.291 179.552 135.185 179.298 134.973 179.094C134.761 178.885 134.435 178.73 133.996 178.628L132.541 178.287C131.742 178.098 131.155 177.804 130.78 177.406C130.409 177.005 130.223 176.503 130.223 175.901C130.223 175.408 130.361 174.973 130.638 174.594C130.918 174.215 131.299 173.918 131.78 173.702C132.265 173.486 132.814 173.378 133.428 173.378C134.291 173.378 134.969 173.567 135.462 173.946C135.958 174.325 136.31 174.825 136.518 175.446ZM142.241 182.401C141.454 182.401 140.762 182.213 140.168 181.838C139.577 181.463 139.115 180.938 138.781 180.264C138.452 179.59 138.287 178.802 138.287 177.901C138.287 176.991 138.452 176.198 138.781 175.52C139.115 174.842 139.577 174.315 140.168 173.94C140.762 173.565 141.454 173.378 142.241 173.378C143.029 173.378 143.719 173.565 144.31 173.94C144.904 174.315 145.366 174.842 145.696 175.52C146.029 176.198 146.196 176.991 146.196 177.901C146.196 178.802 146.029 179.59 145.696 180.264C145.366 180.938 144.904 181.463 144.31 181.838C143.719 182.213 143.029 182.401 142.241 182.401ZM142.241 181.196C142.84 181.196 143.332 181.043 143.719 180.736C144.105 180.429 144.391 180.026 144.577 179.526C144.762 179.026 144.855 178.484 144.855 177.901C144.855 177.317 144.762 176.774 144.577 176.27C144.391 175.766 144.105 175.359 143.719 175.048C143.332 174.738 142.84 174.582 142.241 174.582C141.643 174.582 141.151 174.738 140.764 175.048C140.378 175.359 140.092 175.766 139.906 176.27C139.721 176.774 139.628 177.317 139.628 177.901C139.628 178.484 139.721 179.026 139.906 179.526C140.092 180.026 140.378 180.429 140.764 180.736C141.151 181.043 141.643 181.196 142.241 181.196ZM151.788 182.401C151 182.401 150.309 182.213 149.714 181.838C149.124 181.463 148.661 180.938 148.328 180.264C147.999 179.59 147.834 178.802 147.834 177.901C147.834 176.991 147.999 176.198 148.328 175.52C148.661 174.842 149.124 174.315 149.714 173.94C150.309 173.565 151 173.378 151.788 173.378C152.576 173.378 153.266 173.565 153.857 173.94C154.451 174.315 154.913 174.842 155.243 175.52C155.576 176.198 155.743 176.991 155.743 177.901C155.743 178.802 155.576 179.59 155.243 180.264C154.913 180.938 154.451 181.463 153.857 181.838C153.266 182.213 152.576 182.401 151.788 182.401ZM151.788 181.196C152.387 181.196 152.879 181.043 153.266 180.736C153.652 180.429 153.938 180.026 154.124 179.526C154.309 179.026 154.402 178.484 154.402 177.901C154.402 177.317 154.309 176.774 154.124 176.27C153.938 175.766 153.652 175.359 153.266 175.048C152.879 174.738 152.387 174.582 151.788 174.582C151.19 174.582 150.697 174.738 150.311 175.048C149.925 175.359 149.639 175.766 149.453 176.27C149.268 176.774 149.175 177.317 149.175 177.901C149.175 178.484 149.268 179.026 149.453 179.526C149.639 180.026 149.925 180.429 150.311 180.736C150.697 181.043 151.19 181.196 151.788 181.196ZM159.131 176.969V182.219H157.79V173.491H159.085V174.855H159.199C159.403 174.412 159.714 174.056 160.131 173.787C160.547 173.514 161.085 173.378 161.744 173.378C162.335 173.378 162.852 173.499 163.295 173.741C163.739 173.98 164.083 174.344 164.33 174.832C164.576 175.317 164.699 175.931 164.699 176.673V182.219H163.358V176.764C163.358 176.079 163.18 175.545 162.824 175.162C162.468 174.776 161.979 174.582 161.358 174.582C160.93 174.582 160.547 174.675 160.21 174.861C159.877 175.046 159.614 175.317 159.42 175.673C159.227 176.029 159.131 176.461 159.131 176.969ZM168.126 182.31C167.846 182.31 167.606 182.209 167.405 182.009C167.204 181.808 167.104 181.567 167.104 181.287C167.104 181.007 167.204 180.766 167.405 180.565C167.606 180.365 167.846 180.264 168.126 180.264C168.407 180.264 168.647 180.365 168.848 180.565C169.049 180.766 169.149 181.007 169.149 181.287C169.149 181.473 169.102 181.643 169.007 181.798C168.916 181.954 168.793 182.079 168.638 182.173C168.486 182.264 168.316 182.31 168.126 182.31Z" fill="white"/>
<rect width="222" height="52.3906" transform="translate(64 321.219)" fill="#055B89"/>
<path d="M148.767 342.2V353.109H146.775L142.029 346.243H141.949V353.109H139.642V342.2H141.667L146.375 349.061H146.471V342.2H148.767ZM152.593 353.109V342.2H159.943V344.102H154.899V346.701H159.565V348.603H154.899V351.208H159.965V353.109H152.593ZM165.86 342.2L168.06 345.918H168.145L170.356 342.2H172.96L169.631 347.655L173.035 353.109H170.382L168.145 349.386H168.06L165.823 353.109H163.181L166.595 347.655L163.244 342.2H165.86ZM175.924 344.102V342.2H184.884V344.102H181.544V353.109H179.264V344.102H175.924Z" fill="white"/>
<g clip-path="url(#clip0_389_983)">
<path d="M227.901 342.614C227.466 342.354 226.945 342.441 226.684 342.788C226.423 343.223 226.51 343.744 226.858 344.005L231.03 346.873H220.166C219.645 346.873 219.297 347.221 219.297 347.742C219.297 348.264 219.645 348.611 220.166 348.611H231.03L226.858 351.479C226.423 351.74 226.336 352.261 226.597 352.696C226.771 352.957 227.032 353.044 227.292 353.044C227.466 353.044 227.64 352.957 227.814 352.87L235.288 347.742L227.901 342.614Z" fill="white"/>
</g>
<rect x="64" y="263.219" width="222" height="42" rx="21" fill="white"/>
<path d="M94.0994 280.719H92.7784C92.7003 280.339 92.5636 280.005 92.3683 279.717C92.1765 279.43 91.9421 279.188 91.6651 278.993C91.3917 278.794 91.0881 278.645 90.7543 278.545C90.4205 278.446 90.0724 278.396 89.7102 278.396C89.0497 278.396 88.4513 278.563 87.9151 278.897C87.3825 279.231 86.9581 279.723 86.642 280.373C86.3295 281.022 86.1733 281.82 86.1733 282.764C86.1733 283.709 86.3295 284.506 86.642 285.156C86.9581 285.806 87.3825 286.298 87.9151 286.631C88.4513 286.965 89.0497 287.132 89.7102 287.132C90.0724 287.132 90.4205 287.082 90.7543 286.983C91.0881 286.884 91.3917 286.736 91.6651 286.541C91.9421 286.342 92.1765 286.099 92.3683 285.811C92.5636 285.52 92.7003 285.186 92.7784 284.81H94.0994C94 285.367 93.8189 285.866 93.5561 286.306C93.2933 286.747 92.9666 287.121 92.576 287.43C92.1854 287.736 91.7468 287.968 91.2603 288.128C90.7773 288.288 90.2607 288.368 89.7102 288.368C88.7798 288.368 87.9524 288.141 87.228 287.686C86.5036 287.232 85.9336 286.585 85.5181 285.747C85.1026 284.909 84.8949 283.915 84.8949 282.764C84.8949 281.614 85.1026 280.619 85.5181 279.781C85.9336 278.943 86.5036 278.297 87.228 277.842C87.9524 277.388 88.7798 277.161 89.7102 277.161C90.2607 277.161 90.7773 277.24 91.2603 277.4C91.7468 277.56 92.1854 277.794 92.576 278.103C92.9666 278.409 93.2933 278.782 93.5561 279.222C93.8189 279.659 94 280.158 94.0994 280.719ZM105.439 282.764C105.439 283.915 105.231 284.909 104.815 285.747C104.4 286.585 103.83 287.232 103.106 287.686C102.381 288.141 101.554 288.368 100.623 288.368C99.6929 288.368 98.8655 288.141 98.1411 287.686C97.4166 287.232 96.8467 286.585 96.4312 285.747C96.0157 284.909 95.808 283.915 95.808 282.764C95.808 281.614 96.0157 280.619 96.4312 279.781C96.8467 278.943 97.4166 278.297 98.1411 277.842C98.8655 277.388 99.6929 277.161 100.623 277.161C101.554 277.161 102.381 277.388 103.106 277.842C103.83 278.297 104.4 278.943 104.815 279.781C105.231 280.619 105.439 281.614 105.439 282.764ZM104.16 282.764C104.16 281.82 104.002 281.022 103.686 280.373C103.374 279.723 102.949 279.231 102.413 278.897C101.88 278.563 101.284 278.396 100.623 278.396C99.9628 278.396 99.3644 278.563 98.8282 278.897C98.2955 279.231 97.8712 279.723 97.5551 280.373C97.2426 281.022 97.0864 281.82 97.0864 282.764C97.0864 283.709 97.2426 284.506 97.5551 285.156C97.8712 285.806 98.2955 286.298 98.8282 286.631C99.3644 286.965 99.9628 287.132 100.623 287.132C101.284 287.132 101.88 286.965 102.413 286.631C102.949 286.298 103.374 285.806 103.686 285.156C104.002 284.506 104.16 283.709 104.16 282.764ZM107.66 277.31H109.237L112.944 286.365H113.072L116.779 277.31H118.356V288.219H117.12V279.93H117.014L113.604 288.219H112.411L109.002 279.93H108.896V288.219H107.66V277.31ZM121.005 288.219V277.31H124.691C125.547 277.31 126.246 277.464 126.789 277.773C127.336 278.078 127.741 278.492 128.004 279.014C128.267 279.536 128.398 280.119 128.398 280.761C128.398 281.404 128.267 281.988 128.004 282.514C127.745 283.039 127.343 283.458 126.8 283.771C126.257 284.08 125.561 284.234 124.712 284.234H122.07V283.062H124.669C125.255 283.062 125.726 282.961 126.081 282.759C126.436 282.556 126.694 282.283 126.853 281.939C127.017 281.591 127.098 281.198 127.098 280.761C127.098 280.325 127.017 279.934 126.853 279.589C126.694 279.245 126.434 278.975 126.076 278.78C125.717 278.581 125.241 278.482 124.648 278.482H122.326V288.219H121.005ZM129.86 288.219H128.475L132.481 277.31H133.845L137.85 288.219H136.465L133.205 279.036H133.12L129.86 288.219ZM130.372 283.957H135.954V285.129H130.372V283.957ZM148.2 277.31V288.219H146.922L140.977 279.653H140.871V288.219H139.55V277.31H140.828L146.794 285.896H146.9V277.31H148.2ZM149.906 277.31H151.419L154.444 282.402H154.572L157.598 277.31H159.111L155.169 283.723V288.219H153.848V283.723L149.906 277.31Z" fill="#5E6468"/>
<defs>
<clipPath id="clip0_389_983">
<rect width="16.0781" height="10.6029" fill="white" transform="translate(219.297 342.441)"/>
</clipPath>
</defs>
</svg>
