<svg width="350" height="702" viewBox="0 0 350 702" fill="none" xmlns="http://www.w3.org/2000/svg">
<g clip-path="url(#clip0_389_903)">
<path d="M348.343 162.438C348.56 162.437 348.776 162.48 348.977 162.563C349.179 162.646 349.361 162.768 349.515 162.922C349.669 163.076 349.791 163.259 349.875 163.46C349.958 163.661 350 163.877 350 164.095V241.058C350 241.275 349.957 241.491 349.873 241.692C349.79 241.892 349.668 242.075 349.514 242.229C349.36 242.382 349.177 242.504 348.976 242.587C348.775 242.67 348.56 242.712 348.343 242.712H335.577C335.36 242.712 335.144 242.67 334.943 242.587C334.742 242.504 334.559 242.382 334.406 242.229C334.252 242.075 334.129 241.892 334.046 241.692C333.963 241.491 333.92 241.275 333.92 241.058V164.095C333.92 163.176 334.655 162.441 335.573 162.441L348.343 162.438Z" fill="black"/>
<mask id="mask0_389_903" style="mask-type:luminance" maskUnits="userSpaceOnUse" x="333" y="162" width="17" height="81">
<path d="M348.343 162.437C348.56 162.437 348.776 162.479 348.977 162.562C349.178 162.645 349.36 162.767 349.514 162.92C349.668 163.074 349.79 163.256 349.874 163.457C349.957 163.658 350 163.873 350 164.091V241.054C350 241.973 349.261 242.711 348.343 242.711H335.577C335.36 242.712 335.145 242.669 334.944 242.586C334.742 242.504 334.56 242.382 334.406 242.228C334.252 242.075 334.13 241.892 334.046 241.691C333.963 241.491 333.92 241.275 333.92 241.058V164.091C333.92 163.873 333.962 163.658 334.045 163.457C334.128 163.256 334.25 163.073 334.403 162.919C334.557 162.765 334.739 162.643 334.94 162.56C335.141 162.476 335.356 162.434 335.574 162.434L348.343 162.437Z" fill="white"/>
</mask>
<g mask="url(#mask0_389_903)">
<path d="M347.99 163.914C348.184 163.914 348.376 163.951 348.555 164.026C348.735 164.1 348.898 164.208 349.035 164.346C349.172 164.483 349.281 164.646 349.355 164.825C349.429 165.005 349.467 165.197 349.467 165.391V239.757C349.467 240.576 348.805 241.234 347.99 241.234H347.53V163.914H347.99Z" fill="url(#paint0_linear_389_903)"/>
</g>
<path d="M14.4262 95.0137H1.65722C0.741962 95.0137 0 95.7556 0 96.6709V120.611C0 121.526 0.741962 122.268 1.65722 122.268H14.4262C15.3415 122.268 16.0835 121.526 16.0835 120.611V96.6709C16.0835 95.7556 15.3415 95.0137 14.4262 95.0137Z" fill="black"/>
<mask id="mask1_389_903" style="mask-type:luminance" maskUnits="userSpaceOnUse" x="0" y="95" width="17" height="28">
<path d="M14.4262 95.0137H1.65722C0.741962 95.0137 0 95.7556 0 96.6709V120.611C0 121.526 0.741962 122.268 1.65722 122.268H14.4262C15.3415 122.268 16.0835 121.526 16.0835 120.611V96.6709C16.0835 95.7556 15.3415 95.0137 14.4262 95.0137Z" fill="white"/>
</mask>
<g mask="url(#mask1_389_903)">
<path d="M2.01405 96.4922C1.81962 96.4912 1.62692 96.5288 1.44706 96.6026C1.2672 96.6764 1.10373 96.7852 0.966071 96.9225C0.828417 97.0598 0.719301 97.223 0.645009 97.4027C0.570717 97.5823 0.53272 97.7749 0.533208 97.9694V119.311C0.533208 120.131 1.19462 120.788 2.01037 120.788H2.46969V96.4922H2.01405Z" fill="url(#paint1_linear_389_903)"/>
</g>
<path d="M1.65722 145.836C1.43976 145.835 1.22435 145.878 1.02331 145.961C0.822264 146.043 0.639545 146.165 0.48561 146.319C0.331675 146.472 0.209547 146.655 0.126219 146.856C0.0428911 147.056 -5.36924e-07 147.272 0 147.489L0 194.939C0 195.857 0.738583 196.596 1.65722 196.596H14.4226C14.64 196.596 14.8554 196.554 15.0565 196.471C15.2575 196.388 15.4402 196.266 15.5942 196.113C15.7481 195.959 15.8702 195.777 15.9536 195.576C16.0369 195.375 16.0798 195.16 16.0798 194.942V147.489C16.0803 147.272 16.0379 147.056 15.955 146.855C15.8721 146.654 15.7504 146.472 15.5968 146.318C15.4432 146.164 15.2607 146.042 15.0599 145.958C14.859 145.875 14.6437 145.832 14.4262 145.832L1.65722 145.836Z" fill="black"/>
<mask id="mask2_389_903" style="mask-type:luminance" maskUnits="userSpaceOnUse" x="-1" y="-1" width="18" height="52">
<path d="M1.65526 0.0017194C1.43781 0.00123616 1.22239 0.0436471 1.02135 0.126529C0.820311 0.209411 0.637592 0.331132 0.483657 0.484726C0.329722 0.63832 0.207594 0.820772 0.124266 1.02163C0.040938 1.22249 -0.00195366 1.43781 -0.00195312 1.65527L-0.00195312 49.1046C-0.00195312 50.0232 0.73663 50.7618 1.65526 50.7618H14.4206C14.6381 50.7623 14.8535 50.7199 15.0545 50.637C15.2556 50.5541 15.4383 50.4324 15.5922 50.2788C15.7462 50.1252 15.8683 49.9428 15.9516 49.7419C16.0349 49.5411 16.0778 49.3257 16.0778 49.1083V1.65527C16.0783 1.43781 16.0359 1.22239 15.953 1.02135C15.8701 0.820307 15.7484 0.637596 15.5948 0.483661C15.4412 0.329726 15.2588 0.207586 15.0579 0.124258C14.8571 0.0409303 14.6418 -0.00195366 14.4243 -0.00195312L1.65526 0.0017194Z" fill="white"/>
</mask>
<g mask="url(#mask2_389_903)">
<path d="M2.00842 1.47852C1.8143 1.47804 1.622 1.51591 1.44256 1.58997C1.26312 1.66403 1.10009 1.77282 0.962826 1.91008C0.825561 2.04735 0.716773 2.21039 0.64271 2.38982C0.568647 2.56926 0.53077 2.76157 0.531255 2.95569V47.8071C0.531255 48.6266 1.19267 49.2843 2.00842 49.2843H2.46774V1.47852H2.00842Z" fill="url(#paint2_linear_389_903)"/>
</g>
<path d="M1.65722 209.67C1.43946 209.669 1.22374 209.712 1.02246 209.795C0.821178 209.878 0.638295 210 0.484312 210.154C0.330328 210.308 0.208277 210.491 0.125166 210.692C0.0420542 210.894 -0.00048037 211.109 4.0923e-06 211.327V258.776C4.0923e-06 259.695 0.738587 260.43 1.65722 260.43H14.4226C14.64 260.431 14.8554 260.388 15.0565 260.305C15.2575 260.222 15.4402 260.101 15.5942 259.947C15.7481 259.793 15.8702 259.611 15.9536 259.41C16.0369 259.209 16.0798 258.994 16.0798 258.776V211.323C16.0798 210.885 15.9056 210.464 15.5955 210.154C15.2854 209.844 14.8648 209.67 14.4263 209.67H1.65722Z" fill="black"/>
<mask id="mask3_389_903" style="mask-type:luminance" maskUnits="userSpaceOnUse" x="0" y="209" width="17" height="52">
<path d="M1.65722 209.674C1.43976 209.673 1.22435 209.716 1.02331 209.798C0.822264 209.881 0.639545 210.003 0.48561 210.157C0.331675 210.31 0.209547 210.493 0.126219 210.694C0.0428911 210.894 -5.36924e-07 211.11 0 211.327L0 258.776C0 259.695 0.738583 260.434 1.65722 260.434H14.4226C14.64 260.434 14.8554 260.392 15.0565 260.309C15.2575 260.226 15.4402 260.104 15.5942 259.951C15.7481 259.797 15.8702 259.615 15.9536 259.414C16.0369 259.213 16.0798 258.998 16.0798 258.78V211.327C16.0803 211.11 16.0379 210.894 15.955 210.693C15.8721 210.492 15.7504 210.309 15.5968 210.156C15.4432 210.002 15.2607 209.879 15.0599 209.796C14.859 209.713 14.6437 209.67 14.4262 209.67L1.65722 209.674Z" fill="white"/>
</mask>
<g mask="url(#mask3_389_903)">
<path d="M2.01037 211.15C1.81625 211.15 1.62395 211.188 1.44451 211.262C1.26508 211.336 1.10204 211.445 0.964779 211.582C0.827515 211.719 0.718726 211.882 0.644663 212.062C0.5706 212.241 0.532723 212.433 0.533208 212.628V257.479C0.533208 258.298 1.19462 258.956 2.01037 258.956H2.46969V211.15H2.01037Z" fill="url(#paint3_linear_389_903)"/>
</g>
<path d="M51.1212 -0.079967C44.3792 -0.0940145 37.7007 1.22363 31.4692 3.79733C25.2377 6.37104 19.5758 10.1501 14.8086 14.9177C10.0414 19.6852 6.26275 25.3473 3.6895 31.579C1.11624 37.8107 -0.200927 44.4893 -0.186396 51.2313V648.837C-0.201413 655.579 1.11552 662.258 3.68879 668.491C6.26206 674.723 10.041 680.386 14.8086 685.154C19.5763 689.922 25.2387 693.701 31.4709 696.275C37.7031 698.849 44.3822 700.166 51.1249 700.152H155.118L157.242 697.138H188.567L190.699 700.152H294.688C301.431 700.166 308.11 698.849 314.342 696.275C320.574 693.701 326.237 689.922 331.004 685.154C335.772 680.386 339.551 674.723 342.124 668.491C344.698 662.258 346.014 655.579 345.999 648.837V51.2313C346.014 44.4889 344.696 37.8102 342.122 31.5784C339.548 25.3467 335.768 19.6847 331.001 14.9174C326.233 10.1502 320.57 6.37158 314.338 3.79854C308.106 1.2255 301.427 -0.0913074 294.684 -0.0762924L51.1212 -0.079967Z" fill="black"/>
<path d="M-0.105469 4.70785H3.94388V-0.0800781H-0.105469V4.70785Z" fill="#7D7E7F"/>
<path d="M3.0752 629.082H7.12454V72.8555H3.0752V629.082Z" fill="#EBEBEB"/>
<path d="M-0.316406 4.76251H3.73294V-0.0253906H-0.316406V4.76251Z" fill="#7D7E7F"/>
<path d="M346.924 633.873H342.875V649.894C342.888 656.024 341.69 662.096 339.351 667.761C337.011 673.427 333.575 678.574 329.241 682.909C324.907 687.243 319.759 690.678 314.094 693.018C308.428 695.358 302.356 696.555 296.227 696.542H53.773C47.6437 696.555 41.5722 695.357 35.9071 693.017C30.242 690.677 25.0948 687.241 20.7608 682.907C16.4269 678.573 12.9917 673.425 10.6522 667.76C8.3128 662.095 7.11525 656.023 7.12833 649.894V633.873H3.07531V647.774C3.06078 654.617 4.39793 661.396 7.01001 667.721C9.6221 674.046 13.4577 679.793 18.2966 684.632C23.1355 689.471 28.8824 693.306 35.2075 695.918C41.5326 698.531 48.3114 699.868 55.1546 699.853H294.838C301.681 699.868 308.461 698.531 314.787 695.919C321.112 693.307 326.86 689.471 331.699 684.632C336.539 679.793 340.374 674.045 342.987 667.719C345.599 661.393 346.936 654.614 346.921 647.77L346.924 633.873Z" fill="#EBEBEB"/>
<path d="M346.924 629.082H342.875V633.874H346.924V629.082Z" fill="#7D7E7F"/>
<path d="M346.924 72.8516H342.875V629.085H346.924V72.8516Z" fill="#EBEBEB"/>
<path d="M346.924 68.0625H342.875V72.8504H346.924V68.0625Z" fill="#7D7E7F"/>
<path d="M55.1583 2.2052C48.3147 2.19019 41.5356 3.52698 35.2101 6.13885C28.8845 8.75071 23.1372 12.5862 18.2979 17.4252C13.4586 22.2641 9.62267 28.0112 7.01036 34.3366C4.39805 40.6619 3.06078 47.4409 3.07531 54.2845V68.064H7.12466V52.7154C7.11158 46.586 8.30927 40.5143 10.649 34.849C12.9887 29.1837 16.4243 24.0363 20.7587 19.7022C25.093 15.3682 30.2407 11.933 35.9062 9.59373C41.5717 7.25447 47.6435 6.05726 53.7729 6.07082H296.227C302.356 6.05774 308.428 7.25543 314.093 9.59514C319.758 11.9348 324.906 15.3705 329.24 19.7048C333.574 24.0392 337.009 29.1869 339.348 34.8524C341.687 40.5179 342.885 46.5897 342.871 52.7191V68.064H346.92V54.2845C346.935 47.4416 345.598 40.6631 342.986 34.3383C340.374 28.0134 336.539 22.2666 331.701 17.4278C326.862 12.5889 321.116 8.75326 314.791 6.14096C308.466 3.52867 301.688 2.19116 294.845 2.2052H55.1583Z" fill="#EBEBEB"/>
<mask id="mask4_389_903" style="mask-type:luminance" maskUnits="userSpaceOnUse" x="3" y="1" width="344" height="699">
<path d="M55.1575 1.95703C26.3042 1.95703 3.07422 25.186 3.07422 54.0403V647.519C3.07422 676.373 26.3042 699.603 55.1575 699.603H294.838C323.692 699.603 346.922 676.373 346.922 647.519V54.0403C346.922 25.186 323.692 1.95703 294.838 1.95703H55.1575ZM53.774 5.82448H296.222C322.066 5.82448 342.871 26.6278 342.871 52.4711V649.639C342.871 675.483 322.066 696.288 296.222 696.288H53.774C27.9297 696.288 7.12445 675.483 7.12445 649.639V52.4721C7.12445 26.6278 27.9297 5.82448 53.774 5.82448Z" fill="white"/>
</mask>
<g mask="url(#mask4_389_903)">
<path fill-rule="evenodd" clip-rule="evenodd" d="M36.8703 11.257C30.4663 11.0937 18.2622 13.0323 5.72943 27.1167C-12.4995 47.6021 3.81904 35.2755 3.81904 35.2755C3.81904 35.2755 15.017 17.9157 30.6423 15.6582C46.2667 13.4017 41.4922 11.8375 41.4922 11.8375C41.4922 11.8375 39.7811 11.3319 36.8703 11.257ZM313.126 11.257C310.215 11.3309 308.504 11.8384 308.504 11.8384C308.504 11.8384 303.729 13.4017 319.354 15.6592C334.978 17.9167 346.177 35.2755 346.177 35.2755C346.177 35.2755 362.496 47.6021 344.267 27.1167C331.735 13.0323 319.53 11.0947 313.127 11.257H313.126ZM-2.37102 662.989C-3.77003 662.821 -2.81532 665.215 5.72943 674.817C23.9584 695.303 41.4922 690.095 41.4922 690.095C41.4922 690.095 46.2667 688.532 30.6423 686.274C15.017 684.019 3.81904 666.658 3.81904 666.658C3.81904 666.658 -0.786316 663.179 -2.37102 662.989ZM352.367 662.989C350.782 663.179 346.177 666.658 346.177 666.658C346.177 666.658 334.979 684.018 319.354 686.275C303.729 688.532 308.504 690.096 308.504 690.096C308.504 690.096 326.038 695.303 344.267 674.817C352.812 665.214 353.765 662.821 352.367 662.989Z" fill="#434343"/>
</g>
<path d="M316.117 14.9373C314.975 14.8245 315.514 15.963 318.077 18.3362C326.531 26.1673 331.78 37.5023 331.78 50.1196V652.058C331.78 664.675 326.53 676.01 318.077 683.841C315.514 686.214 314.975 687.353 316.117 687.24C316.802 687.172 318.092 686.654 319.912 685.682C332.269 679.091 339.444 664.869 339.444 649.764V52.4131C339.444 37.3079 332.269 23.0864 319.912 16.4948C318.092 15.5236 316.801 15.0054 316.117 14.9373Z" fill="url(#paint4_linear_389_903)"/>
<path d="M33.8787 14.937C35.0215 14.8268 34.4813 15.9622 31.9202 18.336C23.4687 26.1664 18.2142 37.5024 18.2142 50.1207V652.066C18.2142 664.68 23.4687 676.016 31.9202 683.85C34.4813 686.22 35.0215 687.36 33.8787 687.246C33.1953 687.18 31.9055 686.658 30.0829 685.691C17.7291 679.099 10.5527 664.875 10.5527 649.773V52.4136C10.5527 37.3076 17.7291 23.0871 30.0829 16.495C31.9055 15.5213 33.1953 15.0031 33.8787 14.937Z" fill="url(#paint5_linear_389_903)"/>
<path d="M193.53 26.6855H157.075C155.612 26.6855 154.426 27.8709 154.426 29.3331C154.426 30.7952 155.612 31.9806 157.075 31.9806H193.53C194.993 31.9806 196.18 30.7952 196.18 29.3331C196.18 27.8709 194.993 26.6855 193.53 26.6855Z" fill="#1E1E1E"/>
<path d="M212.811 33.9353C215.541 33.9353 217.754 31.7226 217.754 28.993C217.754 26.2635 215.541 24.0508 212.811 24.0508C210.082 24.0508 207.869 26.2635 207.869 28.993C207.869 31.7226 210.082 33.9353 212.811 33.9353Z" fill="#2B2B2B"/>
<path d="M212.811 32.9501C214.997 32.9501 216.768 31.1783 216.768 28.9926C216.768 26.807 214.997 25.0352 212.811 25.0352C210.625 25.0352 208.854 26.807 208.854 28.9926C208.854 31.1783 210.625 32.9501 212.811 32.9501Z" fill="#0A0D13"/>
<path d="M212.811 32.0102C214.477 32.0102 215.828 30.6595 215.828 28.9934C215.828 27.3272 214.477 25.9766 212.811 25.9766C211.145 25.9766 209.794 27.3272 209.794 28.9934C209.794 30.6595 211.145 32.0102 212.811 32.0102Z" fill="#091427"/>
<path fill-rule="evenodd" clip-rule="evenodd" d="M210.735 26.9727C210.375 27.0094 209.868 27.5606 209.831 28.6299C209.794 29.7028 210.265 30.2871 210.529 30.2871C210.79 30.2871 211.882 28.7217 210.735 26.9727Z" fill="#235A91" fill-opacity="0.556"/>
<path fill-rule="evenodd" clip-rule="evenodd" d="M213.303 26.5966C212.738 26.7693 212.631 27.6843 212.653 28.2024C212.675 28.7242 213.41 30.0911 214.303 29.7861C215.192 29.4848 215.343 28.353 214.975 27.5961C214.608 26.8355 213.932 26.2953 213.303 26.5966Z" fill="#235A91" fill-opacity="0.556"/>
<path d="M147.864 29.4467C147.864 30.4737 147.457 31.4588 146.733 32.1867C146.008 32.9145 145.025 33.3259 143.998 33.3307C142.97 33.3346 141.982 32.9307 141.252 32.2074C140.521 31.4842 140.106 30.5007 140.1 29.4725C140.093 28.4455 140.493 27.4576 141.213 26.725C141.932 25.9923 142.913 25.5744 143.94 25.5628C144.967 25.551 145.958 25.9469 146.694 26.6639C147.43 27.3809 147.852 28.3604 147.868 29.388L143.984 29.4467H147.864Z" fill="#0F0F0F"/>
<path d="M125.838 29.5355C125.838 31.0617 125.224 32.5258 124.13 33.6071C123.035 34.6884 121.55 35.2987 120 35.3045C118.45 35.3093 116.961 34.7097 115.859 33.6368C114.757 32.5639 114.132 31.1051 114.12 29.5795C114.11 28.0544 114.714 26.5874 115.8 25.4994C116.886 24.4114 118.366 23.791 119.915 23.7738C121.464 23.7573 122.957 24.3453 124.067 25.4092C125.177 26.473 125.814 27.9262 125.838 29.4509L119.977 29.5355H125.838Z" fill="#101010"/>
<path d="M53.7363 9.46883C45.6223 9.45343 37.6699 11.7365 30.7998 16.0536V21.5838C37.3492 17.2882 45.0146 15.0077 52.847 15.0247H297.641C305.799 15.0247 313.368 17.4389 319.689 21.5838V16.0573C312.82 11.7399 304.869 9.4568 296.756 9.4725H149.899L53.7363 9.46883Z" fill="url(#paint6_linear_389_903)"/>
<path d="M53.7363 692.224C45.6223 692.24 37.6699 689.957 30.7998 685.64V680.109C37.3492 684.405 45.0146 686.685 52.847 686.668H297.641C305.474 686.685 313.139 684.404 319.689 680.109V685.64C312.82 689.957 304.869 692.24 296.756 692.224H149.899H53.7363Z" fill="url(#paint7_linear_389_903)"/>
<path d="M54.2295 21.584C36.9543 21.584 23.0479 35.4905 23.0479 52.7647V648.921C23.0479 666.195 36.9543 680.102 54.2286 680.102H295.766C313.041 680.102 326.947 666.195 326.947 648.921V52.7647C326.947 35.4905 313.041 21.584 295.766 21.584H265.265C263.884 21.584 262.559 22.1328 261.582 23.1097C260.605 24.0866 260.056 25.4115 260.056 26.7931V29.1906C260.056 38.5763 252.502 46.1323 243.116 46.1323H106.879C104.653 46.1372 102.447 45.7023 100.39 44.8526C98.3323 44.0029 96.4628 42.7551 94.8888 41.1809C93.3148 39.6067 92.0673 37.7371 91.2178 35.6795C90.3683 33.6218 89.9337 31.4166 89.9388 29.1906V26.7941C89.9388 26.11 89.8041 25.4326 89.5423 24.8006C89.2805 24.1686 88.8968 23.5944 88.4131 23.1107C87.9294 22.627 87.3551 22.2433 86.7231 21.9815C86.0912 21.7197 85.4138 21.585 84.7297 21.585L54.2295 21.584Z" fill="url(#paint8_linear_389_903)"/>
<path d="M243.982 28.9198C243.981 30.9704 243.159 32.9372 241.695 34.3896C240.232 35.842 238.246 36.6617 236.173 36.6694C234.1 36.6762 232.109 35.8704 230.635 34.4283C229.162 32.9863 228.325 31.0254 228.31 28.9749C228.295 26.9254 229.101 24.9534 230.552 23.4901C232.003 22.0269 233.98 21.1914 236.052 21.1665C238.126 21.1432 240.124 21.9337 241.609 23.3648C243.095 24.796 243.947 26.7512 243.978 28.8022L236.14 28.9161L243.982 28.9198Z" fill="#0F0F0F"/>
<path d="M76.8336 141V119.903H81.294V137.322H90.3384V141H76.8336ZM100.421 141.309C98.7931 141.309 97.3921 140.979 96.2178 140.32C95.0503 139.654 94.1507 138.713 93.5189 137.498C92.8871 136.275 92.5712 134.83 92.5712 133.161C92.5712 131.533 92.8871 130.105 93.5189 128.876C94.1507 127.646 95.04 126.688 96.1869 126.002C97.3406 125.315 98.6935 124.971 100.246 124.971C101.289 124.971 102.261 125.14 103.161 125.476C104.067 125.806 104.857 126.304 105.53 126.97C106.21 127.636 106.739 128.474 107.116 129.483C107.494 130.486 107.683 131.66 107.683 133.006V134.212H94.3224V131.492H103.552C103.552 130.86 103.415 130.301 103.14 129.813C102.865 129.325 102.484 128.944 101.997 128.67C101.516 128.388 100.956 128.247 100.318 128.247C99.6515 128.247 99.0609 128.402 98.5458 128.711C98.0376 129.013 97.6393 129.422 97.3509 129.937C97.0625 130.445 96.9148 131.011 96.9079 131.636V134.222C96.9079 135.005 97.0522 135.681 97.3406 136.251C97.6359 136.821 98.0514 137.261 98.587 137.57C99.1227 137.879 99.7579 138.033 100.493 138.033C100.98 138.033 101.427 137.965 101.832 137.827C102.237 137.69 102.584 137.484 102.872 137.209C103.161 136.934 103.38 136.598 103.532 136.2L107.59 136.468C107.384 137.443 106.962 138.294 106.323 139.022C105.691 139.743 104.874 140.306 103.872 140.712C102.876 141.11 101.725 141.309 100.421 141.309ZM118.963 125.177V128.474H109.434V125.177H118.963ZM111.597 121.387H115.986V136.138C115.986 136.543 116.047 136.859 116.171 137.086C116.295 137.305 116.466 137.46 116.686 137.549C116.913 137.638 117.174 137.683 117.469 137.683C117.675 137.683 117.881 137.666 118.087 137.632C118.293 137.59 118.451 137.559 118.561 137.539L119.251 140.804C119.031 140.873 118.722 140.952 118.324 141.041C117.926 141.137 117.442 141.196 116.872 141.216C115.814 141.258 114.887 141.117 114.09 140.794C113.3 140.471 112.686 139.97 112.246 139.29C111.807 138.61 111.59 137.752 111.597 136.715V121.387ZM124.644 119.903V127.918H121.512V119.903H124.644ZM141.048 129.689L137.031 129.937C136.962 129.593 136.815 129.284 136.588 129.009C136.361 128.728 136.063 128.505 135.692 128.34C135.328 128.168 134.892 128.082 134.383 128.082C133.704 128.082 133.13 128.227 132.663 128.515C132.196 128.797 131.963 129.174 131.963 129.648C131.963 130.026 132.114 130.345 132.416 130.606C132.718 130.867 133.237 131.077 133.971 131.235L136.835 131.811C138.373 132.127 139.52 132.635 140.276 133.336C141.031 134.036 141.409 134.957 141.409 136.097C141.409 137.134 141.103 138.044 140.492 138.826C139.888 139.609 139.057 140.221 137.999 140.66C136.948 141.093 135.736 141.309 134.363 141.309C132.268 141.309 130.6 140.873 129.357 140.001C128.12 139.122 127.396 137.927 127.183 136.416L131.499 136.189C131.63 136.828 131.946 137.316 132.447 137.652C132.948 137.982 133.59 138.147 134.373 138.147C135.142 138.147 135.76 137.999 136.227 137.704C136.701 137.401 136.942 137.013 136.948 136.54C136.942 136.141 136.773 135.815 136.444 135.561C136.114 135.3 135.606 135.101 134.919 134.964L132.179 134.418C130.634 134.109 129.484 133.573 128.728 132.811C127.98 132.048 127.605 131.077 127.605 129.895C127.605 128.879 127.88 128.003 128.429 127.269C128.986 126.534 129.765 125.967 130.768 125.569C131.777 125.171 132.958 124.971 134.311 124.971C136.31 124.971 137.882 125.394 139.029 126.238C140.183 127.083 140.856 128.233 141.048 129.689ZM158.035 141.309C156.414 141.309 155.02 140.966 153.853 140.279C152.692 139.585 151.799 138.624 151.174 137.395C150.556 136.165 150.247 134.751 150.247 133.151C150.247 131.53 150.56 130.108 151.185 128.886C151.816 127.657 152.713 126.699 153.873 126.012C155.034 125.318 156.414 124.971 158.014 124.971C159.395 124.971 160.603 125.222 161.64 125.723C162.677 126.225 163.498 126.929 164.102 127.835C164.707 128.742 165.04 129.806 165.101 131.029H160.96C160.844 130.239 160.535 129.604 160.033 129.123C159.539 128.635 158.89 128.391 158.086 128.391C157.407 128.391 156.812 128.577 156.304 128.948C155.803 129.312 155.412 129.844 155.13 130.544C154.848 131.245 154.708 132.093 154.708 133.089C154.708 134.098 154.845 134.957 155.12 135.664C155.401 136.371 155.796 136.91 156.304 137.281C156.812 137.652 157.407 137.838 158.086 137.838C158.588 137.838 159.038 137.735 159.436 137.529C159.841 137.322 160.174 137.024 160.435 136.632C160.703 136.234 160.878 135.757 160.96 135.2H165.101C165.033 136.409 164.703 137.474 164.113 138.394C163.529 139.307 162.722 140.021 161.692 140.536C160.662 141.052 159.443 141.309 158.035 141.309ZM172.299 131.853V141H167.911V119.903H172.176V127.969H172.361C172.718 127.035 173.295 126.304 174.092 125.775C174.888 125.239 175.888 124.971 177.089 124.971C178.188 124.971 179.146 125.212 179.963 125.693C180.788 126.166 181.426 126.85 181.879 127.742C182.34 128.628 182.566 129.689 182.559 130.925V141H178.171V131.708C178.178 130.733 177.931 129.974 177.429 129.432C176.935 128.889 176.241 128.618 175.349 128.618C174.751 128.618 174.222 128.745 173.762 128.999C173.309 129.253 172.952 129.624 172.691 130.112C172.437 130.592 172.306 131.173 172.299 131.853ZM190.525 141.299C189.515 141.299 188.616 141.124 187.826 140.773C187.036 140.416 186.411 139.891 185.951 139.197C185.498 138.497 185.271 137.625 185.271 136.581C185.271 135.702 185.432 134.964 185.755 134.366C186.078 133.769 186.518 133.288 187.074 132.924C187.63 132.56 188.262 132.285 188.969 132.1C189.683 131.914 190.432 131.784 191.215 131.708C192.135 131.612 192.877 131.523 193.44 131.441C194.003 131.351 194.412 131.221 194.666 131.049C194.92 130.877 195.047 130.623 195.047 130.287V130.225C195.047 129.573 194.841 129.068 194.429 128.711C194.024 128.354 193.447 128.175 192.698 128.175C191.908 128.175 191.28 128.35 190.813 128.7C190.346 129.044 190.037 129.476 189.886 129.998L185.827 129.669C186.033 128.707 186.439 127.876 187.043 127.176C187.647 126.469 188.427 125.926 189.381 125.548C190.343 125.164 191.455 124.971 192.719 124.971C193.598 124.971 194.439 125.074 195.243 125.28C196.053 125.486 196.771 125.806 197.396 126.238C198.027 126.671 198.525 127.227 198.889 127.907C199.253 128.58 199.435 129.387 199.435 130.328V141H195.273V138.806H195.15C194.896 139.3 194.556 139.736 194.13 140.114C193.704 140.485 193.193 140.777 192.595 140.99C191.998 141.196 191.308 141.299 190.525 141.299ZM191.781 138.27C192.427 138.27 192.997 138.143 193.491 137.889C193.986 137.628 194.374 137.278 194.655 136.838C194.937 136.399 195.078 135.901 195.078 135.345V133.666C194.94 133.755 194.752 133.837 194.511 133.913C194.278 133.981 194.013 134.047 193.718 134.109C193.423 134.163 193.127 134.215 192.832 134.263C192.537 134.304 192.269 134.342 192.029 134.376C191.514 134.452 191.064 134.572 190.679 134.737C190.295 134.902 189.996 135.125 189.783 135.406C189.57 135.681 189.464 136.025 189.464 136.437C189.464 137.034 189.68 137.491 190.113 137.807C190.552 138.116 191.108 138.27 191.781 138.27ZM211.256 125.177V128.474H201.727V125.177H211.256ZM203.89 121.387H208.279V136.138C208.279 136.543 208.34 136.859 208.464 137.086C208.588 137.305 208.759 137.46 208.979 137.549C209.206 137.638 209.467 137.683 209.762 137.683C209.968 137.683 210.174 137.666 210.38 137.632C210.586 137.59 210.744 137.559 210.854 137.539L211.544 140.804C211.324 140.873 211.015 140.952 210.617 141.041C210.219 141.137 209.735 141.196 209.165 141.216C208.107 141.258 207.18 141.117 206.383 140.794C205.594 140.471 204.979 139.97 204.539 139.29C204.1 138.61 203.884 137.752 203.89 136.715V121.387Z" fill="white"/>
<path d="M76.4091 174.219V162.582H83.3864V163.832H77.8182V167.764H82.8636V169.014H77.8182V174.219H76.4091ZM85.6179 174.219V165.491H86.9588V174.219H85.6179ZM86.2997 164.037C86.0384 164.037 85.813 163.948 85.6236 163.77C85.438 163.592 85.3452 163.378 85.3452 163.128C85.3452 162.878 85.438 162.664 85.6236 162.486C85.813 162.308 86.0384 162.219 86.2997 162.219C86.5611 162.219 86.7846 162.308 86.9702 162.486C87.1596 162.664 87.2543 162.878 87.2543 163.128C87.2543 163.378 87.1596 163.592 86.9702 163.77C86.7846 163.948 86.5611 164.037 86.2997 164.037ZM90.7557 162.582V174.219H89.4148V162.582H90.7557ZM94.5526 162.582V174.219H93.2116V162.582H94.5526ZM105.054 174.401C104.266 174.401 103.575 174.213 102.98 173.838C102.389 173.463 101.927 172.938 101.594 172.264C101.264 171.59 101.099 170.802 101.099 169.901C101.099 168.991 101.264 168.198 101.594 167.52C101.927 166.842 102.389 166.315 102.98 165.94C103.575 165.565 104.266 165.378 105.054 165.378C105.842 165.378 106.531 165.565 107.122 165.94C107.717 166.315 108.179 166.842 108.509 167.52C108.842 168.198 109.009 168.991 109.009 169.901C109.009 170.802 108.842 171.59 108.509 172.264C108.179 172.938 107.717 173.463 107.122 173.838C106.531 174.213 105.842 174.401 105.054 174.401ZM105.054 173.196C105.652 173.196 106.145 173.043 106.531 172.736C106.918 172.429 107.204 172.026 107.389 171.526C107.575 171.026 107.668 170.484 107.668 169.901C107.668 169.317 107.575 168.774 107.389 168.27C107.204 167.766 106.918 167.359 106.531 167.048C106.145 166.738 105.652 166.582 105.054 166.582C104.455 166.582 103.963 166.738 103.577 167.048C103.19 167.359 102.904 167.766 102.719 168.27C102.533 168.774 102.44 169.317 102.44 169.901C102.44 170.484 102.533 171.026 102.719 171.526C102.904 172.026 103.19 172.429 103.577 172.736C103.963 173.043 104.455 173.196 105.054 173.196ZM116.555 170.651V165.491H117.896V174.219H116.555V172.741H116.464C116.26 173.185 115.942 173.562 115.51 173.872C115.078 174.179 114.533 174.332 113.874 174.332C113.328 174.332 112.843 174.213 112.419 173.974C111.995 173.732 111.661 173.368 111.419 172.884C111.177 172.395 111.055 171.779 111.055 171.037V165.491H112.396V170.946C112.396 171.582 112.574 172.09 112.93 172.469C113.29 172.848 113.749 173.037 114.305 173.037C114.639 173.037 114.978 172.952 115.322 172.781C115.671 172.611 115.963 172.349 116.197 171.997C116.436 171.645 116.555 171.196 116.555 170.651ZM124.148 165.491V166.628H119.625V165.491H124.148ZM120.943 163.401H122.284V171.719C122.284 172.098 122.339 172.382 122.449 172.571C122.563 172.757 122.706 172.882 122.881 172.946C123.059 173.007 123.246 173.037 123.443 173.037C123.591 173.037 123.712 173.029 123.807 173.014C123.902 172.995 123.977 172.98 124.034 172.969L124.307 174.173C124.216 174.207 124.089 174.241 123.926 174.276C123.763 174.313 123.557 174.332 123.307 174.332C122.928 174.332 122.557 174.251 122.193 174.088C121.833 173.925 121.534 173.677 121.295 173.344C121.061 173.01 120.943 172.59 120.943 172.082V163.401ZM134.46 165.491V166.628H129.938V165.491H134.46ZM131.256 163.401H132.597V171.719C132.597 172.098 132.652 172.382 132.761 172.571C132.875 172.757 133.019 172.882 133.193 172.946C133.371 173.007 133.559 173.037 133.756 173.037C133.903 173.037 134.025 173.029 134.119 173.014C134.214 172.995 134.29 172.98 134.347 172.969L134.619 174.173C134.528 174.207 134.402 174.241 134.239 174.276C134.076 174.313 133.869 174.332 133.619 174.332C133.241 174.332 132.869 174.251 132.506 174.088C132.146 173.925 131.847 173.677 131.608 173.344C131.373 173.01 131.256 172.59 131.256 172.082V163.401ZM138.006 168.969V174.219H136.665V162.582H138.006V166.855H138.119C138.324 166.404 138.631 166.046 139.04 165.781C139.453 165.512 140.002 165.378 140.688 165.378C141.282 165.378 141.803 165.497 142.25 165.736C142.697 165.971 143.044 166.332 143.29 166.821C143.54 167.306 143.665 167.923 143.665 168.673V174.219H142.324V168.764C142.324 168.071 142.144 167.535 141.784 167.156C141.428 166.774 140.934 166.582 140.301 166.582C139.862 166.582 139.468 166.675 139.119 166.861C138.775 167.046 138.502 167.317 138.301 167.673C138.104 168.029 138.006 168.461 138.006 168.969ZM149.777 174.401C148.936 174.401 148.211 174.215 147.601 173.844C146.995 173.469 146.527 172.946 146.197 172.276C145.872 171.601 145.709 170.817 145.709 169.923C145.709 169.029 145.872 168.241 146.197 167.56C146.527 166.874 146.985 166.34 147.572 165.957C148.163 165.571 148.853 165.378 149.641 165.378C150.095 165.378 150.544 165.454 150.987 165.605C151.43 165.757 151.834 166.003 152.197 166.344C152.561 166.681 152.851 167.128 153.067 167.685C153.283 168.241 153.391 168.927 153.391 169.741V170.31H146.663V169.151H152.027C152.027 168.658 151.929 168.219 151.732 167.832C151.538 167.446 151.262 167.141 150.902 166.918C150.546 166.694 150.125 166.582 149.641 166.582C149.107 166.582 148.644 166.715 148.254 166.98C147.868 167.241 147.571 167.582 147.362 168.003C147.154 168.423 147.05 168.874 147.05 169.355V170.128C147.05 170.787 147.163 171.346 147.391 171.804C147.622 172.259 147.942 172.605 148.351 172.844C148.76 173.079 149.235 173.196 149.777 173.196C150.129 173.196 150.447 173.147 150.732 173.048C151.019 172.946 151.268 172.795 151.476 172.594C151.684 172.389 151.845 172.135 151.959 171.832L153.254 172.196C153.118 172.635 152.889 173.022 152.567 173.355C152.245 173.685 151.847 173.942 151.374 174.128C150.9 174.31 150.368 174.401 149.777 174.401ZM163.817 165.491V166.628H159.112V165.491H163.817ZM160.521 174.219V164.287C160.521 163.787 160.639 163.37 160.874 163.037C161.108 162.704 161.413 162.454 161.788 162.287C162.163 162.12 162.559 162.037 162.976 162.037C163.305 162.037 163.574 162.063 163.783 162.116C163.991 162.17 164.146 162.219 164.249 162.264L163.862 163.423C163.794 163.401 163.699 163.372 163.578 163.338C163.461 163.304 163.305 163.287 163.112 163.287C162.669 163.287 162.349 163.399 162.152 163.622C161.959 163.846 161.862 164.173 161.862 164.605V174.219H160.521ZM168.882 174.401C168.094 174.401 167.403 174.213 166.808 173.838C166.217 173.463 165.755 172.938 165.422 172.264C165.092 171.59 164.928 170.802 164.928 169.901C164.928 168.991 165.092 168.198 165.422 167.52C165.755 166.842 166.217 166.315 166.808 165.94C167.403 165.565 168.094 165.378 168.882 165.378C169.67 165.378 170.359 165.565 170.95 165.94C171.545 166.315 172.007 166.842 172.337 167.52C172.67 168.198 172.837 168.991 172.837 169.901C172.837 170.802 172.67 171.59 172.337 172.264C172.007 172.938 171.545 173.463 170.95 173.838C170.359 174.213 169.67 174.401 168.882 174.401ZM168.882 173.196C169.481 173.196 169.973 173.043 170.359 172.736C170.746 172.429 171.032 172.026 171.217 171.526C171.403 171.026 171.496 170.484 171.496 169.901C171.496 169.317 171.403 168.774 171.217 168.27C171.032 167.766 170.746 167.359 170.359 167.048C169.973 166.738 169.481 166.582 168.882 166.582C168.284 166.582 167.791 166.738 167.405 167.048C167.018 167.359 166.732 167.766 166.547 168.27C166.361 168.774 166.268 169.317 166.268 169.901C166.268 170.484 166.361 171.026 166.547 171.526C166.732 172.026 167.018 172.429 167.405 172.736C167.791 173.043 168.284 173.196 168.882 173.196ZM174.884 174.219V165.491H176.179V166.81H176.27C176.429 166.378 176.717 166.027 177.134 165.759C177.55 165.49 178.02 165.355 178.543 165.355C178.641 165.355 178.764 165.357 178.912 165.361C179.06 165.365 179.171 165.37 179.247 165.378V166.741C179.202 166.73 179.098 166.713 178.935 166.69C178.776 166.664 178.607 166.651 178.429 166.651C178.005 166.651 177.626 166.74 177.293 166.918C176.963 167.092 176.702 167.334 176.509 167.645C176.319 167.952 176.224 168.302 176.224 168.696V174.219H174.884ZM180.837 174.219V165.491H182.132V166.855H182.246C182.428 166.389 182.721 166.027 183.126 165.77C183.532 165.509 184.018 165.378 184.587 165.378C185.162 165.378 185.642 165.509 186.024 165.77C186.411 166.027 186.712 166.389 186.928 166.855H187.018C187.242 166.404 187.577 166.046 188.024 165.781C188.471 165.512 189.007 165.378 189.632 165.378C190.412 165.378 191.051 165.622 191.547 166.111C192.043 166.596 192.291 167.351 192.291 168.378V174.219H190.95V168.378C190.95 167.734 190.774 167.274 190.422 166.997C190.07 166.721 189.655 166.582 189.178 166.582C188.564 166.582 188.089 166.768 187.751 167.139C187.414 167.507 187.246 167.973 187.246 168.537V174.219H185.882V168.241C185.882 167.745 185.721 167.346 185.399 167.043C185.077 166.736 184.662 166.582 184.155 166.582C183.806 166.582 183.481 166.675 183.178 166.861C182.878 167.046 182.636 167.304 182.45 167.634C182.268 167.959 182.178 168.336 182.178 168.764V174.219H180.837ZM201.811 174.423C201.258 174.423 200.756 174.319 200.305 174.111C199.855 173.899 199.497 173.594 199.232 173.196C198.966 172.795 198.834 172.31 198.834 171.741C198.834 171.241 198.932 170.836 199.129 170.526C199.326 170.211 199.589 169.965 199.919 169.787C200.249 169.609 200.612 169.476 201.01 169.389C201.411 169.298 201.815 169.226 202.22 169.173C202.75 169.105 203.18 169.054 203.51 169.02C203.843 168.982 204.086 168.92 204.237 168.832C204.393 168.745 204.47 168.594 204.47 168.378V168.332C204.47 167.772 204.317 167.336 204.01 167.026C203.707 166.715 203.247 166.56 202.629 166.56C201.989 166.56 201.487 166.7 201.124 166.98C200.76 167.26 200.504 167.56 200.357 167.878L199.084 167.423C199.311 166.893 199.614 166.48 199.993 166.185C200.375 165.885 200.792 165.677 201.243 165.56C201.697 165.438 202.144 165.378 202.584 165.378C202.864 165.378 203.186 165.412 203.55 165.48C203.917 165.545 204.271 165.679 204.612 165.884C204.957 166.088 205.243 166.397 205.47 166.81C205.697 167.223 205.811 167.776 205.811 168.469V174.219H204.47V173.037H204.402C204.311 173.226 204.16 173.429 203.947 173.645C203.735 173.861 203.453 174.045 203.101 174.196C202.749 174.348 202.319 174.423 201.811 174.423ZM202.016 173.219C202.546 173.219 202.993 173.115 203.357 172.906C203.724 172.698 204 172.429 204.186 172.099C204.375 171.77 204.47 171.423 204.47 171.06V169.832C204.413 169.901 204.288 169.963 204.095 170.02C203.906 170.073 203.686 170.12 203.436 170.162C203.19 170.2 202.949 170.234 202.714 170.264C202.483 170.291 202.296 170.313 202.152 170.332C201.804 170.378 201.478 170.452 201.175 170.554C200.875 170.652 200.633 170.802 200.447 171.003C200.266 171.2 200.175 171.469 200.175 171.81C200.175 172.276 200.347 172.628 200.692 172.866C201.04 173.101 201.482 173.219 202.016 173.219ZM209.599 168.969V174.219H208.259V165.491H209.554V166.855H209.668C209.872 166.412 210.183 166.056 210.599 165.787C211.016 165.514 211.554 165.378 212.213 165.378C212.804 165.378 213.321 165.499 213.764 165.741C214.207 165.98 214.552 166.344 214.798 166.832C215.045 167.317 215.168 167.931 215.168 168.673V174.219H213.827V168.764C213.827 168.079 213.649 167.545 213.293 167.162C212.937 166.776 212.448 166.582 211.827 166.582C211.399 166.582 211.016 166.675 210.679 166.861C210.346 167.046 210.082 167.317 209.889 167.673C209.696 168.029 209.599 168.461 209.599 168.969ZM220.913 174.401C220.186 174.401 219.544 174.217 218.987 173.849C218.43 173.478 217.995 172.955 217.68 172.281C217.366 171.603 217.209 170.802 217.209 169.878C217.209 168.961 217.366 168.166 217.68 167.491C217.995 166.817 218.432 166.296 218.993 165.929C219.554 165.562 220.201 165.378 220.936 165.378C221.504 165.378 221.953 165.473 222.283 165.662C222.616 165.848 222.87 166.06 223.044 166.298C223.222 166.533 223.36 166.726 223.459 166.878H223.572V162.582H224.913V174.219H223.618V172.878H223.459C223.36 173.037 223.22 173.238 223.038 173.48C222.857 173.719 222.597 173.933 222.26 174.122C221.923 174.308 221.474 174.401 220.913 174.401ZM221.095 173.196C221.633 173.196 222.088 173.056 222.459 172.776C222.83 172.491 223.112 172.099 223.305 171.599C223.499 171.096 223.595 170.514 223.595 169.855C223.595 169.204 223.5 168.634 223.311 168.145C223.122 167.652 222.841 167.27 222.47 166.997C222.099 166.721 221.641 166.582 221.095 166.582C220.527 166.582 220.054 166.728 219.675 167.02C219.3 167.308 219.018 167.7 218.828 168.196C218.643 168.688 218.55 169.241 218.55 169.855C218.55 170.476 218.644 171.041 218.834 171.548C219.027 172.052 219.311 172.454 219.686 172.753C220.065 173.048 220.535 173.196 221.095 173.196ZM234.033 174.219L231.374 165.491H232.783L234.669 172.173H234.76L236.624 165.491H238.055L239.896 172.151H239.987L241.874 165.491H243.283L240.624 174.219H239.305L237.396 167.514H237.26L235.351 174.219H234.033ZM248.418 174.401C247.577 174.401 246.851 174.215 246.241 173.844C245.635 173.469 245.168 172.946 244.838 172.276C244.512 171.601 244.349 170.817 244.349 169.923C244.349 169.029 244.512 168.241 244.838 167.56C245.168 166.874 245.626 166.34 246.213 165.957C246.804 165.571 247.493 165.378 248.281 165.378C248.736 165.378 249.185 165.454 249.628 165.605C250.071 165.757 250.474 166.003 250.838 166.344C251.202 166.681 251.491 167.128 251.707 167.685C251.923 168.241 252.031 168.927 252.031 169.741V170.31H245.304V169.151H250.668C250.668 168.658 250.569 168.219 250.372 167.832C250.179 167.446 249.902 167.141 249.543 166.918C249.187 166.694 248.766 166.582 248.281 166.582C247.747 166.582 247.285 166.715 246.895 166.98C246.509 167.241 246.211 167.582 246.003 168.003C245.795 168.423 245.69 168.874 245.69 169.355V170.128C245.69 170.787 245.804 171.346 246.031 171.804C246.262 172.259 246.582 172.605 246.991 172.844C247.401 173.079 247.876 173.196 248.418 173.196C248.77 173.196 249.088 173.147 249.372 173.048C249.66 172.946 249.908 172.795 250.116 172.594C250.325 172.389 250.486 172.135 250.599 171.832L251.895 172.196C251.759 172.635 251.529 173.022 251.207 173.355C250.885 173.685 250.488 173.942 250.014 174.128C249.541 174.31 249.009 174.401 248.418 174.401ZM255.23 162.582V166.582H253.98V162.582H255.23ZM258.959 162.582V174.219H257.618V162.582H258.959ZM262.756 162.582V174.219H261.415V162.582H262.756ZM269.893 174.219V162.582H271.234V166.878H271.348C271.446 166.726 271.583 166.533 271.757 166.298C271.935 166.06 272.189 165.848 272.518 165.662C272.852 165.473 273.303 165.378 273.871 165.378C274.606 165.378 275.253 165.562 275.814 165.929C276.375 166.296 276.812 166.817 277.126 167.491C277.441 168.166 277.598 168.961 277.598 169.878C277.598 170.802 277.441 171.603 277.126 172.281C276.812 172.955 276.376 173.478 275.82 173.849C275.263 174.217 274.621 174.401 273.893 174.401C273.333 174.401 272.884 174.308 272.547 174.122C272.21 173.933 271.95 173.719 271.768 173.48C271.587 173.238 271.446 173.037 271.348 172.878H271.189V174.219H269.893ZM271.212 169.855C271.212 170.514 271.308 171.096 271.501 171.599C271.695 172.099 271.977 172.491 272.348 172.776C272.719 173.056 273.174 173.196 273.712 173.196C274.272 173.196 274.74 173.048 275.115 172.753C275.494 172.454 275.778 172.052 275.967 171.548C276.161 171.041 276.257 170.476 276.257 169.855C276.257 169.241 276.162 168.688 275.973 168.196C275.787 167.7 275.505 167.308 275.126 167.02C274.751 166.728 274.28 166.582 273.712 166.582C273.166 166.582 272.708 166.721 272.337 166.997C271.965 167.27 271.685 167.652 271.496 168.145C271.306 168.634 271.212 169.204 271.212 169.855ZM283.308 174.401C282.467 174.401 281.742 174.215 281.132 173.844C280.526 173.469 280.058 172.946 279.729 172.276C279.403 171.601 279.24 170.817 279.24 169.923C279.24 169.029 279.403 168.241 279.729 167.56C280.058 166.874 280.517 166.34 281.104 165.957C281.695 165.571 282.384 165.378 283.172 165.378C283.626 165.378 284.075 165.454 284.518 165.605C284.962 165.757 285.365 166.003 285.729 166.344C286.092 166.681 286.382 167.128 286.598 167.685C286.814 168.241 286.922 168.927 286.922 169.741V170.31H280.195V169.151H285.558C285.558 168.658 285.46 168.219 285.263 167.832C285.07 167.446 284.793 167.141 284.433 166.918C284.077 166.694 283.657 166.582 283.172 166.582C282.638 166.582 282.176 166.715 281.786 166.98C281.399 167.241 281.102 167.582 280.893 168.003C280.685 168.423 280.581 168.874 280.581 169.355V170.128C280.581 170.787 280.695 171.346 280.922 171.804C281.153 172.259 281.473 172.605 281.882 172.844C282.291 173.079 282.767 173.196 283.308 173.196C283.661 173.196 283.979 173.147 284.263 173.048C284.551 172.946 284.799 172.795 285.007 172.594C285.215 172.389 285.376 172.135 285.49 171.832L286.786 172.196C286.649 172.635 286.42 173.022 286.098 173.355C285.776 173.685 285.378 173.942 284.905 174.128C284.431 174.31 283.899 174.401 283.308 174.401ZM76.2273 198.219V189.491H77.5682V198.219H76.2273ZM76.9091 188.037C76.6477 188.037 76.4223 187.948 76.233 187.77C76.0473 187.592 75.9545 187.378 75.9545 187.128C75.9545 186.878 76.0473 186.664 76.233 186.486C76.4223 186.308 76.6477 186.219 76.9091 186.219C77.1705 186.219 77.3939 186.308 77.5795 186.486C77.7689 186.664 77.8636 186.878 77.8636 187.128C77.8636 187.378 77.7689 187.592 77.5795 187.77C77.3939 187.948 77.1705 188.037 76.9091 188.037ZM81.3651 192.969V198.219H80.0241V189.491H81.3196V190.855H81.4332C81.6378 190.412 81.9484 190.056 82.3651 189.787C82.7817 189.514 83.3196 189.378 83.9787 189.378C84.5696 189.378 85.0866 189.499 85.5298 189.741C85.973 189.98 86.3177 190.344 86.5639 190.832C86.8101 191.317 86.9332 191.931 86.9332 192.673V198.219H85.5923V192.764C85.5923 192.079 85.4143 191.545 85.0582 191.162C84.7022 190.776 84.2135 190.582 83.5923 190.582C83.1643 190.582 82.7817 190.675 82.4446 190.861C82.1113 191.046 81.848 191.317 81.6548 191.673C81.4616 192.029 81.3651 192.461 81.3651 192.969ZM97.679 189.491V190.628H93.1562V189.491H97.679ZM94.4744 187.401H95.8153V195.719C95.8153 196.098 95.8703 196.382 95.9801 196.571C96.0938 196.757 96.2377 196.882 96.4119 196.946C96.59 197.007 96.7775 197.037 96.9744 197.037C97.1222 197.037 97.2434 197.029 97.3381 197.014C97.4328 196.995 97.5085 196.98 97.5653 196.969L97.8381 198.173C97.7472 198.207 97.6203 198.241 97.4574 198.276C97.2945 198.313 97.0881 198.332 96.8381 198.332C96.4593 198.332 96.0881 198.251 95.7244 198.088C95.3646 197.925 95.0653 197.677 94.8267 197.344C94.5919 197.01 94.4744 196.59 94.4744 196.082V187.401ZM103.148 198.401C102.36 198.401 101.669 198.213 101.074 197.838C100.483 197.463 100.021 196.938 99.6875 196.264C99.358 195.59 99.1932 194.802 99.1932 193.901C99.1932 192.991 99.358 192.198 99.6875 191.52C100.021 190.842 100.483 190.315 101.074 189.94C101.669 189.565 102.36 189.378 103.148 189.378C103.936 189.378 104.625 189.565 105.216 189.94C105.811 190.315 106.273 190.842 106.602 191.52C106.936 192.198 107.102 192.991 107.102 193.901C107.102 194.802 106.936 195.59 106.602 196.264C106.273 196.938 105.811 197.463 105.216 197.838C104.625 198.213 103.936 198.401 103.148 198.401ZM103.148 197.196C103.746 197.196 104.239 197.043 104.625 196.736C105.011 196.429 105.297 196.026 105.483 195.526C105.669 195.026 105.761 194.484 105.761 193.901C105.761 193.317 105.669 192.774 105.483 192.27C105.297 191.766 105.011 191.359 104.625 191.048C104.239 190.738 103.746 190.582 103.148 190.582C102.549 190.582 102.057 190.738 101.67 191.048C101.284 191.359 100.998 191.766 100.812 192.27C100.627 192.774 100.534 193.317 100.534 193.901C100.534 194.484 100.627 195.026 100.812 195.526C100.998 196.026 101.284 196.429 101.67 196.736C102.057 197.043 102.549 197.196 103.148 197.196ZM114.649 194.651V189.491H115.99V198.219H114.649V196.741H114.558C114.354 197.185 114.036 197.562 113.604 197.872C113.172 198.179 112.626 198.332 111.967 198.332C111.422 198.332 110.937 198.213 110.513 197.974C110.089 197.732 109.755 197.368 109.513 196.884C109.27 196.395 109.149 195.779 109.149 195.037V189.491H110.49V194.946C110.49 195.582 110.668 196.09 111.024 196.469C111.384 196.848 111.842 197.037 112.399 197.037C112.732 197.037 113.071 196.952 113.416 196.781C113.765 196.611 114.056 196.349 114.291 195.997C114.53 195.645 114.649 195.196 114.649 194.651ZM121.991 198.401C121.173 198.401 120.469 198.207 119.878 197.821C119.287 197.435 118.832 196.902 118.514 196.224C118.196 195.546 118.037 194.772 118.037 193.901C118.037 193.014 118.2 192.232 118.526 191.554C118.855 190.872 119.313 190.34 119.901 189.957C120.491 189.571 121.181 189.378 121.969 189.378C122.582 189.378 123.135 189.491 123.628 189.719C124.12 189.946 124.524 190.264 124.838 190.673C125.152 191.082 125.348 191.56 125.423 192.105H124.082C123.98 191.707 123.753 191.355 123.401 191.048C123.052 190.738 122.582 190.582 121.991 190.582C121.469 190.582 121.01 190.719 120.616 190.991C120.226 191.26 119.921 191.641 119.702 192.134C119.486 192.622 119.378 193.196 119.378 193.855C119.378 194.529 119.484 195.116 119.696 195.616C119.912 196.116 120.215 196.505 120.605 196.781C120.999 197.058 121.461 197.196 121.991 197.196C122.34 197.196 122.656 197.135 122.94 197.014C123.224 196.893 123.465 196.719 123.662 196.491C123.859 196.264 123.999 195.991 124.082 195.673H125.423C125.348 196.188 125.16 196.652 124.861 197.065C124.565 197.474 124.173 197.8 123.685 198.043C123.2 198.281 122.635 198.401 121.991 198.401ZM128.724 192.969V198.219H127.384V186.582H128.724V190.855H128.838C129.043 190.404 129.349 190.046 129.759 189.781C130.171 189.512 130.721 189.378 131.406 189.378C132.001 189.378 132.522 189.497 132.969 189.736C133.416 189.971 133.762 190.332 134.009 190.821C134.259 191.306 134.384 191.923 134.384 192.673V198.219H133.043V192.764C133.043 192.071 132.863 191.535 132.503 191.156C132.147 190.774 131.652 190.582 131.02 190.582C130.58 190.582 130.187 190.675 129.838 190.861C129.493 191.046 129.221 191.317 129.02 191.673C128.823 192.029 128.724 192.461 128.724 192.969ZM147.518 191.446L146.314 191.787C146.238 191.586 146.126 191.391 145.979 191.202C145.835 191.009 145.638 190.849 145.388 190.724C145.138 190.599 144.818 190.537 144.428 190.537C143.893 190.537 143.448 190.66 143.092 190.906C142.74 191.149 142.564 191.457 142.564 191.832C142.564 192.166 142.685 192.429 142.928 192.622C143.17 192.815 143.549 192.976 144.064 193.105L145.359 193.423C146.14 193.613 146.721 193.902 147.104 194.293C147.486 194.679 147.678 195.177 147.678 195.787C147.678 196.287 147.534 196.734 147.246 197.128C146.962 197.522 146.564 197.832 146.053 198.06C145.541 198.287 144.946 198.401 144.268 198.401C143.378 198.401 142.642 198.207 142.058 197.821C141.475 197.435 141.106 196.87 140.95 196.128L142.223 195.81C142.344 196.279 142.573 196.632 142.911 196.866C143.251 197.101 143.696 197.219 144.246 197.219C144.871 197.219 145.367 197.086 145.734 196.821C146.106 196.552 146.291 196.23 146.291 195.855C146.291 195.552 146.185 195.298 145.973 195.094C145.761 194.885 145.435 194.73 144.996 194.628L143.541 194.287C142.742 194.098 142.155 193.804 141.78 193.406C141.409 193.005 141.223 192.503 141.223 191.901C141.223 191.408 141.361 190.973 141.638 190.594C141.918 190.215 142.299 189.918 142.78 189.702C143.265 189.486 143.814 189.378 144.428 189.378C145.291 189.378 145.969 189.567 146.462 189.946C146.958 190.325 147.31 190.825 147.518 191.446ZM153.241 198.401C152.454 198.401 151.762 198.213 151.168 197.838C150.577 197.463 150.115 196.938 149.781 196.264C149.452 195.59 149.287 194.802 149.287 193.901C149.287 192.991 149.452 192.198 149.781 191.52C150.115 190.842 150.577 190.315 151.168 189.94C151.762 189.565 152.454 189.378 153.241 189.378C154.029 189.378 154.719 189.565 155.31 189.94C155.904 190.315 156.366 190.842 156.696 191.52C157.029 192.198 157.196 192.991 157.196 193.901C157.196 194.802 157.029 195.59 156.696 196.264C156.366 196.938 155.904 197.463 155.31 197.838C154.719 198.213 154.029 198.401 153.241 198.401ZM153.241 197.196C153.84 197.196 154.332 197.043 154.719 196.736C155.105 196.429 155.391 196.026 155.577 195.526C155.762 195.026 155.855 194.484 155.855 193.901C155.855 193.317 155.762 192.774 155.577 192.27C155.391 191.766 155.105 191.359 154.719 191.048C154.332 190.738 153.84 190.582 153.241 190.582C152.643 190.582 152.151 190.738 151.764 191.048C151.378 191.359 151.092 191.766 150.906 192.27C150.721 192.774 150.628 193.317 150.628 193.901C150.628 194.484 150.721 195.026 150.906 195.526C151.092 196.026 151.378 196.429 151.764 196.736C152.151 197.043 152.643 197.196 153.241 197.196ZM162.788 198.401C162 198.401 161.309 198.213 160.714 197.838C160.124 197.463 159.661 196.938 159.328 196.264C158.999 195.59 158.834 194.802 158.834 193.901C158.834 192.991 158.999 192.198 159.328 191.52C159.661 190.842 160.124 190.315 160.714 189.94C161.309 189.565 162 189.378 162.788 189.378C163.576 189.378 164.266 189.565 164.857 189.94C165.451 190.315 165.913 190.842 166.243 191.52C166.576 192.198 166.743 192.991 166.743 193.901C166.743 194.802 166.576 195.59 166.243 196.264C165.913 196.938 165.451 197.463 164.857 197.838C164.266 198.213 163.576 198.401 162.788 198.401ZM162.788 197.196C163.387 197.196 163.879 197.043 164.266 196.736C164.652 196.429 164.938 196.026 165.124 195.526C165.309 195.026 165.402 194.484 165.402 193.901C165.402 193.317 165.309 192.774 165.124 192.27C164.938 191.766 164.652 191.359 164.266 191.048C163.879 190.738 163.387 190.582 162.788 190.582C162.19 190.582 161.697 190.738 161.311 191.048C160.925 191.359 160.639 191.766 160.453 192.27C160.268 192.774 160.175 193.317 160.175 193.901C160.175 194.484 160.268 195.026 160.453 195.526C160.639 196.026 160.925 196.429 161.311 196.736C161.697 197.043 162.19 197.196 162.788 197.196ZM170.131 192.969V198.219H168.79V189.491H170.085V190.855H170.199C170.403 190.412 170.714 190.056 171.131 189.787C171.547 189.514 172.085 189.378 172.744 189.378C173.335 189.378 173.852 189.499 174.295 189.741C174.739 189.98 175.083 190.344 175.33 190.832C175.576 191.317 175.699 191.931 175.699 192.673V198.219H174.358V192.764C174.358 192.079 174.18 191.545 173.824 191.162C173.468 190.776 172.979 190.582 172.358 190.582C171.93 190.582 171.547 190.675 171.21 190.861C170.877 191.046 170.614 191.317 170.42 191.673C170.227 192.029 170.131 192.461 170.131 192.969ZM179.126 198.31C178.846 198.31 178.606 198.209 178.405 198.009C178.204 197.808 178.104 197.567 178.104 197.287C178.104 197.007 178.204 196.766 178.405 196.565C178.606 196.365 178.846 196.264 179.126 196.264C179.407 196.264 179.647 196.365 179.848 196.565C180.049 196.766 180.149 197.007 180.149 197.287C180.149 197.473 180.102 197.643 180.007 197.798C179.916 197.954 179.793 198.079 179.638 198.173C179.486 198.264 179.316 198.31 179.126 198.31Z" fill="white"/>
<rect width="222" height="52.3906" transform="translate(75 337.219)" fill="#055B89"/>
<path d="M159.767 358.2V369.109H157.775L153.029 362.243H152.949V369.109H150.642V358.2H152.667L157.375 365.061H157.471V358.2H159.767ZM163.593 369.109V358.2H170.943V360.102H165.899V362.701H170.565V364.603H165.899V367.208H170.965V369.109H163.593ZM176.86 358.2L179.06 361.918H179.145L181.356 358.2H183.96L180.631 363.655L184.035 369.109H181.382L179.145 365.386H179.06L176.823 369.109H174.181L177.595 363.655L174.244 358.2H176.86ZM186.924 360.102V358.2H195.884V360.102H192.544V369.109H190.264V360.102H186.924Z" fill="white"/>
<g clip-path="url(#clip1_389_903)">
<path d="M238.901 358.614C238.466 358.354 237.945 358.441 237.684 358.788C237.423 359.223 237.51 359.744 237.858 360.005L242.03 362.873H231.166C230.645 362.873 230.297 363.221 230.297 363.742C230.297 364.264 230.645 364.611 231.166 364.611H242.03L237.858 367.479C237.423 367.74 237.336 368.261 237.597 368.696C237.771 368.957 238.032 369.044 238.292 369.044C238.466 369.044 238.64 368.957 238.814 368.87L246.288 363.742L238.901 358.614Z" fill="white"/>
</g>
<rect x="75" y="221.219" width="222" height="42" rx="21" fill="white"/>
<path d="M96.233 246.219V236.037H102.378V237.131H97.4659V240.571H102.06V241.665H97.4659V245.125H102.457V246.219H96.233ZM104.6 236.037H106.072L109.532 244.489H109.651L113.112 236.037H114.583V246.219H113.43V238.483H113.33L110.148 246.219H109.035L105.853 238.483H105.754V246.219H104.6V236.037ZM117.473 246.219H116.18L119.919 236.037H121.192L124.93 246.219H123.638L120.595 237.648H120.515L117.473 246.219ZM117.95 242.241H123.16V243.335H117.95V242.241ZM127.749 236.037V246.219H126.516V236.037H127.749ZM130.221 246.219V236.037H131.454V245.125H136.187V246.219H130.221Z" fill="#5E6468"/>
<rect x="75" y="279.219" width="222" height="42" rx="21" fill="white"/>
<path d="M105.099 296.719H103.778C103.7 296.339 103.564 296.005 103.368 295.717C103.176 295.43 102.942 295.188 102.665 294.993C102.392 294.794 102.088 294.645 101.754 294.545C101.42 294.446 101.072 294.396 100.71 294.396C100.05 294.396 99.4513 294.563 98.9151 294.897C98.3825 295.231 97.9581 295.723 97.642 296.373C97.3295 297.022 97.1733 297.82 97.1733 298.764C97.1733 299.709 97.3295 300.506 97.642 301.156C97.9581 301.806 98.3825 302.298 98.9151 302.631C99.4513 302.965 100.05 303.132 100.71 303.132C101.072 303.132 101.42 303.082 101.754 302.983C102.088 302.884 102.392 302.736 102.665 302.541C102.942 302.342 103.176 302.099 103.368 301.811C103.564 301.52 103.7 301.186 103.778 300.81H105.099C105 301.367 104.819 301.866 104.556 302.306C104.293 302.747 103.967 303.121 103.576 303.43C103.185 303.736 102.747 303.968 102.26 304.128C101.777 304.288 101.261 304.368 100.71 304.368C99.7798 304.368 98.9524 304.141 98.228 303.686C97.5036 303.232 96.9336 302.585 96.5181 301.747C96.1026 300.909 95.8949 299.915 95.8949 298.764C95.8949 297.614 96.1026 296.619 96.5181 295.781C96.9336 294.943 97.5036 294.297 98.228 293.842C98.9524 293.388 99.7798 293.161 100.71 293.161C101.261 293.161 101.777 293.24 102.26 293.4C102.747 293.56 103.185 293.794 103.576 294.103C103.967 294.409 104.293 294.782 104.556 295.222C104.819 295.659 105 296.158 105.099 296.719ZM116.439 298.764C116.439 299.915 116.231 300.909 115.815 301.747C115.4 302.585 114.83 303.232 114.106 303.686C113.381 304.141 112.554 304.368 111.623 304.368C110.693 304.368 109.866 304.141 109.141 303.686C108.417 303.232 107.847 302.585 107.431 301.747C107.016 300.909 106.808 299.915 106.808 298.764C106.808 297.614 107.016 296.619 107.431 295.781C107.847 294.943 108.417 294.297 109.141 293.842C109.866 293.388 110.693 293.161 111.623 293.161C112.554 293.161 113.381 293.388 114.106 293.842C114.83 294.297 115.4 294.943 115.815 295.781C116.231 296.619 116.439 297.614 116.439 298.764ZM115.16 298.764C115.16 297.82 115.002 297.022 114.686 296.373C114.374 295.723 113.949 295.231 113.413 294.897C112.88 294.563 112.284 294.396 111.623 294.396C110.963 294.396 110.364 294.563 109.828 294.897C109.296 295.231 108.871 295.723 108.555 296.373C108.243 297.022 108.086 297.82 108.086 298.764C108.086 299.709 108.243 300.506 108.555 301.156C108.871 301.806 109.296 302.298 109.828 302.631C110.364 302.965 110.963 303.132 111.623 303.132C112.284 303.132 112.88 302.965 113.413 302.631C113.949 302.298 114.374 301.806 114.686 301.156C115.002 300.506 115.16 299.709 115.16 298.764ZM118.66 293.31H120.237L123.944 302.365H124.072L127.779 293.31H129.356V304.219H128.12V295.93H128.014L124.604 304.219H123.411L120.002 295.93H119.896V304.219H118.66V293.31ZM132.005 304.219V293.31H135.691C136.547 293.31 137.246 293.464 137.789 293.773C138.336 294.078 138.741 294.492 139.004 295.014C139.267 295.536 139.398 296.119 139.398 296.761C139.398 297.404 139.267 297.988 139.004 298.514C138.745 299.039 138.343 299.458 137.8 299.771C137.257 300.08 136.561 300.234 135.712 300.234H133.07V299.062H135.669C136.255 299.062 136.726 298.961 137.081 298.759C137.436 298.556 137.694 298.283 137.853 297.939C138.017 297.591 138.098 297.198 138.098 296.761C138.098 296.325 138.017 295.934 137.853 295.589C137.694 295.245 137.434 294.975 137.076 294.78C136.717 294.581 136.241 294.482 135.648 294.482H133.326V304.219H132.005ZM140.86 304.219H139.475L143.481 293.31H144.845L148.85 304.219H147.465L144.205 295.036H144.12L140.86 304.219ZM141.372 299.957H146.954V301.129H141.372V299.957ZM159.2 293.31V304.219H157.922L151.977 295.653H151.871V304.219H150.55V293.31H151.828L157.794 301.896H157.9V293.31H159.2ZM160.906 293.31H162.419L165.444 298.402H165.572L168.598 293.31H170.111L166.169 299.723V304.219H164.848V299.723L160.906 293.31Z" fill="#5E6468"/>
</g>
<defs>
<linearGradient id="paint0_linear_389_903" x1="347.53" y1="163.914" x2="347.53" y2="241.234" gradientUnits="userSpaceOnUse">
<stop stop-color="#CBCBCB" stop-opacity="0.275"/>
<stop offset="0.04" stop-color="#CBCBCB"/>
<stop offset="0.96" stop-color="#CBCBCB"/>
<stop offset="1" stop-color="#CBCBCB" stop-opacity="0.276"/>
</linearGradient>
<linearGradient id="paint1_linear_389_903" x1="2.46969" y1="96.4922" x2="2.46969" y2="120.788" gradientUnits="userSpaceOnUse">
<stop stop-color="#CBCBCB" stop-opacity="0.275"/>
<stop offset="0.05" stop-color="#CBCBCB"/>
<stop offset="0.95" stop-color="#CBCBCB"/>
<stop offset="1" stop-color="#CBCBCB" stop-opacity="0.276"/>
</linearGradient>
<linearGradient id="paint2_linear_389_903" x1="2.46774" y1="1.47852" x2="2.46774" y2="49.2843" gradientUnits="userSpaceOnUse">
<stop stop-color="#CBCBCB" stop-opacity="0.275"/>
<stop offset="0.05" stop-color="#CBCBCB"/>
<stop offset="0.95" stop-color="#CBCBCB"/>
<stop offset="1" stop-color="#CBCBCB" stop-opacity="0.276"/>
</linearGradient>
<linearGradient id="paint3_linear_389_903" x1="2.46969" y1="211.15" x2="2.46969" y2="258.956" gradientUnits="userSpaceOnUse">
<stop stop-color="#CBCBCB" stop-opacity="0.275"/>
<stop offset="0.05" stop-color="#CBCBCB"/>
<stop offset="0.95" stop-color="#CBCBCB"/>
<stop offset="1" stop-color="#CBCBCB" stop-opacity="0.276"/>
</linearGradient>
<linearGradient id="paint4_linear_389_903" x1="330.77" y1="351.089" x2="339.444" y2="351.089" gradientUnits="userSpaceOnUse">
<stop stop-color="#404040"/>
<stop offset="0.6" stop-color="#838383"/>
<stop offset="1" stop-color="#A7A7A7"/>
</linearGradient>
<linearGradient id="paint5_linear_389_903" x1="19.2294" y1="351.087" x2="10.5553" y2="351.087" gradientUnits="userSpaceOnUse">
<stop stop-color="#404040"/>
<stop offset="0.6" stop-color="#838383"/>
<stop offset="1" stop-color="#A7A7A7"/>
</linearGradient>
<linearGradient id="paint6_linear_389_903" x1="30.7998" y1="21.5838" x2="319.692" y2="21.5838" gradientUnits="userSpaceOnUse">
<stop stop-color="#4F4F4F" stop-opacity="0.131"/>
<stop offset="0.07" stop-color="#4F4F4F"/>
<stop offset="0.937" stop-color="#4F4F4F" stop-opacity="0.953"/>
<stop offset="1" stop-color="#4F4F4F" stop-opacity="0"/>
</linearGradient>
<linearGradient id="paint7_linear_389_903" x1="30.7998" y1="680.109" x2="319.692" y2="680.109" gradientUnits="userSpaceOnUse">
<stop stop-color="#4F4F4F" stop-opacity="0.131"/>
<stop offset="0.07" stop-color="#4F4F4F"/>
<stop offset="0.937" stop-color="#4F4F4F" stop-opacity="0.953"/>
<stop offset="1" stop-color="#4F4F4F" stop-opacity="0"/>
</linearGradient>
<linearGradient id="paint8_linear_389_903" x1="295.766" y1="21.584" x2="294.783" y2="894.525" gradientUnits="userSpaceOnUse">
<stop stop-color="#404040"/>
<stop offset="0.022" stop-color="#464646"/>
<stop offset="0.999" stop-color="#525252" stop-opacity="0.016"/>
<stop offset="1" stop-color="#444444" stop-opacity="0"/>
</linearGradient>
<clipPath id="clip0_389_903">
<rect width="350" height="701.944" fill="white"/>
</clipPath>
<clipPath id="clip1_389_903">
<rect width="16.0781" height="10.6029" fill="white" transform="translate(230.297 358.441)"/>
</clipPath>
</defs>
</svg>
