<svg width="350" height="702" viewBox="0 0 350 702" fill="none" xmlns="http://www.w3.org/2000/svg">
<g clip-path="url(#clip0_379_900)">
<path d="M348.343 162.438C348.56 162.437 348.776 162.48 348.977 162.563C349.179 162.646 349.361 162.768 349.515 162.922C349.669 163.076 349.791 163.259 349.875 163.46C349.958 163.661 350 163.877 350 164.095V241.058C350 241.275 349.957 241.491 349.873 241.692C349.79 241.892 349.668 242.075 349.514 242.229C349.36 242.382 349.177 242.504 348.976 242.587C348.775 242.67 348.56 242.712 348.343 242.712H335.577C335.36 242.712 335.144 242.67 334.943 242.587C334.742 242.504 334.559 242.382 334.406 242.229C334.252 242.075 334.129 241.892 334.046 241.692C333.963 241.491 333.92 241.275 333.92 241.058V164.095C333.92 163.176 334.655 162.441 335.573 162.441L348.343 162.438Z" fill="black"/>
<mask id="mask0_379_900" style="mask-type:luminance" maskUnits="userSpaceOnUse" x="333" y="162" width="17" height="81">
<path d="M348.343 162.437C348.56 162.437 348.776 162.479 348.977 162.562C349.178 162.645 349.36 162.767 349.514 162.92C349.668 163.074 349.79 163.256 349.874 163.457C349.957 163.658 350 163.873 350 164.091V241.054C350 241.973 349.261 242.711 348.343 242.711H335.577C335.36 242.712 335.145 242.669 334.944 242.586C334.742 242.504 334.56 242.382 334.406 242.228C334.252 242.075 334.13 241.892 334.046 241.691C333.963 241.491 333.92 241.275 333.92 241.058V164.091C333.92 163.873 333.962 163.658 334.045 163.457C334.128 163.256 334.25 163.073 334.403 162.919C334.557 162.765 334.739 162.643 334.94 162.56C335.141 162.476 335.356 162.434 335.574 162.434L348.343 162.437Z" fill="white"/>
</mask>
<g mask="url(#mask0_379_900)">
<path d="M347.99 163.914C348.184 163.914 348.377 163.951 348.556 164.026C348.735 164.1 348.898 164.208 349.036 164.346C349.173 164.483 349.282 164.646 349.356 164.825C349.43 165.005 349.468 165.197 349.467 165.391V239.757C349.467 240.576 348.806 241.234 347.99 241.234H347.531V163.914H347.99Z" fill="url(#paint0_linear_379_900)"/>
</g>
<path d="M14.4262 95.0137H1.65722C0.741962 95.0137 0 95.7556 0 96.6709V120.611C0 121.526 0.741962 122.268 1.65722 122.268H14.4262C15.3415 122.268 16.0835 121.526 16.0835 120.611V96.6709C16.0835 95.7556 15.3415 95.0137 14.4262 95.0137Z" fill="black"/>
<mask id="mask1_379_900" style="mask-type:luminance" maskUnits="userSpaceOnUse" x="0" y="95" width="17" height="28">
<path d="M14.4262 95.0137H1.65722C0.741962 95.0137 0 95.7556 0 96.6709V120.611C0 121.526 0.741962 122.268 1.65722 122.268H14.4262C15.3415 122.268 16.0835 121.526 16.0835 120.611V96.6709C16.0835 95.7556 15.3415 95.0137 14.4262 95.0137Z" fill="white"/>
</mask>
<g mask="url(#mask1_379_900)">
<path d="M2.01356 96.4922C1.81913 96.4912 1.62643 96.5288 1.44657 96.6026C1.26671 96.6764 1.10324 96.7852 0.965583 96.9225C0.827929 97.0598 0.718813 97.223 0.644521 97.4027C0.570229 97.5823 0.532232 97.7749 0.532719 97.9694V119.311C0.532719 120.131 1.19413 120.788 2.00988 120.788H2.4692V96.4922H2.01356Z" fill="url(#paint1_linear_379_900)"/>
</g>
<path d="M1.65722 145.836C1.43976 145.835 1.22435 145.878 1.02331 145.961C0.822264 146.043 0.639545 146.165 0.48561 146.319C0.331675 146.472 0.209547 146.655 0.126219 146.856C0.0428911 147.056 -5.36924e-07 147.272 0 147.489L0 194.939C0 195.857 0.738583 196.596 1.65722 196.596H14.4226C14.64 196.596 14.8554 196.554 15.0565 196.471C15.2575 196.388 15.4402 196.266 15.5942 196.113C15.7481 195.959 15.8702 195.777 15.9536 195.576C16.0369 195.375 16.0798 195.16 16.0798 194.942V147.489C16.0803 147.272 16.0379 147.056 15.955 146.855C15.8721 146.654 15.7504 146.472 15.5968 146.318C15.4432 146.164 15.2607 146.042 15.0599 145.958C14.859 145.875 14.6437 145.832 14.4262 145.832L1.65722 145.836Z" fill="black"/>
<mask id="mask2_379_900" style="mask-type:luminance" maskUnits="userSpaceOnUse" x="-1" y="-1" width="18" height="52">
<path d="M1.65526 0.0017194C1.43781 0.00123616 1.22239 0.0436471 1.02135 0.126529C0.820311 0.209411 0.637592 0.331132 0.483657 0.484726C0.329722 0.63832 0.207594 0.820772 0.124266 1.02163C0.040938 1.22249 -0.00195366 1.43781 -0.00195312 1.65527L-0.00195312 49.1046C-0.00195312 50.0232 0.73663 50.7618 1.65526 50.7618H14.4206C14.6381 50.7623 14.8535 50.7199 15.0545 50.637C15.2556 50.5541 15.4383 50.4324 15.5922 50.2788C15.7462 50.1252 15.8683 49.9428 15.9516 49.7419C16.0349 49.5411 16.0778 49.3257 16.0778 49.1083V1.65527C16.0783 1.43781 16.0359 1.22239 15.953 1.02135C15.8701 0.820307 15.7484 0.637596 15.5948 0.483661C15.4412 0.329726 15.2588 0.207586 15.0579 0.124258C14.8571 0.0409303 14.6418 -0.00195366 14.4243 -0.00195312L1.65526 0.0017194Z" fill="white"/>
</mask>
<g mask="url(#mask2_379_900)">
<path d="M2.00842 1.47852C1.8143 1.47804 1.622 1.51591 1.44256 1.58997C1.26312 1.66403 1.10009 1.77282 0.962826 1.91008C0.825561 2.04735 0.716773 2.21039 0.64271 2.38982C0.568647 2.56926 0.53077 2.76157 0.531255 2.95569V47.8071C0.531255 48.6266 1.19267 49.2843 2.00842 49.2843H2.46774V1.47852H2.00842Z" fill="url(#paint2_linear_379_900)"/>
</g>
<path d="M1.65722 209.67C1.43946 209.669 1.22374 209.712 1.02246 209.795C0.821178 209.878 0.638295 210 0.484312 210.154C0.330328 210.308 0.208277 210.491 0.125166 210.692C0.0420542 210.894 -0.00048037 211.109 4.0923e-06 211.327V258.776C4.0923e-06 259.695 0.738587 260.43 1.65722 260.43H14.4226C14.64 260.431 14.8554 260.388 15.0565 260.305C15.2575 260.222 15.4402 260.101 15.5942 259.947C15.7481 259.793 15.8702 259.611 15.9536 259.41C16.0369 259.209 16.0798 258.994 16.0798 258.776V211.323C16.0798 210.885 15.9056 210.464 15.5955 210.154C15.2854 209.844 14.8648 209.67 14.4263 209.67H1.65722Z" fill="black"/>
<mask id="mask3_379_900" style="mask-type:luminance" maskUnits="userSpaceOnUse" x="0" y="209" width="17" height="52">
<path d="M1.65722 209.674C1.43976 209.673 1.22435 209.716 1.02331 209.798C0.822264 209.881 0.639545 210.003 0.48561 210.157C0.331675 210.31 0.209547 210.493 0.126219 210.694C0.0428911 210.894 -5.36924e-07 211.11 0 211.327L0 258.776C0 259.695 0.738583 260.434 1.65722 260.434H14.4226C14.64 260.434 14.8554 260.392 15.0565 260.309C15.2575 260.226 15.4402 260.104 15.5942 259.951C15.7481 259.797 15.8702 259.615 15.9536 259.414C16.0369 259.213 16.0798 258.998 16.0798 258.78V211.327C16.0803 211.11 16.0379 210.894 15.955 210.693C15.8721 210.492 15.7504 210.309 15.5968 210.156C15.4432 210.002 15.2607 209.879 15.0599 209.796C14.859 209.713 14.6437 209.67 14.4262 209.67L1.65722 209.674Z" fill="white"/>
</mask>
<g mask="url(#mask3_379_900)">
<path d="M2.00988 211.15C1.81576 211.15 1.62346 211.188 1.44403 211.262C1.26459 211.336 1.10155 211.445 0.96429 211.582C0.827026 211.719 0.718238 211.882 0.644175 212.062C0.570112 212.241 0.532235 212.433 0.532719 212.628V257.479C0.532719 258.298 1.19414 258.956 2.00988 258.956H2.4692V211.15H2.00988Z" fill="url(#paint3_linear_379_900)"/>
</g>
<path d="M51.1212 -0.079967C44.3792 -0.0940145 37.7007 1.22363 31.4692 3.79733C25.2377 6.37104 19.5758 10.1501 14.8086 14.9177C10.0414 19.6852 6.26275 25.3473 3.6895 31.579C1.11624 37.8107 -0.200927 44.4893 -0.186396 51.2313V648.837C-0.201413 655.579 1.11552 662.258 3.68879 668.491C6.26206 674.723 10.041 680.386 14.8086 685.154C19.5763 689.922 25.2387 693.701 31.4709 696.275C37.7031 698.849 44.3822 700.166 51.1249 700.152H155.118L157.242 697.138H188.567L190.699 700.152H294.688C301.431 700.166 308.11 698.849 314.342 696.275C320.574 693.701 326.237 689.922 331.004 685.154C335.772 680.386 339.551 674.723 342.124 668.491C344.698 662.258 346.014 655.579 345.999 648.837V51.2313C346.014 44.4889 344.696 37.8102 342.122 31.5784C339.548 25.3467 335.768 19.6847 331.001 14.9174C326.233 10.1502 320.57 6.37158 314.338 3.79854C308.106 1.2255 301.427 -0.0913074 294.684 -0.0762924L51.1212 -0.079967Z" fill="black"/>
<path d="M-0.105957 4.70785H3.94339V-0.0800781H-0.105957V4.70785Z" fill="#7D7E7F"/>
<path d="M3.07568 629.082H7.12503V72.8555H3.07568V629.082Z" fill="#EBEBEB"/>
<path d="M-0.315918 4.76251H3.73343V-0.0253906H-0.315918V4.76251Z" fill="#7D7E7F"/>
<path d="M346.924 633.873H342.875V649.894C342.888 656.024 341.69 662.096 339.351 667.761C337.011 673.427 333.575 678.574 329.241 682.909C324.907 687.243 319.759 690.678 314.094 693.018C308.428 695.358 302.356 696.555 296.227 696.542H53.773C47.6437 696.555 41.5722 695.357 35.9071 693.017C30.242 690.677 25.0948 687.241 20.7608 682.907C16.4269 678.573 12.9917 673.425 10.6522 667.76C8.3128 662.095 7.11525 656.023 7.12833 649.894V633.873H3.07531V647.774C3.06078 654.617 4.39793 661.396 7.01001 667.721C9.6221 674.046 13.4577 679.793 18.2966 684.632C23.1355 689.471 28.8824 693.306 35.2075 695.918C41.5326 698.531 48.3114 699.868 55.1546 699.853H294.838C301.681 699.868 308.461 698.531 314.787 695.919C321.112 693.307 326.86 689.471 331.699 684.632C336.539 679.793 340.374 674.045 342.987 667.719C345.599 661.393 346.936 654.614 346.921 647.77L346.924 633.873Z" fill="#EBEBEB"/>
<path d="M346.924 629.082H342.875V633.874H346.924V629.082Z" fill="#7D7E7F"/>
<path d="M346.924 72.8516H342.875V629.085H346.924V72.8516Z" fill="#EBEBEB"/>
<path d="M346.924 68.0625H342.875V72.8504H346.924V68.0625Z" fill="#7D7E7F"/>
<path d="M55.1587 2.2052C48.3152 2.19019 41.5361 3.52698 35.2106 6.13885C28.885 8.75071 23.1376 12.5862 18.2984 17.4252C13.4591 22.2641 9.62316 28.0112 7.01085 34.3366C4.39854 40.6619 3.06127 47.4409 3.0758 54.2845V68.064H7.12514V52.7154C7.11206 46.586 8.30976 40.5143 10.6495 34.849C12.9892 29.1837 16.4248 24.0363 20.7592 19.7022C25.0935 15.3682 30.2412 11.933 35.9067 9.59373C41.5722 7.25447 47.644 6.05726 53.7734 6.07082H296.227C302.356 6.05774 308.428 7.25543 314.093 9.59514C319.759 11.9348 324.906 15.3705 329.24 19.7048C333.574 24.0392 337.009 29.1869 339.349 34.8524C341.688 40.5179 342.885 46.5897 342.872 52.7191V68.064H346.921V54.2845C346.935 47.4416 345.598 40.6631 342.987 34.3383C340.375 28.0134 336.54 22.2666 331.701 17.4278C326.862 12.5889 321.116 8.75326 314.791 6.14096C308.467 3.52867 301.688 2.19116 294.845 2.2052H55.1587Z" fill="#EBEBEB"/>
<mask id="mask4_379_900" style="mask-type:luminance" maskUnits="userSpaceOnUse" x="3" y="1" width="344" height="699">
<path d="M55.1575 1.95703C26.3042 1.95703 3.07422 25.186 3.07422 54.0403V647.519C3.07422 676.373 26.3042 699.603 55.1575 699.603H294.838C323.692 699.603 346.922 676.373 346.922 647.519V54.0403C346.922 25.186 323.692 1.95703 294.838 1.95703H55.1575ZM53.774 5.82448H296.222C322.066 5.82448 342.871 26.6278 342.871 52.4711V649.639C342.871 675.483 322.066 696.288 296.222 696.288H53.774C27.9297 696.288 7.12445 675.483 7.12445 649.639V52.4721C7.12445 26.6278 27.9297 5.82448 53.774 5.82448Z" fill="white"/>
</mask>
<g mask="url(#mask4_379_900)">
<path fill-rule="evenodd" clip-rule="evenodd" d="M36.8703 11.257C30.4663 11.0937 18.2622 13.0323 5.72943 27.1167C-12.4995 47.6021 3.81904 35.2755 3.81904 35.2755C3.81904 35.2755 15.017 17.9157 30.6423 15.6582C46.2667 13.4017 41.4922 11.8375 41.4922 11.8375C41.4922 11.8375 39.7811 11.3319 36.8703 11.257ZM313.126 11.257C310.215 11.3309 308.504 11.8384 308.504 11.8384C308.504 11.8384 303.729 13.4017 319.354 15.6592C334.978 17.9167 346.177 35.2755 346.177 35.2755C346.177 35.2755 362.496 47.6021 344.267 27.1167C331.735 13.0323 319.53 11.0947 313.127 11.257H313.126ZM-2.37102 662.989C-3.77003 662.821 -2.81532 665.215 5.72943 674.817C23.9584 695.303 41.4922 690.095 41.4922 690.095C41.4922 690.095 46.2667 688.532 30.6423 686.274C15.017 684.019 3.81904 666.658 3.81904 666.658C3.81904 666.658 -0.786316 663.179 -2.37102 662.989ZM352.367 662.989C350.782 663.179 346.177 666.658 346.177 666.658C346.177 666.658 334.979 684.018 319.354 686.275C303.729 688.532 308.504 690.096 308.504 690.096C308.504 690.096 326.038 695.303 344.267 674.817C352.812 665.214 353.765 662.821 352.367 662.989Z" fill="#434343"/>
</g>
<path d="M316.117 14.9373C314.976 14.8245 315.514 15.963 318.077 18.3362C326.531 26.1673 331.78 37.5023 331.78 50.1196V652.058C331.78 664.675 326.53 676.01 318.077 683.841C315.514 686.214 314.976 687.353 316.117 687.24C316.802 687.172 318.093 686.654 319.913 685.682C332.269 679.091 339.444 664.869 339.444 649.764V52.4131C339.444 37.3079 332.269 23.0864 319.913 16.4948C318.093 15.5236 316.802 15.0054 316.117 14.9373Z" fill="url(#paint4_linear_379_900)"/>
<path d="M33.8792 14.937C35.022 14.8268 34.4818 15.9622 31.9207 18.336C23.4692 26.1664 18.2146 37.5024 18.2146 50.1207V652.066C18.2146 664.68 23.4692 676.016 31.9207 683.85C34.4818 686.22 35.022 687.36 33.8792 687.246C33.1957 687.18 31.906 686.658 30.0834 685.691C17.7296 679.099 10.5532 664.875 10.5532 649.773V52.4136C10.5532 37.3076 17.7296 23.0871 30.0834 16.495C31.906 15.5213 33.1957 15.0031 33.8792 14.937Z" fill="url(#paint5_linear_379_900)"/>
<path d="M193.531 26.6855H157.076C155.612 26.6855 154.426 27.8709 154.426 29.3331C154.426 30.7952 155.612 31.9806 157.076 31.9806H193.531C194.994 31.9806 196.18 30.7952 196.18 29.3331C196.18 27.8709 194.994 26.6855 193.531 26.6855Z" fill="#1E1E1E"/>
<path d="M212.811 33.9353C215.54 33.9353 217.753 31.7226 217.753 28.993C217.753 26.2635 215.54 24.0508 212.811 24.0508C210.081 24.0508 207.869 26.2635 207.869 28.993C207.869 31.7226 210.081 33.9353 212.811 33.9353Z" fill="#2B2B2B"/>
<path d="M212.811 32.9501C214.997 32.9501 216.768 31.1783 216.768 28.9926C216.768 26.807 214.997 25.0352 212.811 25.0352C210.625 25.0352 208.854 26.807 208.854 28.9926C208.854 31.1783 210.625 32.9501 212.811 32.9501Z" fill="#0A0D13"/>
<path d="M212.811 32.0102C214.477 32.0102 215.828 30.6595 215.828 28.9934C215.828 27.3272 214.477 25.9766 212.811 25.9766C211.145 25.9766 209.794 27.3272 209.794 28.9934C209.794 30.6595 211.145 32.0102 212.811 32.0102Z" fill="#091427"/>
<path fill-rule="evenodd" clip-rule="evenodd" d="M210.735 26.9727C210.375 27.0094 209.868 27.5606 209.831 28.6299C209.794 29.7028 210.265 30.2871 210.529 30.2871C210.79 30.2871 211.882 28.7217 210.735 26.9727Z" fill="#235A91" fill-opacity="0.556"/>
<path fill-rule="evenodd" clip-rule="evenodd" d="M213.303 26.5966C212.738 26.7693 212.631 27.6843 212.653 28.2024C212.675 28.7242 213.41 30.0911 214.303 29.7861C215.192 29.4848 215.343 28.353 214.975 27.5961C214.608 26.8355 213.932 26.2953 213.303 26.5966Z" fill="#235A91" fill-opacity="0.556"/>
<path d="M147.864 29.4467C147.864 30.4737 147.457 31.4588 146.732 32.1867C146.008 32.9145 145.025 33.3259 143.998 33.3307C142.97 33.3346 141.982 32.9307 141.251 32.2074C140.52 31.4842 140.106 30.5007 140.099 29.4725C140.092 28.4455 140.492 27.4576 141.212 26.725C141.932 25.9923 142.912 25.5744 143.939 25.5628C144.967 25.551 145.957 25.9469 146.693 26.6639C147.43 27.3809 147.852 28.3604 147.867 29.388L143.983 29.4467H147.864Z" fill="#0F0F0F"/>
<path d="M125.838 29.5355C125.838 31.0617 125.224 32.5258 124.13 33.6071C123.035 34.6884 121.55 35.2987 120 35.3045C118.45 35.3093 116.961 34.7097 115.859 33.6368C114.757 32.5639 114.132 31.1051 114.12 29.5795C114.11 28.0544 114.714 26.5874 115.8 25.4994C116.886 24.4114 118.366 23.791 119.915 23.7738C121.464 23.7573 122.957 24.3453 124.067 25.4092C125.177 26.473 125.814 27.9262 125.838 29.4509L119.977 29.5355H125.838Z" fill="#101010"/>
<path d="M53.7363 9.46883C45.6223 9.45343 37.6699 11.7365 30.7998 16.0536V21.5838C37.3492 17.2882 45.0146 15.0077 52.847 15.0247H297.641C305.799 15.0247 313.368 17.4389 319.689 21.5838V16.0573C312.82 11.7399 304.869 9.4568 296.756 9.4725H149.899L53.7363 9.46883Z" fill="url(#paint6_linear_379_900)"/>
<path d="M53.7363 692.224C45.6223 692.24 37.6699 689.957 30.7998 685.64V680.109C37.3492 684.405 45.0146 686.685 52.847 686.668H297.641C305.474 686.685 313.139 684.404 319.689 680.109V685.64C312.82 689.957 304.869 692.24 296.756 692.224H149.899H53.7363Z" fill="url(#paint7_linear_379_900)"/>
<path d="M54.2295 21.584C36.9543 21.584 23.0479 35.4905 23.0479 52.7647V648.921C23.0479 666.195 36.9543 680.102 54.2286 680.102H295.766C313.041 680.102 326.947 666.195 326.947 648.921V52.7647C326.947 35.4905 313.041 21.584 295.766 21.584H265.265C263.884 21.584 262.559 22.1328 261.582 23.1097C260.605 24.0866 260.056 25.4115 260.056 26.7931V29.1906C260.056 38.5763 252.502 46.1323 243.116 46.1323H106.879C104.653 46.1372 102.447 45.7023 100.39 44.8526C98.3323 44.0029 96.4628 42.7551 94.8888 41.1809C93.3148 39.6067 92.0673 37.7371 91.2178 35.6795C90.3683 33.6218 89.9337 31.4166 89.9388 29.1906V26.7941C89.9388 26.11 89.8041 25.4326 89.5423 24.8006C89.2805 24.1686 88.8968 23.5944 88.4131 23.1107C87.9294 22.627 87.3551 22.2433 86.7231 21.9815C86.0912 21.7197 85.4138 21.585 84.7297 21.585L54.2295 21.584Z" fill="url(#paint8_linear_379_900)"/>
<path d="M243.982 28.9198C243.981 30.9704 243.159 32.9372 241.696 34.3896C240.232 35.842 238.247 36.6617 236.174 36.6694C234.101 36.6762 232.11 35.8704 230.636 34.4283C229.162 32.9863 228.326 31.0254 228.31 28.9749C228.295 26.9254 229.102 24.9534 230.552 23.4901C232.003 22.0269 233.981 21.1914 236.053 21.1665C238.126 21.1432 240.124 21.9337 241.61 23.3648C243.095 24.796 243.947 26.7512 243.979 28.8022L236.141 28.9161L243.982 28.9198Z" fill="#0F0F0F"/>
</g>
<path d="M49.6504 38.176V44H48.9451V38.9154H48.911L47.4891 39.8595V39.1429L48.9451 38.176H49.6504ZM51.3253 44V43.4881L53.2477 41.3837C53.4733 41.1373 53.6591 40.9231 53.8051 40.7411C53.9511 40.5572 54.0591 40.3846 54.1293 40.2235C54.2013 40.0605 54.2373 39.8898 54.2373 39.7116C54.2373 39.5069 54.1881 39.3296 54.0895 39.1798C53.9928 39.0301 53.8601 38.9144 53.6913 38.8329C53.5226 38.7514 53.333 38.7106 53.1226 38.7106C52.8989 38.7106 52.7036 38.7571 52.5368 38.85C52.3718 38.941 52.2439 39.0689 52.1529 39.2339C52.0638 39.3988 52.0192 39.5922 52.0192 39.814H51.3481C51.3481 39.4727 51.4268 39.1732 51.5841 38.9154C51.7415 38.6575 51.9557 38.4566 52.2268 38.3125C52.4998 38.1684 52.806 38.0964 53.1453 38.0964C53.4866 38.0964 53.789 38.1684 54.0525 38.3125C54.316 38.4566 54.5227 38.6509 54.6724 38.8955C54.8222 39.14 54.8971 39.4121 54.8971 39.7116C54.8971 39.9259 54.8582 40.1353 54.7805 40.3401C54.7047 40.5429 54.572 40.7695 54.3824 41.0197C54.1947 41.2681 53.934 41.5714 53.6003 41.9297L52.2922 43.3289V43.3744H54.9995V44H51.3253ZM56.6744 43.2549C56.5341 43.2549 56.4138 43.2047 56.3133 43.1042C56.2128 43.0037 56.1626 42.8834 56.1626 42.7431C56.1626 42.6028 56.2128 42.4824 56.3133 42.3819C56.4138 42.2814 56.5341 42.2312 56.6744 42.2312C56.8147 42.2312 56.9351 42.2814 57.0356 42.3819C57.1361 42.4824 57.1863 42.6028 57.1863 42.7431C57.1863 42.836 57.1626 42.9213 57.1152 42.999C57.0697 43.0767 57.0081 43.1393 56.9304 43.1867C56.8545 43.2322 56.7692 43.2549 56.6744 43.2549ZM56.6744 40.3088C56.5341 40.3088 56.4138 40.2586 56.3133 40.1581C56.2128 40.0576 56.1626 39.9372 56.1626 39.7969C56.1626 39.6566 56.2128 39.5363 56.3133 39.4358C56.4138 39.3353 56.5341 39.2851 56.6744 39.2851C56.8147 39.2851 56.9351 39.3353 57.0356 39.4358C57.1361 39.5363 57.1863 39.6566 57.1863 39.7969C57.1863 39.8898 57.1626 39.9751 57.1152 40.0529C57.0697 40.1306 57.0081 40.1932 56.9304 40.2406C56.8545 40.2861 56.7692 40.3088 56.6744 40.3088ZM58.2428 42.8056V42.2255L60.8021 38.176H61.223V39.0746H60.9386L59.0049 42.1345V42.18H62.4515V42.8056H58.2428ZM60.9841 44V42.6293V42.3592V38.176H61.6553V44H60.9841ZM65.3827 44.0796C64.9922 44.0796 64.6471 44.0104 64.3476 43.872C64.0499 43.7317 63.8177 43.5393 63.6509 43.2947C63.484 43.0483 63.4016 42.7677 63.4035 42.453C63.4016 42.2065 63.4499 41.979 63.5485 41.7705C63.6471 41.5601 63.7817 41.3847 63.9523 41.2444C64.1248 41.1022 64.3173 41.0122 64.5296 40.9742V40.9401C64.2509 40.8681 64.0291 40.7117 63.8641 40.4709C63.6992 40.2282 63.6177 39.9524 63.6196 39.6434C63.6177 39.3476 63.6926 39.0832 63.8442 38.85C63.9959 38.6168 64.2045 38.4329 64.4699 38.2983C64.7372 38.1637 65.0415 38.0964 65.3827 38.0964C65.7202 38.0964 66.0216 38.1637 66.287 38.2983C66.5524 38.4329 66.761 38.6168 66.9126 38.85C67.0662 39.0832 67.1439 39.3476 67.1458 39.6434C67.1439 39.9524 67.0596 40.2282 66.8927 40.4709C66.7278 40.7117 66.5088 40.8681 66.2358 40.9401V40.9742C66.4463 41.0122 66.6359 41.1022 66.8046 41.2444C66.9733 41.3847 67.1079 41.5601 67.2084 41.7705C67.3089 41.979 67.3601 42.2065 67.362 42.453C67.3601 42.7677 67.2748 43.0483 67.106 43.2947C66.9392 43.5393 66.707 43.7317 66.4093 43.872C66.1136 44.0104 65.7714 44.0796 65.3827 44.0796ZM65.3827 43.454C65.6462 43.454 65.8737 43.4113 66.0652 43.326C66.2567 43.2407 66.4046 43.1203 66.5088 42.9649C66.6131 42.8094 66.6662 42.6274 66.6681 42.4189C66.6662 42.199 66.6093 42.0046 66.4975 41.8359C66.3856 41.6672 66.233 41.5345 66.0396 41.4378C65.8481 41.3411 65.6292 41.2927 65.3827 41.2927C65.1344 41.2927 64.9125 41.3411 64.7173 41.4378C64.5239 41.5345 64.3713 41.6672 64.2594 41.8359C64.1495 42.0046 64.0954 42.199 64.0973 42.4189C64.0954 42.6274 64.1457 42.8094 64.2481 42.9649C64.3523 43.1203 64.5011 43.2407 64.6945 43.326C64.8879 43.4113 65.1173 43.454 65.3827 43.454ZM65.3827 40.6899C65.5913 40.6899 65.7761 40.6482 65.9372 40.5647C66.1003 40.4813 66.2283 40.3647 66.3211 40.215C66.414 40.0652 66.4614 39.8898 66.4633 39.6889C66.4614 39.4917 66.415 39.3201 66.324 39.1742C66.233 39.0263 66.1069 38.9125 65.9458 38.8329C65.7846 38.7514 65.5969 38.7106 65.3827 38.7106C65.1647 38.7106 64.9742 38.7514 64.8111 38.8329C64.6481 38.9125 64.522 39.0263 64.4329 39.1742C64.3438 39.3201 64.3002 39.4917 64.3021 39.6889C64.3002 39.8898 64.3447 40.0652 64.4357 40.215C64.5286 40.3647 64.6566 40.4813 64.8196 40.5647C64.9827 40.6482 65.1704 40.6899 65.3827 40.6899ZM70.8065 44V38.176H72.7743C73.2312 38.176 73.6047 38.2585 73.8948 38.4234C74.1867 38.5864 74.4029 38.8073 74.5431 39.086C74.6834 39.3647 74.7536 39.6756 74.7536 40.0187C74.7536 40.3619 74.6834 40.6738 74.5431 40.9543C74.4047 41.2349 74.1905 41.4586 73.9005 41.6255C73.6104 41.7904 73.2388 41.8729 72.7857 41.8729H71.3752V41.2472H72.763C73.0758 41.2472 73.327 41.1932 73.5165 41.0852C73.7061 40.9771 73.8436 40.8311 73.9289 40.6472C74.0161 40.4614 74.0597 40.2519 74.0597 40.0187C74.0597 39.7856 74.0161 39.577 73.9289 39.3931C73.8436 39.2092 73.7052 39.0651 73.5137 38.9609C73.3222 38.8547 73.0682 38.8016 72.7516 38.8016H71.5117V44H70.8065ZM75.8897 38.176H76.7314L78.7107 43.0104H78.7789L80.7582 38.176H81.5999V44H80.9402V39.5751H80.8833L79.0633 44H78.4263L76.6063 39.5751H76.5494V44H75.8897V38.176Z" fill="#E0E2FF"/>
<path d="M65.8336 177V155.903H70.294V173.322H79.3384V177H65.8336ZM89.4206 177.309C87.7931 177.309 86.3921 176.979 85.2178 176.32C84.0503 175.654 83.1507 174.713 82.5189 173.498C81.8871 172.275 81.5712 170.83 81.5712 169.161C81.5712 167.533 81.8871 166.105 82.5189 164.876C83.1507 163.646 84.04 162.688 85.1869 162.002C86.3406 161.315 87.6935 160.971 89.2455 160.971C90.2894 160.971 91.2611 161.14 92.1607 161.476C93.0672 161.806 93.857 162.304 94.53 162.97C95.2099 163.636 95.7387 164.474 96.1164 165.483C96.4941 166.486 96.6829 167.66 96.6829 169.006V170.212H83.3224V167.492H92.5522C92.5522 166.86 92.4148 166.301 92.1401 165.813C91.8654 165.325 91.4843 164.944 90.9967 164.67C90.516 164.388 89.9563 164.247 89.3176 164.247C88.6515 164.247 88.0609 164.402 87.5458 164.711C87.0376 165.013 86.6393 165.422 86.3509 165.937C86.0625 166.445 85.9148 167.011 85.9079 167.636V170.222C85.9079 171.005 86.0522 171.681 86.3406 172.251C86.6359 172.821 87.0514 173.261 87.587 173.57C88.1227 173.879 88.7579 174.033 89.4927 174.033C89.9803 174.033 90.4267 173.965 90.8319 173.827C91.2371 173.69 91.5839 173.484 91.8723 173.209C92.1607 172.934 92.3805 172.598 92.5316 172.2L96.5902 172.468C96.3842 173.443 95.9619 174.294 95.3232 175.022C94.6914 175.743 93.8742 176.306 92.8715 176.712C91.8757 177.11 90.7254 177.309 89.4206 177.309ZM107.963 161.177V164.474H98.4341V161.177H107.963ZM100.597 157.387H104.986V172.138C104.986 172.543 105.047 172.859 105.171 173.086C105.295 173.305 105.466 173.46 105.686 173.549C105.913 173.638 106.174 173.683 106.469 173.683C106.675 173.683 106.881 173.666 107.087 173.632C107.293 173.59 107.451 173.559 107.561 173.539L108.251 176.804C108.031 176.873 107.722 176.952 107.324 177.041C106.926 177.137 106.442 177.196 105.872 177.216C104.814 177.258 103.887 177.117 103.09 176.794C102.3 176.471 101.686 175.97 101.246 175.29C100.807 174.61 100.59 173.752 100.597 172.715V157.387ZM113.644 155.903V163.918H110.512V155.903H113.644ZM130.048 165.689L126.031 165.937C125.962 165.593 125.815 165.284 125.588 165.009C125.361 164.728 125.063 164.505 124.692 164.34C124.328 164.168 123.892 164.082 123.383 164.082C122.704 164.082 122.13 164.227 121.663 164.515C121.196 164.797 120.963 165.174 120.963 165.648C120.963 166.026 121.114 166.345 121.416 166.606C121.718 166.867 122.237 167.077 122.971 167.235L125.835 167.811C127.373 168.127 128.52 168.635 129.276 169.336C130.031 170.036 130.409 170.957 130.409 172.097C130.409 173.134 130.103 174.044 129.492 174.826C128.888 175.609 128.057 176.221 126.999 176.66C125.948 177.093 124.736 177.309 123.363 177.309C121.268 177.309 119.6 176.873 118.357 176.001C117.12 175.122 116.396 173.927 116.183 172.416L120.499 172.189C120.63 172.828 120.946 173.316 121.447 173.652C121.948 173.982 122.59 174.147 123.373 174.147C124.142 174.147 124.76 173.999 125.227 173.704C125.701 173.401 125.942 173.013 125.948 172.54C125.942 172.141 125.773 171.815 125.444 171.561C125.114 171.3 124.606 171.101 123.919 170.964L121.179 170.418C119.634 170.109 118.484 169.573 117.728 168.811C116.98 168.048 116.605 167.077 116.605 165.895C116.605 164.879 116.88 164.003 117.429 163.269C117.986 162.534 118.765 161.967 119.768 161.569C120.777 161.171 121.958 160.971 123.311 160.971C125.31 160.971 126.882 161.394 128.029 162.238C129.183 163.083 129.856 164.233 130.048 165.689ZM147.035 177.309C145.414 177.309 144.02 176.966 142.853 176.279C141.692 175.585 140.799 174.624 140.174 173.395C139.556 172.165 139.247 170.751 139.247 169.151C139.247 167.53 139.56 166.108 140.185 164.886C140.816 163.657 141.713 162.699 142.873 162.012C144.034 161.318 145.414 160.971 147.014 160.971C148.395 160.971 149.603 161.222 150.64 161.723C151.677 162.225 152.498 162.929 153.102 163.835C153.707 164.742 154.04 165.806 154.101 167.029H149.96C149.844 166.239 149.535 165.604 149.033 165.123C148.539 164.635 147.89 164.391 147.086 164.391C146.407 164.391 145.812 164.577 145.304 164.948C144.803 165.312 144.412 165.844 144.13 166.544C143.848 167.245 143.708 168.093 143.708 169.089C143.708 170.098 143.845 170.957 144.12 171.664C144.401 172.371 144.796 172.91 145.304 173.281C145.812 173.652 146.407 173.838 147.086 173.838C147.588 173.838 148.038 173.735 148.436 173.529C148.841 173.322 149.174 173.024 149.435 172.632C149.703 172.234 149.878 171.757 149.96 171.2H154.101C154.033 172.409 153.703 173.474 153.113 174.394C152.529 175.307 151.722 176.021 150.692 176.536C149.662 177.052 148.443 177.309 147.035 177.309ZM161.299 167.853V177H156.911V155.903H161.176V163.969H161.361C161.718 163.035 162.295 162.304 163.092 161.775C163.888 161.239 164.888 160.971 166.089 160.971C167.188 160.971 168.146 161.212 168.963 161.693C169.788 162.166 170.426 162.85 170.879 163.742C171.34 164.628 171.566 165.689 171.559 166.925V177H167.171V167.708C167.178 166.733 166.931 165.974 166.429 165.432C165.935 164.889 165.241 164.618 164.349 164.618C163.751 164.618 163.222 164.745 162.762 164.999C162.309 165.253 161.952 165.624 161.691 166.112C161.437 166.592 161.306 167.173 161.299 167.853ZM179.525 177.299C178.515 177.299 177.616 177.124 176.826 176.773C176.036 176.416 175.411 175.891 174.951 175.197C174.498 174.497 174.271 173.625 174.271 172.581C174.271 171.702 174.432 170.964 174.755 170.366C175.078 169.769 175.518 169.288 176.074 168.924C176.63 168.56 177.262 168.285 177.969 168.1C178.683 167.914 179.432 167.784 180.215 167.708C181.135 167.612 181.877 167.523 182.44 167.441C183.003 167.351 183.412 167.221 183.666 167.049C183.92 166.877 184.047 166.623 184.047 166.287V166.225C184.047 165.573 183.841 165.068 183.429 164.711C183.024 164.354 182.447 164.175 181.698 164.175C180.908 164.175 180.28 164.35 179.813 164.7C179.346 165.044 179.037 165.476 178.886 165.998L174.827 165.669C175.033 164.707 175.439 163.876 176.043 163.176C176.647 162.469 177.427 161.926 178.381 161.548C179.343 161.164 180.455 160.971 181.719 160.971C182.598 160.971 183.439 161.074 184.243 161.28C185.053 161.486 185.771 161.806 186.396 162.238C187.027 162.671 187.525 163.227 187.889 163.907C188.253 164.58 188.435 165.387 188.435 166.328V177H184.273V174.806H184.15C183.896 175.3 183.556 175.736 183.13 176.114C182.704 176.485 182.193 176.777 181.595 176.99C180.998 177.196 180.308 177.299 179.525 177.299ZM180.781 174.27C181.427 174.27 181.997 174.143 182.491 173.889C182.986 173.628 183.374 173.278 183.655 172.838C183.937 172.399 184.078 171.901 184.078 171.345V169.666C183.94 169.755 183.752 169.837 183.511 169.913C183.278 169.981 183.013 170.047 182.718 170.109C182.423 170.163 182.127 170.215 181.832 170.263C181.537 170.304 181.269 170.342 181.029 170.376C180.514 170.452 180.064 170.572 179.679 170.737C179.295 170.902 178.996 171.125 178.783 171.406C178.57 171.681 178.464 172.025 178.464 172.437C178.464 173.034 178.68 173.491 179.113 173.807C179.552 174.116 180.108 174.27 180.781 174.27ZM200.256 161.177V164.474H190.727V161.177H200.256ZM192.89 157.387H197.279V172.138C197.279 172.543 197.34 172.859 197.464 173.086C197.588 173.305 197.759 173.46 197.979 173.549C198.206 173.638 198.467 173.683 198.762 173.683C198.968 173.683 199.174 173.666 199.38 173.632C199.586 173.59 199.744 173.559 199.854 173.539L200.544 176.804C200.324 176.873 200.015 176.952 199.617 177.041C199.219 177.137 198.735 177.196 198.165 177.216C197.107 177.258 196.18 177.117 195.383 176.794C194.594 176.471 193.979 175.97 193.539 175.29C193.1 174.61 192.884 173.752 192.89 172.715V157.387Z" fill="white"/>
<path d="M65.4091 210.219V198.582H72.3864V199.832H66.8182V203.764H71.8636V205.014H66.8182V210.219H65.4091ZM74.6179 210.219V201.491H75.9588V210.219H74.6179ZM75.2997 200.037C75.0384 200.037 74.813 199.948 74.6236 199.77C74.438 199.592 74.3452 199.378 74.3452 199.128C74.3452 198.878 74.438 198.664 74.6236 198.486C74.813 198.308 75.0384 198.219 75.2997 198.219C75.5611 198.219 75.7846 198.308 75.9702 198.486C76.1596 198.664 76.2543 198.878 76.2543 199.128C76.2543 199.378 76.1596 199.592 75.9702 199.77C75.7846 199.948 75.5611 200.037 75.2997 200.037ZM79.7557 198.582V210.219H78.4148V198.582H79.7557ZM83.5526 198.582V210.219H82.2116V198.582H83.5526ZM94.054 210.401C93.2661 210.401 92.5748 210.213 91.9801 209.838C91.3892 209.463 90.9271 208.938 90.5938 208.264C90.2642 207.59 90.0994 206.802 90.0994 205.901C90.0994 204.991 90.2642 204.198 90.5938 203.52C90.9271 202.842 91.3892 202.315 91.9801 201.94C92.5748 201.565 93.2661 201.378 94.054 201.378C94.8419 201.378 95.5313 201.565 96.1222 201.94C96.7169 202.315 97.179 202.842 97.5085 203.52C97.8419 204.198 98.0085 204.991 98.0085 205.901C98.0085 206.802 97.8419 207.59 97.5085 208.264C97.179 208.938 96.7169 209.463 96.1222 209.838C95.5313 210.213 94.8419 210.401 94.054 210.401ZM94.054 209.196C94.6525 209.196 95.1449 209.043 95.5312 208.736C95.9176 208.429 96.2036 208.026 96.3892 207.526C96.5748 207.026 96.6676 206.484 96.6676 205.901C96.6676 205.317 96.5748 204.774 96.3892 204.27C96.2036 203.766 95.9176 203.359 95.5312 203.048C95.1449 202.738 94.6525 202.582 94.054 202.582C93.4555 202.582 92.9631 202.738 92.5767 203.048C92.1903 203.359 91.9044 203.766 91.7188 204.27C91.5331 204.774 91.4403 205.317 91.4403 205.901C91.4403 206.484 91.5331 207.026 91.7188 207.526C91.9044 208.026 92.1903 208.429 92.5767 208.736C92.9631 209.043 93.4555 209.196 94.054 209.196ZM105.555 206.651V201.491H106.896V210.219H105.555V208.741H105.464C105.26 209.185 104.942 209.562 104.51 209.872C104.078 210.179 103.533 210.332 102.874 210.332C102.328 210.332 101.843 210.213 101.419 209.974C100.995 209.732 100.661 209.368 100.419 208.884C100.177 208.395 100.055 207.779 100.055 207.037V201.491H101.396V206.946C101.396 207.582 101.574 208.09 101.93 208.469C102.29 208.848 102.749 209.037 103.305 209.037C103.639 209.037 103.978 208.952 104.322 208.781C104.671 208.611 104.963 208.349 105.197 207.997C105.436 207.645 105.555 207.196 105.555 206.651ZM113.148 201.491V202.628H108.625V201.491H113.148ZM109.943 199.401H111.284V207.719C111.284 208.098 111.339 208.382 111.449 208.571C111.563 208.757 111.706 208.882 111.881 208.946C112.059 209.007 112.246 209.037 112.443 209.037C112.591 209.037 112.712 209.029 112.807 209.014C112.902 208.995 112.977 208.98 113.034 208.969L113.307 210.173C113.216 210.207 113.089 210.241 112.926 210.276C112.763 210.313 112.557 210.332 112.307 210.332C111.928 210.332 111.557 210.251 111.193 210.088C110.833 209.925 110.534 209.677 110.295 209.344C110.061 209.01 109.943 208.59 109.943 208.082V199.401ZM123.46 201.491V202.628H118.938V201.491H123.46ZM120.256 199.401H121.597V207.719C121.597 208.098 121.652 208.382 121.761 208.571C121.875 208.757 122.019 208.882 122.193 208.946C122.371 209.007 122.559 209.037 122.756 209.037C122.903 209.037 123.025 209.029 123.119 209.014C123.214 208.995 123.29 208.98 123.347 208.969L123.619 210.173C123.528 210.207 123.402 210.241 123.239 210.276C123.076 210.313 122.869 210.332 122.619 210.332C122.241 210.332 121.869 210.251 121.506 210.088C121.146 209.925 120.847 209.677 120.608 209.344C120.373 209.01 120.256 208.59 120.256 208.082V199.401ZM127.006 204.969V210.219H125.665V198.582H127.006V202.855H127.119C127.324 202.404 127.631 202.046 128.04 201.781C128.453 201.512 129.002 201.378 129.688 201.378C130.282 201.378 130.803 201.497 131.25 201.736C131.697 201.971 132.044 202.332 132.29 202.821C132.54 203.306 132.665 203.923 132.665 204.673V210.219H131.324V204.764C131.324 204.071 131.144 203.535 130.784 203.156C130.428 202.774 129.934 202.582 129.301 202.582C128.862 202.582 128.468 202.675 128.119 202.861C127.775 203.046 127.502 203.317 127.301 203.673C127.104 204.029 127.006 204.461 127.006 204.969ZM138.777 210.401C137.936 210.401 137.211 210.215 136.601 209.844C135.995 209.469 135.527 208.946 135.197 208.276C134.872 207.601 134.709 206.817 134.709 205.923C134.709 205.029 134.872 204.241 135.197 203.56C135.527 202.874 135.985 202.34 136.572 201.957C137.163 201.571 137.853 201.378 138.641 201.378C139.095 201.378 139.544 201.454 139.987 201.605C140.43 201.757 140.834 202.003 141.197 202.344C141.561 202.681 141.851 203.128 142.067 203.685C142.283 204.241 142.391 204.927 142.391 205.741V206.31H135.663V205.151H141.027C141.027 204.658 140.929 204.219 140.732 203.832C140.538 203.446 140.262 203.141 139.902 202.918C139.546 202.694 139.125 202.582 138.641 202.582C138.107 202.582 137.644 202.715 137.254 202.98C136.868 203.241 136.571 203.582 136.362 204.003C136.154 204.423 136.05 204.874 136.05 205.355V206.128C136.05 206.787 136.163 207.346 136.391 207.804C136.622 208.259 136.942 208.605 137.351 208.844C137.76 209.079 138.235 209.196 138.777 209.196C139.129 209.196 139.447 209.147 139.732 209.048C140.019 208.946 140.268 208.795 140.476 208.594C140.684 208.389 140.845 208.135 140.959 207.832L142.254 208.196C142.118 208.635 141.889 209.022 141.567 209.355C141.245 209.685 140.847 209.942 140.374 210.128C139.9 210.31 139.368 210.401 138.777 210.401ZM152.817 201.491V202.628H148.112V201.491H152.817ZM149.521 210.219V200.287C149.521 199.787 149.639 199.37 149.874 199.037C150.108 198.704 150.413 198.454 150.788 198.287C151.163 198.12 151.559 198.037 151.976 198.037C152.305 198.037 152.574 198.063 152.783 198.116C152.991 198.17 153.146 198.219 153.249 198.264L152.862 199.423C152.794 199.401 152.699 199.372 152.578 199.338C152.461 199.304 152.305 199.287 152.112 199.287C151.669 199.287 151.349 199.399 151.152 199.622C150.959 199.846 150.862 200.173 150.862 200.605V210.219H149.521ZM157.882 210.401C157.094 210.401 156.403 210.213 155.808 209.838C155.217 209.463 154.755 208.938 154.422 208.264C154.092 207.59 153.928 206.802 153.928 205.901C153.928 204.991 154.092 204.198 154.422 203.52C154.755 202.842 155.217 202.315 155.808 201.94C156.403 201.565 157.094 201.378 157.882 201.378C158.67 201.378 159.359 201.565 159.95 201.94C160.545 202.315 161.007 202.842 161.337 203.52C161.67 204.198 161.837 204.991 161.837 205.901C161.837 206.802 161.67 207.59 161.337 208.264C161.007 208.938 160.545 209.463 159.95 209.838C159.359 210.213 158.67 210.401 157.882 210.401ZM157.882 209.196C158.481 209.196 158.973 209.043 159.359 208.736C159.746 208.429 160.032 208.026 160.217 207.526C160.403 207.026 160.496 206.484 160.496 205.901C160.496 205.317 160.403 204.774 160.217 204.27C160.032 203.766 159.746 203.359 159.359 203.048C158.973 202.738 158.481 202.582 157.882 202.582C157.284 202.582 156.791 202.738 156.405 203.048C156.018 203.359 155.732 203.766 155.547 204.27C155.361 204.774 155.268 205.317 155.268 205.901C155.268 206.484 155.361 207.026 155.547 207.526C155.732 208.026 156.018 208.429 156.405 208.736C156.791 209.043 157.284 209.196 157.882 209.196ZM163.884 210.219V201.491H165.179V202.81H165.27C165.429 202.378 165.717 202.027 166.134 201.759C166.55 201.49 167.02 201.355 167.543 201.355C167.641 201.355 167.764 201.357 167.912 201.361C168.06 201.365 168.171 201.37 168.247 201.378V202.741C168.202 202.73 168.098 202.713 167.935 202.69C167.776 202.664 167.607 202.651 167.429 202.651C167.005 202.651 166.626 202.74 166.293 202.918C165.963 203.092 165.702 203.334 165.509 203.645C165.319 203.952 165.224 204.302 165.224 204.696V210.219H163.884ZM169.837 210.219V201.491H171.132V202.855H171.246C171.428 202.389 171.721 202.027 172.126 201.77C172.532 201.509 173.018 201.378 173.587 201.378C174.162 201.378 174.642 201.509 175.024 201.77C175.411 202.027 175.712 202.389 175.928 202.855H176.018C176.242 202.404 176.577 202.046 177.024 201.781C177.471 201.512 178.007 201.378 178.632 201.378C179.412 201.378 180.051 201.622 180.547 202.111C181.043 202.596 181.291 203.351 181.291 204.378V210.219H179.95V204.378C179.95 203.734 179.774 203.274 179.422 202.997C179.07 202.721 178.655 202.582 178.178 202.582C177.564 202.582 177.089 202.768 176.751 203.139C176.414 203.507 176.246 203.973 176.246 204.537V210.219H174.882V204.241C174.882 203.745 174.721 203.346 174.399 203.043C174.077 202.736 173.662 202.582 173.155 202.582C172.806 202.582 172.481 202.675 172.178 202.861C171.878 203.046 171.636 203.304 171.45 203.634C171.268 203.959 171.178 204.336 171.178 204.764V210.219H169.837ZM190.811 210.423C190.258 210.423 189.756 210.319 189.305 210.111C188.855 209.899 188.497 209.594 188.232 209.196C187.966 208.795 187.834 208.31 187.834 207.741C187.834 207.241 187.932 206.836 188.129 206.526C188.326 206.211 188.589 205.965 188.919 205.787C189.249 205.609 189.612 205.476 190.01 205.389C190.411 205.298 190.815 205.226 191.22 205.173C191.75 205.105 192.18 205.054 192.51 205.02C192.843 204.982 193.086 204.92 193.237 204.832C193.393 204.745 193.47 204.594 193.47 204.378V204.332C193.47 203.772 193.317 203.336 193.01 203.026C192.707 202.715 192.247 202.56 191.629 202.56C190.989 202.56 190.487 202.7 190.124 202.98C189.76 203.26 189.504 203.56 189.357 203.878L188.084 203.423C188.311 202.893 188.614 202.48 188.993 202.185C189.375 201.885 189.792 201.677 190.243 201.56C190.697 201.438 191.144 201.378 191.584 201.378C191.864 201.378 192.186 201.412 192.55 201.48C192.917 201.545 193.271 201.679 193.612 201.884C193.957 202.088 194.243 202.397 194.47 202.81C194.697 203.223 194.811 203.776 194.811 204.469V210.219H193.47V209.037H193.402C193.311 209.226 193.16 209.429 192.947 209.645C192.735 209.861 192.453 210.045 192.101 210.196C191.749 210.348 191.319 210.423 190.811 210.423ZM191.016 209.219C191.546 209.219 191.993 209.115 192.357 208.906C192.724 208.698 193 208.429 193.186 208.099C193.375 207.77 193.47 207.423 193.47 207.06V205.832C193.413 205.901 193.288 205.963 193.095 206.02C192.906 206.073 192.686 206.12 192.436 206.162C192.19 206.2 191.949 206.234 191.714 206.264C191.483 206.291 191.296 206.313 191.152 206.332C190.804 206.378 190.478 206.452 190.175 206.554C189.875 206.652 189.633 206.802 189.447 207.003C189.266 207.2 189.175 207.469 189.175 207.81C189.175 208.276 189.347 208.628 189.692 208.866C190.04 209.101 190.482 209.219 191.016 209.219ZM198.599 204.969V210.219H197.259V201.491H198.554V202.855H198.668C198.872 202.412 199.183 202.056 199.599 201.787C200.016 201.514 200.554 201.378 201.213 201.378C201.804 201.378 202.321 201.499 202.764 201.741C203.207 201.98 203.552 202.344 203.798 202.832C204.045 203.317 204.168 203.931 204.168 204.673V210.219H202.827V204.764C202.827 204.079 202.649 203.545 202.293 203.162C201.937 202.776 201.448 202.582 200.827 202.582C200.399 202.582 200.016 202.675 199.679 202.861C199.346 203.046 199.082 203.317 198.889 203.673C198.696 204.029 198.599 204.461 198.599 204.969ZM209.913 210.401C209.186 210.401 208.544 210.217 207.987 209.849C207.43 209.478 206.995 208.955 206.68 208.281C206.366 207.603 206.209 206.802 206.209 205.878C206.209 204.961 206.366 204.166 206.68 203.491C206.995 202.817 207.432 202.296 207.993 201.929C208.554 201.562 209.201 201.378 209.936 201.378C210.504 201.378 210.953 201.473 211.283 201.662C211.616 201.848 211.87 202.06 212.044 202.298C212.222 202.533 212.36 202.726 212.459 202.878H212.572V198.582H213.913V210.219H212.618V208.878H212.459C212.36 209.037 212.22 209.238 212.038 209.48C211.857 209.719 211.597 209.933 211.26 210.122C210.923 210.308 210.474 210.401 209.913 210.401ZM210.095 209.196C210.633 209.196 211.088 209.056 211.459 208.776C211.83 208.491 212.112 208.099 212.305 207.599C212.499 207.096 212.595 206.514 212.595 205.855C212.595 205.204 212.5 204.634 212.311 204.145C212.122 203.652 211.841 203.27 211.47 202.997C211.099 202.721 210.641 202.582 210.095 202.582C209.527 202.582 209.054 202.728 208.675 203.02C208.3 203.308 208.018 203.7 207.828 204.196C207.643 204.688 207.55 205.241 207.55 205.855C207.55 206.476 207.644 207.041 207.834 207.548C208.027 208.052 208.311 208.454 208.686 208.753C209.065 209.048 209.535 209.196 210.095 209.196ZM223.033 210.219L220.374 201.491H221.783L223.669 208.173H223.76L225.624 201.491H227.055L228.896 208.151H228.987L230.874 201.491H232.283L229.624 210.219H228.305L226.396 203.514H226.26L224.351 210.219H223.033ZM237.418 210.401C236.577 210.401 235.851 210.215 235.241 209.844C234.635 209.469 234.168 208.946 233.838 208.276C233.512 207.601 233.349 206.817 233.349 205.923C233.349 205.029 233.512 204.241 233.838 203.56C234.168 202.874 234.626 202.34 235.213 201.957C235.804 201.571 236.493 201.378 237.281 201.378C237.736 201.378 238.185 201.454 238.628 201.605C239.071 201.757 239.474 202.003 239.838 202.344C240.202 202.681 240.491 203.128 240.707 203.685C240.923 204.241 241.031 204.927 241.031 205.741V206.31H234.304V205.151H239.668C239.668 204.658 239.569 204.219 239.372 203.832C239.179 203.446 238.902 203.141 238.543 202.918C238.187 202.694 237.766 202.582 237.281 202.582C236.747 202.582 236.285 202.715 235.895 202.98C235.509 203.241 235.211 203.582 235.003 204.003C234.795 204.423 234.69 204.874 234.69 205.355V206.128C234.69 206.787 234.804 207.346 235.031 207.804C235.262 208.259 235.582 208.605 235.991 208.844C236.401 209.079 236.876 209.196 237.418 209.196C237.77 209.196 238.088 209.147 238.372 209.048C238.66 208.946 238.908 208.795 239.116 208.594C239.325 208.389 239.486 208.135 239.599 207.832L240.895 208.196C240.759 208.635 240.529 209.022 240.207 209.355C239.885 209.685 239.488 209.942 239.014 210.128C238.541 210.31 238.009 210.401 237.418 210.401ZM244.23 198.582V202.582H242.98V198.582H244.23ZM247.959 198.582V210.219H246.618V198.582H247.959ZM251.756 198.582V210.219H250.415V198.582H251.756ZM258.893 210.219V198.582H260.234V202.878H260.348C260.446 202.726 260.583 202.533 260.757 202.298C260.935 202.06 261.189 201.848 261.518 201.662C261.852 201.473 262.303 201.378 262.871 201.378C263.606 201.378 264.253 201.562 264.814 201.929C265.375 202.296 265.812 202.817 266.126 203.491C266.441 204.166 266.598 204.961 266.598 205.878C266.598 206.802 266.441 207.603 266.126 208.281C265.812 208.955 265.376 209.478 264.82 209.849C264.263 210.217 263.621 210.401 262.893 210.401C262.333 210.401 261.884 210.308 261.547 210.122C261.21 209.933 260.95 209.719 260.768 209.48C260.587 209.238 260.446 209.037 260.348 208.878H260.189V210.219H258.893ZM260.212 205.855C260.212 206.514 260.308 207.096 260.501 207.599C260.695 208.099 260.977 208.491 261.348 208.776C261.719 209.056 262.174 209.196 262.712 209.196C263.272 209.196 263.74 209.048 264.115 208.753C264.494 208.454 264.778 208.052 264.967 207.548C265.161 207.041 265.257 206.476 265.257 205.855C265.257 205.241 265.162 204.688 264.973 204.196C264.787 203.7 264.505 203.308 264.126 203.02C263.751 202.728 263.28 202.582 262.712 202.582C262.166 202.582 261.708 202.721 261.337 202.997C260.965 203.27 260.685 203.652 260.496 204.145C260.306 204.634 260.212 205.204 260.212 205.855ZM272.308 210.401C271.467 210.401 270.742 210.215 270.132 209.844C269.526 209.469 269.058 208.946 268.729 208.276C268.403 207.601 268.24 206.817 268.24 205.923C268.24 205.029 268.403 204.241 268.729 203.56C269.058 202.874 269.517 202.34 270.104 201.957C270.695 201.571 271.384 201.378 272.172 201.378C272.626 201.378 273.075 201.454 273.518 201.605C273.962 201.757 274.365 202.003 274.729 202.344C275.092 202.681 275.382 203.128 275.598 203.685C275.814 204.241 275.922 204.927 275.922 205.741V206.31H269.195V205.151H274.558C274.558 204.658 274.46 204.219 274.263 203.832C274.07 203.446 273.793 203.141 273.433 202.918C273.077 202.694 272.657 202.582 272.172 202.582C271.638 202.582 271.176 202.715 270.786 202.98C270.399 203.241 270.102 203.582 269.893 204.003C269.685 204.423 269.581 204.874 269.581 205.355V206.128C269.581 206.787 269.695 207.346 269.922 207.804C270.153 208.259 270.473 208.605 270.882 208.844C271.291 209.079 271.767 209.196 272.308 209.196C272.661 209.196 272.979 209.147 273.263 209.048C273.551 208.946 273.799 208.795 274.007 208.594C274.215 208.389 274.376 208.135 274.49 207.832L275.786 208.196C275.649 208.635 275.42 209.022 275.098 209.355C274.776 209.685 274.378 209.942 273.905 210.128C273.431 210.31 272.899 210.401 272.308 210.401ZM65.2273 234.219V225.491H66.5682V234.219H65.2273ZM65.9091 224.037C65.6477 224.037 65.4223 223.948 65.233 223.77C65.0473 223.592 64.9545 223.378 64.9545 223.128C64.9545 222.878 65.0473 222.664 65.233 222.486C65.4223 222.308 65.6477 222.219 65.9091 222.219C66.1705 222.219 66.3939 222.308 66.5795 222.486C66.7689 222.664 66.8636 222.878 66.8636 223.128C66.8636 223.378 66.7689 223.592 66.5795 223.77C66.3939 223.948 66.1705 224.037 65.9091 224.037ZM70.3651 228.969V234.219H69.0241V225.491H70.3196V226.855H70.4332C70.6378 226.412 70.9484 226.056 71.3651 225.787C71.7817 225.514 72.3196 225.378 72.9787 225.378C73.5696 225.378 74.0866 225.499 74.5298 225.741C74.973 225.98 75.3177 226.344 75.5639 226.832C75.8101 227.317 75.9332 227.931 75.9332 228.673V234.219H74.5923V228.764C74.5923 228.079 74.4143 227.545 74.0582 227.162C73.7022 226.776 73.2135 226.582 72.5923 226.582C72.1643 226.582 71.7817 226.675 71.4446 226.861C71.1113 227.046 70.848 227.317 70.6548 227.673C70.4616 228.029 70.3651 228.461 70.3651 228.969ZM86.679 225.491V226.628H82.1562V225.491H86.679ZM83.4744 223.401H84.8153V231.719C84.8153 232.098 84.8703 232.382 84.9801 232.571C85.0938 232.757 85.2377 232.882 85.4119 232.946C85.59 233.007 85.7775 233.037 85.9744 233.037C86.1222 233.037 86.2434 233.029 86.3381 233.014C86.4328 232.995 86.5085 232.98 86.5653 232.969L86.8381 234.173C86.7472 234.207 86.6203 234.241 86.4574 234.276C86.2945 234.313 86.0881 234.332 85.8381 234.332C85.4593 234.332 85.0881 234.251 84.7244 234.088C84.3646 233.925 84.0653 233.677 83.8267 233.344C83.5919 233.01 83.4744 232.59 83.4744 232.082V223.401ZM92.1477 234.401C91.3598 234.401 90.6686 234.213 90.0739 233.838C89.483 233.463 89.0208 232.938 88.6875 232.264C88.358 231.59 88.1932 230.802 88.1932 229.901C88.1932 228.991 88.358 228.198 88.6875 227.52C89.0208 226.842 89.483 226.315 90.0739 225.94C90.6686 225.565 91.3598 225.378 92.1477 225.378C92.9356 225.378 93.625 225.565 94.2159 225.94C94.8106 226.315 95.2727 226.842 95.6023 227.52C95.9356 228.198 96.1023 228.991 96.1023 229.901C96.1023 230.802 95.9356 231.59 95.6023 232.264C95.2727 232.938 94.8106 233.463 94.2159 233.838C93.625 234.213 92.9356 234.401 92.1477 234.401ZM92.1477 233.196C92.7462 233.196 93.2386 233.043 93.625 232.736C94.0114 232.429 94.2973 232.026 94.483 231.526C94.6686 231.026 94.7614 230.484 94.7614 229.901C94.7614 229.317 94.6686 228.774 94.483 228.27C94.2973 227.766 94.0114 227.359 93.625 227.048C93.2386 226.738 92.7462 226.582 92.1477 226.582C91.5492 226.582 91.0568 226.738 90.6705 227.048C90.2841 227.359 89.9981 227.766 89.8125 228.27C89.6269 228.774 89.5341 229.317 89.5341 229.901C89.5341 230.484 89.6269 231.026 89.8125 231.526C89.9981 232.026 90.2841 232.429 90.6705 232.736C91.0568 233.043 91.5492 233.196 92.1477 233.196ZM103.649 230.651V225.491H104.99V234.219H103.649V232.741H103.558C103.354 233.185 103.036 233.562 102.604 233.872C102.172 234.179 101.626 234.332 100.967 234.332C100.422 234.332 99.937 234.213 99.5128 233.974C99.0885 233.732 98.7552 233.368 98.5128 232.884C98.2704 232.395 98.1491 231.779 98.1491 231.037V225.491H99.4901V230.946C99.4901 231.582 99.6681 232.09 100.024 232.469C100.384 232.848 100.842 233.037 101.399 233.037C101.732 233.037 102.071 232.952 102.416 232.781C102.765 232.611 103.056 232.349 103.291 231.997C103.53 231.645 103.649 231.196 103.649 230.651ZM110.991 234.401C110.173 234.401 109.469 234.207 108.878 233.821C108.287 233.435 107.832 232.902 107.514 232.224C107.196 231.546 107.037 230.772 107.037 229.901C107.037 229.014 107.2 228.232 107.526 227.554C107.855 226.872 108.313 226.34 108.901 225.957C109.491 225.571 110.181 225.378 110.969 225.378C111.582 225.378 112.135 225.491 112.628 225.719C113.12 225.946 113.524 226.264 113.838 226.673C114.152 227.082 114.348 227.56 114.423 228.105H113.082C112.98 227.707 112.753 227.355 112.401 227.048C112.052 226.738 111.582 226.582 110.991 226.582C110.469 226.582 110.01 226.719 109.616 226.991C109.226 227.26 108.921 227.641 108.702 228.134C108.486 228.622 108.378 229.196 108.378 229.855C108.378 230.529 108.484 231.116 108.696 231.616C108.912 232.116 109.215 232.505 109.605 232.781C109.999 233.058 110.461 233.196 110.991 233.196C111.34 233.196 111.656 233.135 111.94 233.014C112.224 232.893 112.465 232.719 112.662 232.491C112.859 232.264 112.999 231.991 113.082 231.673H114.423C114.348 232.188 114.16 232.652 113.861 233.065C113.565 233.474 113.173 233.8 112.685 234.043C112.2 234.281 111.635 234.401 110.991 234.401ZM117.724 228.969V234.219H116.384V222.582H117.724V226.855H117.838C118.043 226.404 118.349 226.046 118.759 225.781C119.171 225.512 119.721 225.378 120.406 225.378C121.001 225.378 121.522 225.497 121.969 225.736C122.416 225.971 122.762 226.332 123.009 226.821C123.259 227.306 123.384 227.923 123.384 228.673V234.219H122.043V228.764C122.043 228.071 121.863 227.535 121.503 227.156C121.147 226.774 120.652 226.582 120.02 226.582C119.58 226.582 119.187 226.675 118.838 226.861C118.493 227.046 118.221 227.317 118.02 227.673C117.823 228.029 117.724 228.461 117.724 228.969ZM136.518 227.446L135.314 227.787C135.238 227.586 135.126 227.391 134.979 227.202C134.835 227.009 134.638 226.849 134.388 226.724C134.138 226.599 133.818 226.537 133.428 226.537C132.893 226.537 132.448 226.66 132.092 226.906C131.74 227.149 131.564 227.457 131.564 227.832C131.564 228.166 131.685 228.429 131.928 228.622C132.17 228.815 132.549 228.976 133.064 229.105L134.359 229.423C135.14 229.613 135.721 229.902 136.104 230.293C136.486 230.679 136.678 231.177 136.678 231.787C136.678 232.287 136.534 232.734 136.246 233.128C135.962 233.522 135.564 233.832 135.053 234.06C134.541 234.287 133.946 234.401 133.268 234.401C132.378 234.401 131.642 234.207 131.058 233.821C130.475 233.435 130.106 232.87 129.95 232.128L131.223 231.81C131.344 232.279 131.573 232.632 131.911 232.866C132.251 233.101 132.696 233.219 133.246 233.219C133.871 233.219 134.367 233.086 134.734 232.821C135.106 232.552 135.291 232.23 135.291 231.855C135.291 231.552 135.185 231.298 134.973 231.094C134.761 230.885 134.435 230.73 133.996 230.628L132.541 230.287C131.742 230.098 131.155 229.804 130.78 229.406C130.409 229.005 130.223 228.503 130.223 227.901C130.223 227.408 130.361 226.973 130.638 226.594C130.918 226.215 131.299 225.918 131.78 225.702C132.265 225.486 132.814 225.378 133.428 225.378C134.291 225.378 134.969 225.567 135.462 225.946C135.958 226.325 136.31 226.825 136.518 227.446ZM142.241 234.401C141.454 234.401 140.762 234.213 140.168 233.838C139.577 233.463 139.115 232.938 138.781 232.264C138.452 231.59 138.287 230.802 138.287 229.901C138.287 228.991 138.452 228.198 138.781 227.52C139.115 226.842 139.577 226.315 140.168 225.94C140.762 225.565 141.454 225.378 142.241 225.378C143.029 225.378 143.719 225.565 144.31 225.94C144.904 226.315 145.366 226.842 145.696 227.52C146.029 228.198 146.196 228.991 146.196 229.901C146.196 230.802 146.029 231.59 145.696 232.264C145.366 232.938 144.904 233.463 144.31 233.838C143.719 234.213 143.029 234.401 142.241 234.401ZM142.241 233.196C142.84 233.196 143.332 233.043 143.719 232.736C144.105 232.429 144.391 232.026 144.577 231.526C144.762 231.026 144.855 230.484 144.855 229.901C144.855 229.317 144.762 228.774 144.577 228.27C144.391 227.766 144.105 227.359 143.719 227.048C143.332 226.738 142.84 226.582 142.241 226.582C141.643 226.582 141.151 226.738 140.764 227.048C140.378 227.359 140.092 227.766 139.906 228.27C139.721 228.774 139.628 229.317 139.628 229.901C139.628 230.484 139.721 231.026 139.906 231.526C140.092 232.026 140.378 232.429 140.764 232.736C141.151 233.043 141.643 233.196 142.241 233.196ZM151.788 234.401C151 234.401 150.309 234.213 149.714 233.838C149.124 233.463 148.661 232.938 148.328 232.264C147.999 231.59 147.834 230.802 147.834 229.901C147.834 228.991 147.999 228.198 148.328 227.52C148.661 226.842 149.124 226.315 149.714 225.94C150.309 225.565 151 225.378 151.788 225.378C152.576 225.378 153.266 225.565 153.857 225.94C154.451 226.315 154.913 226.842 155.243 227.52C155.576 228.198 155.743 228.991 155.743 229.901C155.743 230.802 155.576 231.59 155.243 232.264C154.913 232.938 154.451 233.463 153.857 233.838C153.266 234.213 152.576 234.401 151.788 234.401ZM151.788 233.196C152.387 233.196 152.879 233.043 153.266 232.736C153.652 232.429 153.938 232.026 154.124 231.526C154.309 231.026 154.402 230.484 154.402 229.901C154.402 229.317 154.309 228.774 154.124 228.27C153.938 227.766 153.652 227.359 153.266 227.048C152.879 226.738 152.387 226.582 151.788 226.582C151.19 226.582 150.697 226.738 150.311 227.048C149.925 227.359 149.639 227.766 149.453 228.27C149.268 228.774 149.175 229.317 149.175 229.901C149.175 230.484 149.268 231.026 149.453 231.526C149.639 232.026 149.925 232.429 150.311 232.736C150.697 233.043 151.19 233.196 151.788 233.196ZM159.131 228.969V234.219H157.79V225.491H159.085V226.855H159.199C159.403 226.412 159.714 226.056 160.131 225.787C160.547 225.514 161.085 225.378 161.744 225.378C162.335 225.378 162.852 225.499 163.295 225.741C163.739 225.98 164.083 226.344 164.33 226.832C164.576 227.317 164.699 227.931 164.699 228.673V234.219H163.358V228.764C163.358 228.079 163.18 227.545 162.824 227.162C162.468 226.776 161.979 226.582 161.358 226.582C160.93 226.582 160.547 226.675 160.21 226.861C159.877 227.046 159.614 227.317 159.42 227.673C159.227 228.029 159.131 228.461 159.131 228.969ZM168.126 234.31C167.846 234.31 167.606 234.209 167.405 234.009C167.204 233.808 167.104 233.567 167.104 233.287C167.104 233.007 167.204 232.766 167.405 232.565C167.606 232.365 167.846 232.264 168.126 232.264C168.407 232.264 168.647 232.365 168.848 232.565C169.049 232.766 169.149 233.007 169.149 233.287C169.149 233.473 169.102 233.643 169.007 233.798C168.916 233.954 168.793 234.079 168.638 234.173C168.486 234.264 168.316 234.31 168.126 234.31Z" fill="white"/>
<rect width="222" height="52.3906" transform="translate(64 373.219)" fill="#055B89"/>
<path d="M148.768 394.2V405.109H146.775L142.029 398.243H141.949V405.109H139.643V394.2H141.667L146.376 401.061H146.472V394.2H148.768ZM152.593 405.109V394.2H159.944V396.102H154.9V398.701H159.566V400.603H154.9V403.208H159.965V405.109H152.593ZM165.86 394.2L168.06 397.918H168.146L170.356 394.2H172.961L169.632 399.655L173.035 405.109H170.383L168.146 401.386H168.06L165.823 405.109H163.181L166.595 399.655L163.245 394.2H165.86ZM175.925 396.102V394.2H184.884V396.102H181.545V405.109H179.265V396.102H175.925Z" fill="white"/>
<g clip-path="url(#clip1_379_900)">
<path d="M227.901 394.614C227.466 394.354 226.945 394.441 226.684 394.788C226.423 395.223 226.51 395.744 226.858 396.005L231.03 398.873H220.166C219.645 398.873 219.297 399.221 219.297 399.742C219.297 400.264 219.645 400.611 220.166 400.611H231.03L226.858 403.479C226.423 403.74 226.336 404.261 226.597 404.696C226.771 404.957 227.032 405.044 227.292 405.044C227.466 405.044 227.64 404.957 227.814 404.87L235.288 399.742L227.901 394.614Z" fill="white"/>
</g>
<rect x="64" y="257.219" width="222" height="42" rx="21" fill="white"/>
<path d="M85.233 282.219V272.037H91.3778V273.131H86.4659V276.571H91.0597V277.665H86.4659V281.125H91.4574V282.219H85.233ZM93.6001 272.037H95.0717L98.532 280.489H98.6513L102.112 272.037H103.583V282.219H102.43V274.483H102.33L99.1484 282.219H98.0348L94.853 274.483H94.7536V282.219H93.6001V272.037ZM106.473 282.219H105.18L108.919 272.037H110.192L113.93 282.219H112.638L109.595 273.648H109.515L106.473 282.219ZM106.95 278.241H112.16V279.335H106.95V278.241ZM116.749 272.037V282.219H115.516V272.037H116.749ZM119.221 282.219V272.037H120.454V281.125H125.187V282.219H119.221Z" fill="#5E6468"/>
<rect x="64" y="315.219" width="222" height="42" rx="21" fill="white"/>
<path d="M94.0994 332.719H92.7784C92.7003 332.339 92.5636 332.005 92.3683 331.717C92.1765 331.43 91.9421 331.188 91.6651 330.993C91.3917 330.794 91.0881 330.645 90.7543 330.545C90.4205 330.446 90.0724 330.396 89.7102 330.396C89.0497 330.396 88.4513 330.563 87.9151 330.897C87.3825 331.231 86.9581 331.723 86.642 332.373C86.3295 333.022 86.1733 333.82 86.1733 334.764C86.1733 335.709 86.3295 336.506 86.642 337.156C86.9581 337.806 87.3825 338.298 87.9151 338.631C88.4513 338.965 89.0497 339.132 89.7102 339.132C90.0724 339.132 90.4205 339.082 90.7543 338.983C91.0881 338.884 91.3917 338.736 91.6651 338.541C91.9421 338.342 92.1765 338.099 92.3683 337.811C92.5636 337.52 92.7003 337.186 92.7784 336.81H94.0994C94 337.367 93.8189 337.866 93.5561 338.306C93.2933 338.747 92.9666 339.121 92.576 339.43C92.1854 339.736 91.7468 339.968 91.2603 340.128C90.7773 340.288 90.2607 340.368 89.7102 340.368C88.7798 340.368 87.9524 340.141 87.228 339.686C86.5036 339.232 85.9336 338.585 85.5181 337.747C85.1026 336.909 84.8949 335.915 84.8949 334.764C84.8949 333.614 85.1026 332.619 85.5181 331.781C85.9336 330.943 86.5036 330.297 87.228 329.842C87.9524 329.388 88.7798 329.161 89.7102 329.161C90.2607 329.161 90.7773 329.24 91.2603 329.4C91.7468 329.56 92.1854 329.794 92.576 330.103C92.9666 330.409 93.2933 330.782 93.5561 331.222C93.8189 331.659 94 332.158 94.0994 332.719ZM105.439 334.764C105.439 335.915 105.231 336.909 104.815 337.747C104.4 338.585 103.83 339.232 103.106 339.686C102.381 340.141 101.554 340.368 100.623 340.368C99.6929 340.368 98.8655 340.141 98.1411 339.686C97.4166 339.232 96.8467 338.585 96.4312 337.747C96.0157 336.909 95.808 335.915 95.808 334.764C95.808 333.614 96.0157 332.619 96.4312 331.781C96.8467 330.943 97.4166 330.297 98.1411 329.842C98.8655 329.388 99.6929 329.161 100.623 329.161C101.554 329.161 102.381 329.388 103.106 329.842C103.83 330.297 104.4 330.943 104.815 331.781C105.231 332.619 105.439 333.614 105.439 334.764ZM104.16 334.764C104.16 333.82 104.002 333.022 103.686 332.373C103.374 331.723 102.949 331.231 102.413 330.897C101.88 330.563 101.284 330.396 100.623 330.396C99.9628 330.396 99.3644 330.563 98.8282 330.897C98.2955 331.231 97.8712 331.723 97.5551 332.373C97.2426 333.022 97.0864 333.82 97.0864 334.764C97.0864 335.709 97.2426 336.506 97.5551 337.156C97.8712 337.806 98.2955 338.298 98.8282 338.631C99.3644 338.965 99.9628 339.132 100.623 339.132C101.284 339.132 101.88 338.965 102.413 338.631C102.949 338.298 103.374 337.806 103.686 337.156C104.002 336.506 104.16 335.709 104.16 334.764ZM107.66 329.31H109.237L112.944 338.365H113.072L116.779 329.31H118.356V340.219H117.12V331.93H117.014L113.604 340.219H112.411L109.002 331.93H108.896V340.219H107.66V329.31ZM121.005 340.219V329.31H124.691C125.547 329.31 126.246 329.464 126.789 329.773C127.336 330.078 127.741 330.492 128.004 331.014C128.267 331.536 128.398 332.119 128.398 332.761C128.398 333.404 128.267 333.988 128.004 334.514C127.745 335.039 127.343 335.458 126.8 335.771C126.257 336.08 125.561 336.234 124.712 336.234H122.07V335.062H124.669C125.255 335.062 125.726 334.961 126.081 334.759C126.436 334.556 126.694 334.283 126.853 333.939C127.017 333.591 127.098 333.198 127.098 332.761C127.098 332.325 127.017 331.934 126.853 331.589C126.694 331.245 126.434 330.975 126.076 330.78C125.717 330.581 125.241 330.482 124.648 330.482H122.326V340.219H121.005ZM129.86 340.219H128.475L132.481 329.31H133.845L137.85 340.219H136.465L133.205 331.036H133.12L129.86 340.219ZM130.372 335.957H135.954V337.129H130.372V335.957ZM148.2 329.31V340.219H146.922L140.977 331.653H140.871V340.219H139.55V329.31H140.828L146.794 337.896H146.9V329.31H148.2ZM149.906 329.31H151.419L154.444 334.402H154.572L157.598 329.31H159.111L155.169 335.723V340.219H153.848V335.723L149.906 329.31Z" fill="#5E6468"/>
<defs>
<linearGradient id="paint0_linear_379_900" x1="347.531" y1="163.914" x2="347.531" y2="241.234" gradientUnits="userSpaceOnUse">
<stop stop-color="#CBCBCB" stop-opacity="0.275"/>
<stop offset="0.04" stop-color="#CBCBCB"/>
<stop offset="0.96" stop-color="#CBCBCB"/>
<stop offset="1" stop-color="#CBCBCB" stop-opacity="0.276"/>
</linearGradient>
<linearGradient id="paint1_linear_379_900" x1="2.4692" y1="96.4922" x2="2.4692" y2="120.788" gradientUnits="userSpaceOnUse">
<stop stop-color="#CBCBCB" stop-opacity="0.275"/>
<stop offset="0.05" stop-color="#CBCBCB"/>
<stop offset="0.95" stop-color="#CBCBCB"/>
<stop offset="1" stop-color="#CBCBCB" stop-opacity="0.276"/>
</linearGradient>
<linearGradient id="paint2_linear_379_900" x1="2.46774" y1="1.47852" x2="2.46774" y2="49.2843" gradientUnits="userSpaceOnUse">
<stop stop-color="#CBCBCB" stop-opacity="0.275"/>
<stop offset="0.05" stop-color="#CBCBCB"/>
<stop offset="0.95" stop-color="#CBCBCB"/>
<stop offset="1" stop-color="#CBCBCB" stop-opacity="0.276"/>
</linearGradient>
<linearGradient id="paint3_linear_379_900" x1="2.4692" y1="211.15" x2="2.4692" y2="258.956" gradientUnits="userSpaceOnUse">
<stop stop-color="#CBCBCB" stop-opacity="0.275"/>
<stop offset="0.05" stop-color="#CBCBCB"/>
<stop offset="0.95" stop-color="#CBCBCB"/>
<stop offset="1" stop-color="#CBCBCB" stop-opacity="0.276"/>
</linearGradient>
<linearGradient id="paint4_linear_379_900" x1="330.77" y1="351.089" x2="339.444" y2="351.089" gradientUnits="userSpaceOnUse">
<stop stop-color="#404040"/>
<stop offset="0.6" stop-color="#838383"/>
<stop offset="1" stop-color="#A7A7A7"/>
</linearGradient>
<linearGradient id="paint5_linear_379_900" x1="19.2299" y1="351.087" x2="10.5558" y2="351.087" gradientUnits="userSpaceOnUse">
<stop stop-color="#404040"/>
<stop offset="0.6" stop-color="#838383"/>
<stop offset="1" stop-color="#A7A7A7"/>
</linearGradient>
<linearGradient id="paint6_linear_379_900" x1="30.7998" y1="21.5838" x2="319.692" y2="21.5838" gradientUnits="userSpaceOnUse">
<stop stop-color="#4F4F4F" stop-opacity="0.131"/>
<stop offset="0.07" stop-color="#4F4F4F"/>
<stop offset="0.937" stop-color="#4F4F4F" stop-opacity="0.953"/>
<stop offset="1" stop-color="#4F4F4F" stop-opacity="0"/>
</linearGradient>
<linearGradient id="paint7_linear_379_900" x1="30.7998" y1="680.109" x2="319.692" y2="680.109" gradientUnits="userSpaceOnUse">
<stop stop-color="#4F4F4F" stop-opacity="0.131"/>
<stop offset="0.07" stop-color="#4F4F4F"/>
<stop offset="0.937" stop-color="#4F4F4F" stop-opacity="0.953"/>
<stop offset="1" stop-color="#4F4F4F" stop-opacity="0"/>
</linearGradient>
<linearGradient id="paint8_linear_379_900" x1="295.766" y1="21.584" x2="294.783" y2="894.525" gradientUnits="userSpaceOnUse">
<stop stop-color="#404040"/>
<stop offset="0.022" stop-color="#464646"/>
<stop offset="0.999" stop-color="#525252" stop-opacity="0.016"/>
<stop offset="1" stop-color="#444444" stop-opacity="0"/>
</linearGradient>
<clipPath id="clip0_379_900">
<rect width="350" height="701.944" fill="white"/>
</clipPath>
<clipPath id="clip1_379_900">
<rect width="16.0781" height="10.6029" fill="white" transform="translate(219.297 394.441)"/>
</clipPath>
</defs>
</svg>
