<svg width="896" height="571" viewBox="0 0 896 571" fill="none" xmlns="http://www.w3.org/2000/svg">
<g filter="url(#filter0_d_167_187)">
<path d="M362.693 264.382L362.601 327.111H352.26L352.353 264.382H340V254.101H377.38V264.382H362.693ZM392.815 327.529V289.102L391.31 287.126H382.746L381.711 288.48V327.316H371.257V254.101H381.612L381.711 276.742H397.054L403.27 286.607V327.544L392.815 327.529Z" fill="white"/>
<path d="M410.985 254H421.44V264.282H410.985V254ZM411.178 327.318V276.744H421.626V327.318H411.178Z" fill="white"/>
<path d="M452.215 289.207H452.029C451.779 288.789 451.558 288.419 451.372 288.167C451.238 288.013 451.125 287.838 451.037 287.648C450.954 287.456 450.843 287.281 450.709 287.128H440.261V327.318H429.814V276.744H432.183C436.137 276.744 440.028 276.76 443.858 276.791C447.688 276.823 451.579 276.841 455.533 276.846H456.446L456.825 277.366C456.946 277.508 457.31 278.043 457.902 278.941C458.494 279.838 459.144 280.901 459.836 282.011C460.15 282.536 460.464 283.061 460.778 283.585C461.092 284.066 461.37 284.483 461.627 284.829C461.749 285.034 461.863 285.207 461.955 285.349C462.056 285.496 462.166 285.635 462.284 285.766C462.366 285.844 462.432 285.939 462.48 286.046C462.528 286.153 462.556 286.269 462.562 286.388C462.59 286.413 462.614 286.444 462.631 286.479C462.648 286.514 462.659 286.553 462.662 286.593V327.302H452.215V289.207Z" fill="white"/>
<path d="M481.023 254.205V296.993L492.127 283.287V276.642H502.574V286.924L502.389 287.231C501.318 288.616 500.236 289.968 499.142 291.285C498.048 292.603 496.934 293.949 495.802 295.324L503.809 300.047V327.153H493.447V306.031L489.215 303.669L481.023 313.636V326.932H470.668L470.575 254.229L481.023 254.205Z" fill="white"/>
<path d="M511.715 327.318L511.622 262.306L517.331 254.307H539.647V264.691H521.949L522.098 286.191H532.803V296.583H522.098V327.286L511.715 327.318Z" fill="white"/>
<path d="M569.054 276.744V287.23H554.781C554.524 287.648 554.21 288.183 553.839 288.805C553.468 289.427 553.054 290.135 552.612 290.828C552.13 291.764 551.596 292.666 551.013 293.529C550.907 293.694 550.812 293.868 550.728 294.048C550.671 294.19 550.606 294.324 550.542 294.465C550.245 296.174 550.149 297.918 550.257 299.653C550.385 301.107 550.449 302.839 550.449 304.849V327.279H539.945V276.744H569.039H569.054Z" fill="white"/>
<path d="M573.484 254H583.932V264.282H573.484V254ZM573.67 327.318V276.744H584.118V327.318H573.67Z" fill="white"/>
<path d="M636.174 327.318V289.206C636.045 289.065 635.903 288.931 635.746 288.789C635.581 288.642 635.438 288.467 635.325 288.27C635.187 288.12 635.076 287.944 634.996 287.75C634.911 287.56 634.8 287.385 634.668 287.23H626.005L624.313 289.411V327.2H613.859V289.206L613.481 288.789C613.34 288.632 613.215 288.457 613.109 288.27C612.972 288.118 612.859 287.943 612.774 287.75C612.691 287.558 612.58 287.383 612.446 287.23H603.789L602.562 288.805L602.655 327.231H592.207L592.115 285.278L598.701 276.76H618.098L619.411 278.838L620.916 276.76H640.313L646.621 286.419V327.357L636.174 327.318Z" fill="white"/>
</g>
<path d="M667.546 173.016C667.764 173.015 667.979 173.058 668.181 173.141C668.382 173.224 668.565 173.346 668.719 173.5C668.873 173.654 668.995 173.837 669.078 174.038C669.161 174.239 669.204 174.455 669.203 174.673V251.636C669.203 251.854 669.16 252.069 669.077 252.27C668.994 252.471 668.871 252.653 668.717 252.807C668.564 252.96 668.381 253.082 668.18 253.165C667.979 253.248 667.763 253.29 667.546 253.29H654.78C654.563 253.29 654.348 253.248 654.147 253.165C653.946 253.082 653.763 252.96 653.609 252.807C653.455 252.653 653.333 252.471 653.25 252.27C653.166 252.069 653.123 251.854 653.123 251.636V174.673C653.123 173.754 653.858 173.019 654.777 173.019L667.546 173.016Z" fill="black"/>
<mask id="mask0_167_187" style="mask-type:luminance" maskUnits="userSpaceOnUse" x="653" y="173" width="17" height="81">
<path d="M667.546 173.015C667.763 173.015 667.979 173.057 668.18 173.14C668.381 173.223 668.564 173.345 668.718 173.498C668.871 173.652 668.994 173.834 669.077 174.035C669.16 174.236 669.203 174.451 669.203 174.669V251.632C669.203 252.551 668.465 253.289 667.546 253.289H654.781C654.563 253.29 654.348 253.247 654.147 253.165C653.946 253.082 653.763 252.96 653.609 252.806C653.455 252.653 653.333 252.47 653.25 252.27C653.166 252.069 653.123 251.853 653.123 251.636V174.669C653.123 174.451 653.165 174.236 653.248 174.035C653.331 173.834 653.453 173.651 653.606 173.497C653.76 173.343 653.942 173.221 654.143 173.138C654.344 173.055 654.559 173.012 654.777 173.012L667.546 173.015Z" fill="white"/>
</mask>
<g mask="url(#mask0_167_187)">
<path d="M667.193 174.492C667.387 174.492 667.58 174.53 667.759 174.604C667.939 174.678 668.102 174.786 668.239 174.924C668.376 175.061 668.485 175.224 668.559 175.403C668.633 175.583 668.671 175.775 668.67 175.969V250.335C668.67 251.154 668.009 251.812 667.193 251.812H666.734V174.492H667.193Z" fill="url(#paint0_linear_167_187)"/>
</g>
<path d="M333.629 105.591H320.86C319.945 105.591 319.203 106.333 319.203 107.248V131.188C319.203 132.103 319.945 132.845 320.86 132.845H333.629C334.545 132.845 335.287 132.103 335.287 131.188V107.248C335.287 106.333 334.545 105.591 333.629 105.591Z" fill="black"/>
<mask id="mask1_167_187" style="mask-type:luminance" maskUnits="userSpaceOnUse" x="319" y="105" width="17" height="28">
<path d="M333.629 105.591H320.86C319.945 105.591 319.203 106.333 319.203 107.248V131.188C319.203 132.103 319.945 132.845 320.86 132.845H333.629C334.545 132.845 335.287 132.103 335.287 131.188V107.248C335.287 106.333 334.545 105.591 333.629 105.591Z" fill="white"/>
</mask>
<g mask="url(#mask1_167_187)">
<path d="M321.217 107.068C321.022 107.067 320.83 107.105 320.65 107.179C320.47 107.253 320.306 107.361 320.169 107.499C320.031 107.636 319.922 107.799 319.848 107.979C319.773 108.159 319.735 108.351 319.736 108.546V129.887C319.736 130.707 320.397 131.364 321.213 131.364H321.672V107.068H321.217Z" fill="url(#paint1_linear_167_187)"/>
</g>
<path d="M320.86 156.414C320.643 156.413 320.427 156.456 320.226 156.539C320.025 156.622 319.843 156.743 319.689 156.897C319.535 157.05 319.413 157.233 319.329 157.434C319.246 157.635 319.203 157.85 319.203 158.067V205.517C319.203 206.435 319.942 207.174 320.86 207.174H333.626C333.843 207.174 334.059 207.132 334.26 207.049C334.461 206.966 334.643 206.845 334.797 206.691C334.951 206.537 335.073 206.355 335.157 206.154C335.24 205.953 335.283 205.738 335.283 205.52V158.067C335.283 157.85 335.241 157.634 335.158 157.433C335.075 157.232 334.953 157.05 334.8 156.896C334.646 156.742 334.464 156.62 334.263 156.536C334.062 156.453 333.847 156.41 333.629 156.41L320.86 156.414Z" fill="black"/>
<mask id="mask2_167_187" style="mask-type:luminance" maskUnits="userSpaceOnUse" x="319" y="10" width="17" height="52">
<path d="M320.858 10.5808C320.641 10.5803 320.425 10.6227 320.224 10.7056C320.023 10.7885 319.841 10.9102 319.687 11.0638C319.533 11.2174 319.411 11.3999 319.327 11.6007C319.244 11.8016 319.201 12.0169 319.201 12.2344V59.6837C319.201 60.6023 319.94 61.3409 320.858 61.3409H333.624C333.841 61.3414 334.057 61.299 334.258 61.2161C334.459 61.1332 334.641 61.0115 334.795 60.8579C334.949 60.7043 335.071 60.5219 335.155 60.321C335.238 60.1202 335.281 59.9048 335.281 59.6874V12.2344C335.281 12.0169 335.239 11.8015 335.156 11.6005C335.073 11.3994 334.951 11.2167 334.798 11.0628C334.644 10.9088 334.462 10.7867 334.261 10.7034C334.06 10.62 333.845 10.5771 333.627 10.5771L320.858 10.5808Z" fill="white"/>
</mask>
<g mask="url(#mask2_167_187)">
<path d="M321.211 12.0576C321.017 12.0571 320.825 12.095 320.645 12.1691C320.466 12.2431 320.303 12.3519 320.166 12.4892C320.028 12.6264 319.92 12.7895 319.846 12.9689C319.771 13.1484 319.734 13.3407 319.734 13.5348V58.3862C319.734 59.2057 320.395 59.8634 321.211 59.8634H321.671V12.0576H321.211Z" fill="url(#paint2_linear_167_187)"/>
</g>
<path d="M320.86 220.248C320.643 220.247 320.427 220.29 320.226 220.373C320.024 220.456 319.841 220.578 319.687 220.732C319.533 220.886 319.411 221.069 319.328 221.27C319.245 221.471 319.203 221.687 319.203 221.905V269.354C319.203 270.273 319.942 271.008 320.86 271.008H333.626C333.843 271.008 334.059 270.966 334.26 270.883C334.461 270.8 334.643 270.678 334.797 270.525C334.951 270.371 335.073 270.189 335.157 269.988C335.24 269.787 335.283 269.572 335.283 269.354V221.901C335.283 221.463 335.109 221.042 334.799 220.732C334.489 220.422 334.068 220.248 333.629 220.248H320.86Z" fill="black"/>
<mask id="mask3_167_187" style="mask-type:luminance" maskUnits="userSpaceOnUse" x="319" y="220" width="17" height="52">
<path d="M320.86 220.251C320.643 220.251 320.427 220.293 320.226 220.376C320.025 220.459 319.843 220.581 319.689 220.734C319.535 220.888 319.413 221.07 319.329 221.271C319.246 221.472 319.203 221.687 319.203 221.905V269.354C319.203 270.273 319.942 271.011 320.86 271.011H333.626C333.843 271.012 334.059 270.969 334.26 270.887C334.461 270.804 334.643 270.682 334.797 270.528C334.951 270.375 335.073 270.192 335.157 269.991C335.24 269.791 335.283 269.575 335.283 269.358V221.905C335.283 221.687 335.241 221.472 335.158 221.271C335.075 221.07 334.953 220.887 334.8 220.733C334.646 220.579 334.464 220.457 334.263 220.374C334.062 220.29 333.847 220.248 333.629 220.248L320.86 220.251Z" fill="white"/>
</mask>
<g mask="url(#mask3_167_187)">
<path d="M321.213 221.729C321.019 221.728 320.827 221.766 320.647 221.84C320.468 221.914 320.305 222.023 320.167 222.16C320.03 222.297 319.921 222.46 319.847 222.64C319.773 222.819 319.735 223.012 319.736 223.206V268.057C319.736 268.877 320.397 269.534 321.213 269.534H321.672V221.729H321.213Z" fill="url(#paint3_linear_167_187)"/>
</g>
<path d="M370.324 10.4982C363.582 10.4841 356.904 11.8018 350.672 14.3755C344.441 16.9492 338.779 20.7282 334.012 25.4958C329.244 30.2633 325.466 35.9254 322.892 42.1571C320.319 48.3888 319.002 55.0674 319.016 61.8094V659.415C319.001 666.157 320.318 672.837 322.892 679.069C325.465 685.301 329.244 690.964 334.012 695.732C338.779 700.5 344.442 704.279 350.674 706.853C356.906 709.427 363.585 710.744 370.328 710.73H474.321L476.445 707.717H507.77L509.902 710.73H613.891C620.634 710.744 627.313 709.427 633.545 706.853C639.777 704.279 645.44 700.5 650.207 695.732C654.975 690.964 658.754 685.301 661.327 679.069C663.9 672.837 665.217 666.157 665.202 659.415V61.8094C665.216 55.0671 663.899 48.3883 661.325 42.1566C658.751 35.9248 654.971 30.2628 650.203 25.4956C645.435 20.7283 639.773 16.9497 633.541 14.3767C627.309 11.8036 620.63 10.4868 613.887 10.5018L370.324 10.4982Z" fill="black"/>
<path d="M319.097 15.286H323.147V10.498H319.097V15.286Z" fill="#7D7E7F"/>
<path d="M322.279 639.66H326.328V83.4336H322.279V639.66Z" fill="#EBEBEB"/>
<path d="M318.887 15.3406H322.936V10.5527H318.887V15.3406Z" fill="#7D7E7F"/>
<path d="M666.128 83.4297H662.078V639.663H666.128V83.4297Z" fill="#EBEBEB"/>
<path d="M666.127 78.6416H662.078V83.4295H666.127V78.6416Z" fill="#7D7E7F"/>
<path d="M374.362 12.7833C367.518 12.7683 360.739 14.1051 354.413 16.717C348.088 19.3288 342.341 23.1643 337.501 28.0033C332.662 32.8422 328.826 38.5893 326.214 44.9147C323.601 51.24 322.264 58.0191 322.279 64.8626V78.6421H326.328V63.2936C326.315 57.1641 327.513 51.0925 329.852 45.4271C332.192 39.7618 335.628 34.6144 339.962 30.2804C344.296 25.9464 349.444 22.5111 355.11 20.1719C360.775 17.8326 366.847 16.6354 372.976 16.6489H615.43C621.559 16.6359 627.631 17.8336 633.296 20.1733C638.962 22.513 644.109 25.9486 648.443 30.283C652.777 34.6173 656.212 39.765 658.552 45.4305C660.891 51.096 662.088 57.1678 662.074 63.2972V78.6421H666.124V64.8626C666.138 58.0197 664.801 51.2413 662.189 44.9164C659.578 38.5915 655.742 32.8447 650.904 28.0059C646.065 23.167 640.319 19.3314 633.994 16.7191C627.669 14.1068 620.891 12.7693 614.048 12.7833H374.362Z" fill="#EBEBEB"/>
<mask id="mask4_167_187" style="mask-type:luminance" maskUnits="userSpaceOnUse" x="322" y="12" width="345" height="699">
<path d="M374.361 12.5361C345.507 12.5361 322.277 35.7651 322.277 64.6194V658.098C322.277 686.952 345.507 710.182 374.361 710.182H614.041C642.895 710.182 666.125 686.952 666.125 658.098V64.6194C666.125 35.7651 642.895 12.5361 614.041 12.5361H374.361ZM372.977 16.4036H615.425C641.269 16.4036 662.074 37.2069 662.074 63.0502V660.219C662.074 686.062 641.269 706.867 615.425 706.867H372.977C347.133 706.867 326.328 686.062 326.328 660.219V63.0512C326.328 37.2069 347.133 16.4036 372.977 16.4036Z" fill="white"/>
</mask>
<g mask="url(#mask4_167_187)">
<path fill-rule="evenodd" clip-rule="evenodd" d="M356.073 21.8361C349.669 21.6728 337.465 23.6114 324.932 37.6958C306.704 58.1812 323.022 45.8546 323.022 45.8546C323.022 45.8546 334.22 28.4948 349.845 26.2373C365.47 23.9808 360.695 22.4166 360.695 22.4166C360.695 22.4166 358.984 21.911 356.073 21.8361ZM632.329 21.8361C629.418 21.91 627.707 22.4175 627.707 22.4175C627.707 22.4175 622.932 23.9808 638.557 26.2383C654.181 28.4958 665.38 45.8546 665.38 45.8546C665.38 45.8546 681.699 58.1812 663.47 37.6958C650.938 23.6114 638.733 21.6738 632.33 21.8361H632.329ZM316.832 673.568C315.433 673.401 316.388 675.794 324.932 685.396C343.161 705.882 360.695 700.674 360.695 700.674C360.695 700.674 365.47 699.111 349.845 696.853C334.22 694.598 323.022 677.237 323.022 677.237C323.022 677.237 318.417 673.758 316.832 673.568ZM671.57 673.568C669.985 673.758 665.38 677.237 665.38 677.237C665.38 677.237 654.182 694.597 638.557 696.854C622.932 699.111 627.707 700.675 627.707 700.675C627.707 700.675 645.241 705.882 663.47 685.396C672.015 675.793 672.968 673.401 671.57 673.568Z" fill="#434343"/>
</g>
<path d="M635.32 25.5145C634.179 25.4017 634.717 26.5401 637.28 28.9133C645.734 36.7445 650.983 48.0795 650.983 60.6968V662.635C650.983 675.252 645.733 686.587 637.28 694.418C634.717 696.792 634.179 697.93 635.32 697.817C636.005 697.749 637.296 697.231 639.116 696.26C651.472 689.668 658.647 675.447 658.647 660.341V62.9902C658.647 47.885 651.472 33.6635 639.116 27.0719C637.296 26.1007 636.004 25.5825 635.32 25.5145Z" fill="url(#paint4_linear_167_187)"/>
<path d="M353.082 25.5151C354.225 25.4049 353.685 26.5403 351.124 28.9141C342.672 36.7445 337.418 48.0805 337.418 60.6989V662.644C337.418 675.258 342.672 686.594 351.124 694.429C353.685 696.799 354.225 697.938 353.082 697.824C352.399 697.758 351.109 697.236 349.287 696.27C336.933 689.677 329.756 675.453 329.756 660.351V62.9918C329.756 47.8857 336.933 33.6653 349.287 27.0731C351.109 26.0994 352.399 25.5813 353.082 25.5151Z" fill="url(#paint5_linear_167_187)"/>
<path d="M512.734 37.2627H476.279C474.816 37.2627 473.629 38.448 473.629 39.9102C473.629 41.3724 474.816 42.5577 476.279 42.5577H512.734C514.197 42.5577 515.383 41.3724 515.383 39.9102C515.383 38.448 514.197 37.2627 512.734 37.2627Z" fill="#1E1E1E"/>
<path d="M532.014 44.5124C534.744 44.5124 536.956 42.2997 536.956 39.5702C536.956 36.8407 534.744 34.6279 532.014 34.6279C529.285 34.6279 527.072 36.8407 527.072 39.5702C527.072 42.2997 529.285 44.5124 532.014 44.5124Z" fill="#2B2B2B"/>
<path d="M532.014 43.5282C534.2 43.5282 535.972 41.7564 535.972 39.5708C535.972 37.3851 534.2 35.6133 532.014 35.6133C529.828 35.6133 528.057 37.3851 528.057 39.5708C528.057 41.7564 529.828 43.5282 532.014 43.5282Z" fill="#0A0D13"/>
<path d="M532.014 42.5873C533.68 42.5873 535.031 41.2366 535.031 39.5705C535.031 37.9044 533.68 36.5537 532.014 36.5537C530.348 36.5537 528.997 37.9044 528.997 39.5705C528.997 41.2366 530.348 42.5873 532.014 42.5873Z" fill="#091427"/>
<path fill-rule="evenodd" clip-rule="evenodd" d="M529.938 37.5498C529.578 37.5866 529.071 38.1377 529.034 39.207C528.997 40.28 529.468 40.8642 529.732 40.8642C529.993 40.8642 531.084 39.2989 529.938 37.5498Z" fill="#235A91" fill-opacity="0.556"/>
<path fill-rule="evenodd" clip-rule="evenodd" d="M532.507 37.1747C531.941 37.3474 531.834 38.2624 531.856 38.7805C531.878 39.3023 532.613 40.6692 533.506 40.3642C534.395 40.0629 534.546 38.9312 534.178 38.1742C533.811 37.4136 533.135 36.8734 532.507 37.1747Z" fill="#235A91" fill-opacity="0.556"/>
<path d="M467.067 40.0258C467.067 41.0528 466.66 42.0379 465.936 42.7658C465.211 43.4936 464.228 43.905 463.201 43.9098C462.173 43.9138 461.185 43.5098 460.454 42.7865C459.723 42.0633 459.309 41.0798 459.302 40.0516C459.295 39.0246 459.696 38.0367 460.415 37.3041C461.135 36.5714 462.115 36.1535 463.142 36.1419C464.17 36.1301 465.16 36.526 465.896 37.243C466.633 37.96 467.055 38.9395 467.07 39.9671L463.186 40.0258H467.067Z" fill="#0F0F0F"/>
<path d="M445.041 40.1146C445.041 41.6408 444.427 43.1049 443.333 44.1862C442.238 45.2675 440.753 45.8778 439.203 45.8836C437.653 45.8884 436.164 45.2888 435.062 44.2159C433.96 43.143 433.335 41.6842 433.323 40.1587C433.313 38.6335 433.917 37.1665 435.003 36.0785C436.089 34.9905 437.569 34.3701 439.118 34.3529C440.667 34.3364 442.16 34.9244 443.27 35.9883C444.38 37.0521 445.017 38.5053 445.041 40.03L439.181 40.1146H445.041Z" fill="#101010"/>
<path d="M372.94 20.0479C364.826 20.0325 356.873 22.3156 350.003 26.6327V32.1629C356.553 27.8673 364.218 25.5868 372.05 25.6038H616.845C625.002 25.6038 632.572 28.018 638.892 32.1629V26.6364C632.023 22.319 624.072 20.0359 615.959 20.0516H469.102L372.94 20.0479Z" fill="url(#paint6_linear_167_187)"/>
<path d="M373.433 32.1621C356.158 32.1621 342.251 46.0686 342.251 63.3428V659.499C342.251 676.773 356.158 690.68 373.432 690.68H614.97C632.244 690.68 646.15 676.773 646.15 659.499V63.3428C646.15 46.0686 632.244 32.1621 614.97 32.1621H584.469C583.087 32.1621 581.762 32.7109 580.785 33.6878C579.808 34.6647 579.259 35.9897 579.259 37.3712V39.7687C579.259 49.1544 571.705 56.7104 562.32 56.7104H426.082C423.856 56.7153 421.651 56.2804 419.593 55.4307C417.536 54.581 415.666 53.3332 414.092 51.759C412.518 50.1849 411.271 48.3153 410.421 46.2576C409.572 44.2 409.137 41.9948 409.142 39.7687V37.3722C409.142 36.6881 409.007 36.0107 408.746 35.3787C408.484 34.7467 408.1 34.1725 407.616 33.6888C407.133 33.2051 406.559 32.8214 405.927 32.5596C405.295 32.2978 404.617 32.1631 403.933 32.1631L373.433 32.1621Z" fill="url(#paint7_linear_167_187)"/>
<path d="M563.185 39.4969C563.184 41.5476 562.362 43.5143 560.899 44.9667C559.435 46.4191 557.45 47.2389 555.377 47.2466C553.304 47.2533 551.313 46.4475 549.839 45.0055C548.365 43.5634 547.529 41.6026 547.513 39.5521C547.499 37.5025 548.305 35.5305 549.755 34.0673C551.206 32.604 553.184 31.7686 555.256 31.7437C557.329 31.7204 559.328 32.5108 560.813 33.942C562.299 35.3731 563.15 37.3283 563.182 39.3794L555.344 39.4933L563.185 39.4969Z" fill="#0F0F0F"/>
<path d="M368.854 48.7541V54.5781H368.148V49.4935H368.114L366.692 50.4376V49.721L368.148 48.7541H368.854ZM370.528 54.5781V54.0662L372.451 51.9619C372.676 51.7154 372.862 51.5012 373.008 51.3192C373.154 51.1353 373.262 50.9628 373.332 50.8016C373.404 50.6386 373.44 50.468 373.44 50.2897C373.44 50.085 373.391 49.9077 373.293 49.758C373.196 49.6082 373.063 49.4926 372.894 49.411C372.726 49.3295 372.536 49.2887 372.326 49.2887C372.102 49.2887 371.907 49.3352 371.74 49.4281C371.575 49.5191 371.447 49.6471 371.356 49.812C371.267 49.9769 371.222 50.1703 371.222 50.3921H370.551C370.551 50.0509 370.63 49.7513 370.787 49.4935C370.945 49.2357 371.159 49.0347 371.43 48.8906C371.703 48.7465 372.009 48.6745 372.348 48.6745C372.69 48.6745 372.992 48.7465 373.256 48.8906C373.519 49.0347 373.726 49.229 373.876 49.4736C374.025 49.7182 374.1 49.9902 374.1 50.2897C374.1 50.504 374.061 50.7135 373.984 50.9182C373.908 51.1211 373.775 51.3476 373.586 51.5979C373.398 51.8462 373.137 52.1496 372.803 52.5079L371.495 53.907V53.9525H374.203V54.5781H370.528ZM375.878 53.8331C375.737 53.8331 375.617 53.7828 375.516 53.6823C375.416 53.5819 375.366 53.4615 375.366 53.3212C375.366 53.1809 375.416 53.0605 375.516 52.96C375.617 52.8596 375.737 52.8093 375.878 52.8093C376.018 52.8093 376.138 52.8596 376.239 52.96C376.339 53.0605 376.389 53.1809 376.389 53.3212C376.389 53.4141 376.366 53.4994 376.318 53.5771C376.273 53.6549 376.211 53.7174 376.134 53.7648C376.058 53.8103 375.972 53.8331 375.878 53.8331ZM375.878 50.8869C375.737 50.8869 375.617 50.8367 375.516 50.7362C375.416 50.6357 375.366 50.5154 375.366 50.3751C375.366 50.2348 375.416 50.1144 375.516 50.0139C375.617 49.9134 375.737 49.8632 375.878 49.8632C376.018 49.8632 376.138 49.9134 376.239 50.0139C376.339 50.1144 376.389 50.2348 376.389 50.3751C376.389 50.468 376.366 50.5533 376.318 50.631C376.273 50.7087 376.211 50.7713 376.134 50.8187C376.058 50.8642 375.972 50.8869 375.878 50.8869ZM377.446 53.3837V52.8036L380.005 48.7541H380.426V49.6527H380.142L378.208 52.7126V52.7581H381.655V53.3837H377.446ZM380.187 54.5781V53.2074V52.9373V48.7541H380.858V54.5781H380.187ZM384.586 54.6578C384.195 54.6578 383.85 54.5886 383.551 54.4502C383.253 54.3099 383.021 54.1174 382.854 53.8729C382.687 53.6264 382.605 53.3458 382.607 53.0311C382.605 52.7847 382.653 52.5572 382.752 52.3486C382.85 52.1382 382.985 51.9628 383.155 51.8225C383.328 51.6803 383.52 51.5903 383.733 51.5524V51.5182C383.454 51.4462 383.232 51.2898 383.067 51.049C382.902 50.8064 382.821 50.5305 382.823 50.2215C382.821 49.9257 382.896 49.6613 383.047 49.4281C383.199 49.1949 383.408 49.011 383.673 48.8764C383.94 48.7418 384.245 48.6745 384.586 48.6745C384.923 48.6745 385.225 48.7418 385.49 48.8764C385.756 49.011 385.964 49.1949 386.116 49.4281C386.269 49.6613 386.347 49.9257 386.349 50.2215C386.347 50.5305 386.263 50.8064 386.096 51.049C385.931 51.2898 385.712 51.4462 385.439 51.5182V51.5524C385.649 51.5903 385.839 51.6803 386.008 51.8225C386.176 51.9628 386.311 52.1382 386.412 52.3486C386.512 52.5572 386.563 52.7847 386.565 53.0311C386.563 53.3458 386.478 53.6264 386.309 53.8729C386.142 54.1174 385.91 54.3099 385.612 54.4502C385.317 54.5886 384.974 54.6578 384.586 54.6578ZM384.586 54.0321C384.849 54.0321 385.077 53.9895 385.268 53.9042C385.46 53.8188 385.608 53.6985 385.712 53.543C385.816 53.3875 385.869 53.2055 385.871 52.997C385.869 52.7771 385.812 52.5828 385.701 52.414C385.589 52.2453 385.436 52.1126 385.243 52.0159C385.051 51.9192 384.832 51.8709 384.586 51.8709C384.337 51.8709 384.116 51.9192 383.92 52.0159C383.727 52.1126 383.574 52.2453 383.463 52.414C383.353 52.5828 383.299 52.7771 383.3 52.997C383.299 53.2055 383.349 53.3875 383.451 53.543C383.555 53.6985 383.704 53.8188 383.898 53.9042C384.091 53.9895 384.32 54.0321 384.586 54.0321ZM384.586 51.268C384.794 51.268 384.979 51.2263 385.14 51.1429C385.303 51.0595 385.431 50.9429 385.524 50.7931C385.617 50.6433 385.665 50.468 385.666 50.267C385.665 50.0698 385.618 49.8983 385.527 49.7523C385.436 49.6044 385.31 49.4907 385.149 49.411C384.988 49.3295 384.8 49.2887 384.586 49.2887C384.368 49.2887 384.177 49.3295 384.014 49.411C383.851 49.4907 383.725 49.6044 383.636 49.7523C383.547 49.8983 383.503 50.0698 383.505 50.267C383.503 50.468 383.548 50.6433 383.639 50.7931C383.732 50.9429 383.86 51.0595 384.023 51.1429C384.186 51.2263 384.374 51.268 384.586 51.268ZM390.01 54.5781V48.7541H391.977C392.434 48.7541 392.808 48.8366 393.098 49.0015C393.39 49.1646 393.606 49.3854 393.746 49.6641C393.887 49.9428 393.957 50.2537 393.957 50.5969C393.957 50.94 393.887 51.2519 393.746 51.5325C393.608 51.8131 393.394 52.0368 393.104 52.2036C392.814 52.3685 392.442 52.451 391.989 52.451H390.578V51.8254H391.966C392.279 51.8254 392.53 51.7713 392.72 51.6633C392.909 51.5552 393.047 51.4092 393.132 51.2253C393.219 51.0396 393.263 50.8301 393.263 50.5969C393.263 50.3637 393.219 50.1551 393.132 49.9712C393.047 49.7874 392.908 49.6433 392.717 49.539C392.525 49.4328 392.271 49.3797 391.955 49.3797H390.715V54.5781H390.01ZM395.093 48.7541H395.935L397.914 53.5885H397.982L399.961 48.7541H400.803V54.5781H400.143V50.1532H400.086L398.266 54.5781H397.629L395.809 50.1532H395.753V54.5781H395.093V48.7541Z" fill="#E0E2FF"/>
<path d="M385.037 125.578V104.481H389.497V121.901H398.542V125.578H385.037ZM408.624 125.887C406.996 125.887 405.595 125.558 404.421 124.898C403.253 124.232 402.354 123.291 401.722 122.076C401.09 120.853 400.774 119.408 400.774 117.739C400.774 116.111 401.09 114.683 401.722 113.454C402.354 112.224 403.243 111.266 404.39 110.58C405.544 109.893 406.897 109.55 408.449 109.55C409.492 109.55 410.464 109.718 411.364 110.054C412.27 110.384 413.06 110.882 413.733 111.548C414.413 112.214 414.942 113.052 415.319 114.061C415.697 115.064 415.886 116.238 415.886 117.584V118.79H402.525V116.07H411.755C411.755 115.438 411.618 114.879 411.343 114.391C411.069 113.904 410.687 113.522 410.2 113.248C409.719 112.966 409.159 112.825 408.521 112.825C407.855 112.825 407.264 112.98 406.749 113.289C406.241 113.591 405.842 114 405.554 114.515C405.266 115.023 405.118 115.589 405.111 116.214V118.8C405.111 119.583 405.255 120.259 405.544 120.829C405.839 121.399 406.254 121.839 406.79 122.148C407.326 122.457 407.961 122.611 408.696 122.611C409.183 122.611 409.63 122.543 410.035 122.405C410.44 122.268 410.787 122.062 411.075 121.787C411.364 121.513 411.584 121.176 411.735 120.778L415.793 121.046C415.587 122.021 415.165 122.872 414.526 123.6C413.895 124.321 413.077 124.885 412.075 125.29C411.079 125.688 409.929 125.887 408.624 125.887ZM427.166 109.756V113.052H417.637V109.756H427.166ZM419.8 105.965H424.189V120.716C424.189 121.121 424.251 121.437 424.374 121.664C424.498 121.883 424.669 122.038 424.889 122.127C425.116 122.217 425.377 122.261 425.672 122.261C425.878 122.261 426.084 122.244 426.29 122.21C426.496 122.168 426.654 122.138 426.764 122.117L427.454 125.382C427.234 125.451 426.925 125.53 426.527 125.619C426.129 125.715 425.645 125.774 425.075 125.794C424.017 125.836 423.09 125.695 422.293 125.372C421.504 125.049 420.889 124.548 420.449 123.868C420.01 123.188 419.794 122.33 419.8 121.293V105.965ZM432.847 104.481V112.496H429.715V104.481H432.847ZM449.251 114.267L445.234 114.515C445.165 114.171 445.018 113.862 444.791 113.588C444.564 113.306 444.266 113.083 443.895 112.918C443.531 112.746 443.095 112.661 442.587 112.661C441.907 112.661 441.333 112.805 440.866 113.093C440.399 113.375 440.166 113.752 440.166 114.226C440.166 114.604 440.317 114.923 440.619 115.184C440.921 115.445 441.44 115.655 442.175 115.813L445.038 116.39C446.577 116.705 447.723 117.214 448.479 117.914C449.234 118.615 449.612 119.535 449.612 120.675C449.612 121.712 449.306 122.622 448.695 123.405C448.091 124.187 447.26 124.799 446.202 125.238C445.152 125.671 443.939 125.887 442.566 125.887C440.471 125.887 438.803 125.451 437.56 124.579C436.324 123.7 435.599 122.505 435.386 120.994L439.702 120.767C439.833 121.406 440.149 121.894 440.65 122.23C441.151 122.56 441.793 122.725 442.576 122.725C443.345 122.725 443.964 122.577 444.431 122.282C444.904 121.98 445.145 121.592 445.152 121.118C445.145 120.719 444.976 120.393 444.647 120.139C444.317 119.878 443.809 119.679 443.122 119.542L440.382 118.996C438.837 118.687 437.687 118.151 436.931 117.389C436.183 116.626 435.808 115.655 435.808 114.474C435.808 113.457 436.083 112.582 436.633 111.847C437.189 111.112 437.968 110.545 438.971 110.147C439.98 109.749 441.162 109.55 442.514 109.55C444.513 109.55 446.086 109.972 447.232 110.817C448.386 111.661 449.059 112.812 449.251 114.267ZM466.238 125.887C464.617 125.887 463.223 125.544 462.056 124.857C460.895 124.163 460.002 123.202 459.377 121.973C458.759 120.743 458.45 119.329 458.45 117.729C458.45 116.108 458.763 114.686 459.388 113.464C460.02 112.235 460.916 111.277 462.076 110.59C463.237 109.896 464.617 109.55 466.217 109.55C467.598 109.55 468.806 109.8 469.843 110.302C470.88 110.803 471.701 111.507 472.305 112.413C472.91 113.32 473.243 114.384 473.305 115.607H469.164C469.047 114.817 468.738 114.182 468.236 113.701C467.742 113.213 467.093 112.97 466.29 112.97C465.61 112.97 465.016 113.155 464.507 113.526C464.006 113.89 463.615 114.422 463.333 115.122C463.052 115.823 462.911 116.671 462.911 117.667C462.911 118.676 463.048 119.535 463.323 120.242C463.604 120.949 463.999 121.489 464.507 121.859C465.016 122.23 465.61 122.416 466.29 122.416C466.791 122.416 467.241 122.313 467.639 122.107C468.044 121.901 468.377 121.602 468.638 121.21C468.906 120.812 469.081 120.335 469.164 119.779H473.305C473.236 120.987 472.906 122.052 472.316 122.972C471.732 123.885 470.925 124.6 469.895 125.115C468.865 125.63 467.646 125.887 466.238 125.887ZM480.503 116.431V125.578H476.114V104.481H480.379V112.547H480.564C480.921 111.613 481.498 110.882 482.295 110.353C483.092 109.817 484.091 109.55 485.293 109.55C486.391 109.55 487.349 109.79 488.167 110.271C488.991 110.744 489.629 111.428 490.083 112.321C490.543 113.206 490.769 114.267 490.762 115.504V125.578H486.374V116.287C486.381 115.311 486.134 114.552 485.632 114.01C485.138 113.467 484.444 113.196 483.552 113.196C482.954 113.196 482.425 113.323 481.965 113.577C481.512 113.831 481.155 114.202 480.894 114.69C480.64 115.171 480.509 115.751 480.503 116.431ZM498.728 125.877C497.718 125.877 496.819 125.702 496.029 125.352C495.239 124.994 494.614 124.469 494.154 123.775C493.701 123.075 493.474 122.203 493.474 121.159C493.474 120.28 493.636 119.542 493.958 118.944C494.281 118.347 494.721 117.866 495.277 117.502C495.833 117.138 496.465 116.863 497.172 116.678C497.887 116.493 498.635 116.362 499.418 116.287C500.338 116.19 501.08 116.101 501.643 116.019C502.206 115.929 502.615 115.799 502.869 115.627C503.123 115.456 503.25 115.201 503.25 114.865V114.803C503.25 114.151 503.044 113.646 502.632 113.289C502.227 112.932 501.65 112.753 500.901 112.753C500.112 112.753 499.483 112.928 499.016 113.279C498.549 113.622 498.24 114.055 498.089 114.577L494.03 114.247C494.237 113.285 494.642 112.454 495.246 111.754C495.85 111.047 496.63 110.504 497.584 110.126C498.546 109.742 499.658 109.55 500.922 109.55C501.801 109.55 502.642 109.653 503.446 109.859C504.256 110.065 504.974 110.384 505.599 110.817C506.23 111.249 506.728 111.806 507.092 112.485C507.456 113.158 507.638 113.965 507.638 114.906V125.578H503.477V123.384H503.353C503.099 123.878 502.759 124.315 502.333 124.692C501.907 125.063 501.396 125.355 500.798 125.568C500.201 125.774 499.511 125.877 498.728 125.877ZM499.985 122.848C500.63 122.848 501.2 122.721 501.695 122.467C502.189 122.206 502.577 121.856 502.859 121.416C503.14 120.977 503.281 120.479 503.281 119.923V118.244C503.144 118.333 502.955 118.415 502.714 118.491C502.481 118.56 502.216 118.625 501.921 118.687C501.626 118.742 501.331 118.793 501.035 118.841C500.74 118.882 500.472 118.92 500.232 118.954C499.717 119.03 499.267 119.15 498.882 119.315C498.498 119.48 498.199 119.703 497.986 119.985C497.773 120.259 497.667 120.603 497.667 121.015C497.667 121.612 497.883 122.069 498.316 122.385C498.755 122.694 499.312 122.848 499.985 122.848ZM519.459 109.756V113.052H509.93V109.756H519.459ZM512.094 105.965H516.482V120.716C516.482 121.121 516.544 121.437 516.667 121.664C516.791 121.883 516.963 122.038 517.182 122.127C517.409 122.217 517.67 122.261 517.965 122.261C518.171 122.261 518.377 122.244 518.583 122.21C518.789 122.168 518.947 122.138 519.057 122.117L519.747 125.382C519.528 125.451 519.218 125.53 518.82 125.619C518.422 125.715 517.938 125.774 517.368 125.794C516.31 125.836 515.383 125.695 514.586 125.372C513.797 125.049 513.182 124.548 512.742 123.868C512.303 123.188 512.087 122.33 512.094 121.293V105.965Z" fill="white"/>
<path d="M384.612 158.797V147.161H391.589V148.411H386.021V152.342H391.067V153.592H386.021V158.797H384.612ZM393.821 158.797V150.07H395.162V158.797H393.821ZM394.503 148.615C394.241 148.615 394.016 148.526 393.827 148.348C393.641 148.17 393.548 147.956 393.548 147.706C393.548 147.456 393.641 147.242 393.827 147.064C394.016 146.886 394.241 146.797 394.503 146.797C394.764 146.797 394.988 146.886 395.173 147.064C395.363 147.242 395.457 147.456 395.457 147.706C395.457 147.956 395.363 148.17 395.173 148.348C394.988 148.526 394.764 148.615 394.503 148.615ZM398.959 147.161V158.797H397.618V147.161H398.959ZM402.756 147.161V158.797H401.415V147.161H402.756ZM413.257 158.979C412.469 158.979 411.778 158.791 411.183 158.416C410.592 158.041 410.13 157.517 409.797 156.842C409.467 156.168 409.303 155.38 409.303 154.479C409.303 153.57 409.467 152.776 409.797 152.098C410.13 151.42 410.592 150.893 411.183 150.518C411.778 150.143 412.469 149.956 413.257 149.956C414.045 149.956 414.734 150.143 415.325 150.518C415.92 150.893 416.382 151.42 416.712 152.098C417.045 152.776 417.212 153.57 417.212 154.479C417.212 155.38 417.045 156.168 416.712 156.842C416.382 157.517 415.92 158.041 415.325 158.416C414.734 158.791 414.045 158.979 413.257 158.979ZM413.257 157.774C413.856 157.774 414.348 157.621 414.734 157.314C415.121 157.007 415.407 156.604 415.592 156.104C415.778 155.604 415.871 155.062 415.871 154.479C415.871 153.895 415.778 153.352 415.592 152.848C415.407 152.344 415.121 151.937 414.734 151.626C414.348 151.316 413.856 151.161 413.257 151.161C412.659 151.161 412.166 151.316 411.78 151.626C411.393 151.937 411.107 152.344 410.922 152.848C410.736 153.352 410.643 153.895 410.643 154.479C410.643 155.062 410.736 155.604 410.922 156.104C411.107 156.604 411.393 157.007 411.78 157.314C412.166 157.621 412.659 157.774 413.257 157.774ZM424.759 155.229V150.07H426.099V158.797H424.759V157.32H424.668C424.463 157.763 424.145 158.14 423.713 158.45C423.281 158.757 422.736 158.911 422.077 158.911C421.531 158.911 421.046 158.791 420.622 158.553C420.198 158.31 419.865 157.946 419.622 157.462C419.38 156.973 419.259 156.357 419.259 155.615V150.07H420.599V155.524C420.599 156.161 420.777 156.668 421.134 157.047C421.493 157.426 421.952 157.615 422.509 157.615C422.842 157.615 423.181 157.53 423.526 157.359C423.874 157.189 424.166 156.928 424.401 156.575C424.639 156.223 424.759 155.774 424.759 155.229ZM432.351 150.07V151.206H427.828V150.07H432.351ZM429.146 147.979H430.487V156.297C430.487 156.676 430.542 156.96 430.652 157.149C430.766 157.335 430.91 157.46 431.084 157.524C431.262 157.585 431.449 157.615 431.646 157.615C431.794 157.615 431.915 157.607 432.01 157.592C432.105 157.573 432.18 157.558 432.237 157.547L432.51 158.751C432.419 158.786 432.292 158.82 432.129 158.854C431.966 158.892 431.76 158.911 431.51 158.911C431.131 158.911 430.76 158.829 430.396 158.666C430.036 158.503 429.737 158.255 429.499 157.922C429.264 157.589 429.146 157.168 429.146 156.661V147.979ZM442.663 150.07V151.206H438.141V150.07H442.663ZM439.459 147.979H440.8V156.297C440.8 156.676 440.855 156.96 440.964 157.149C441.078 157.335 441.222 157.46 441.396 157.524C441.574 157.585 441.762 157.615 441.959 157.615C442.107 157.615 442.228 157.607 442.322 157.592C442.417 157.573 442.493 157.558 442.55 157.547L442.822 158.751C442.732 158.786 442.605 158.82 442.442 158.854C442.279 158.892 442.072 158.911 441.822 158.911C441.444 158.911 441.072 158.829 440.709 158.666C440.349 158.503 440.05 158.255 439.811 157.922C439.576 157.589 439.459 157.168 439.459 156.661V147.979ZM446.209 153.547V158.797H444.868V147.161H446.209V151.433H446.322C446.527 150.982 446.834 150.625 447.243 150.359C447.656 150.09 448.205 149.956 448.891 149.956C449.485 149.956 450.006 150.075 450.453 150.314C450.9 150.549 451.247 150.911 451.493 151.399C451.743 151.884 451.868 152.501 451.868 153.251V158.797H450.527V153.342C450.527 152.649 450.347 152.113 449.987 151.734C449.631 151.352 449.137 151.161 448.504 151.161C448.065 151.161 447.671 151.253 447.322 151.439C446.978 151.625 446.705 151.895 446.504 152.251C446.307 152.607 446.209 153.039 446.209 153.547ZM457.98 158.979C457.139 158.979 456.414 158.793 455.804 158.422C455.198 158.047 454.73 157.524 454.401 156.854C454.075 156.179 453.912 155.395 453.912 154.501C453.912 153.607 454.075 152.82 454.401 152.138C454.73 151.452 455.188 150.918 455.776 150.536C456.366 150.149 457.056 149.956 457.844 149.956C458.298 149.956 458.747 150.032 459.19 150.183C459.634 150.335 460.037 150.581 460.401 150.922C460.764 151.259 461.054 151.706 461.27 152.263C461.486 152.82 461.594 153.505 461.594 154.32V154.888H454.866V153.729H460.23C460.23 153.236 460.132 152.797 459.935 152.411C459.741 152.024 459.465 151.719 459.105 151.496C458.749 151.272 458.329 151.161 457.844 151.161C457.31 151.161 456.848 151.293 456.457 151.558C456.071 151.82 455.774 152.161 455.565 152.581C455.357 153.001 455.253 153.452 455.253 153.933V154.706C455.253 155.365 455.366 155.924 455.594 156.382C455.825 156.837 456.145 157.183 456.554 157.422C456.963 157.657 457.438 157.774 457.98 157.774C458.332 157.774 458.651 157.725 458.935 157.626C459.223 157.524 459.471 157.373 459.679 157.172C459.887 156.967 460.048 156.714 460.162 156.411L461.457 156.774C461.321 157.214 461.092 157.6 460.77 157.933C460.448 158.263 460.05 158.52 459.577 158.706C459.103 158.888 458.571 158.979 457.98 158.979ZM472.02 150.07V151.206H467.315V150.07H472.02ZM468.724 158.797V148.865C468.724 148.365 468.842 147.948 469.077 147.615C469.312 147.282 469.616 147.032 469.991 146.865C470.366 146.698 470.762 146.615 471.179 146.615C471.509 146.615 471.777 146.642 471.986 146.695C472.194 146.748 472.349 146.797 472.452 146.842L472.065 148.001C471.997 147.979 471.902 147.95 471.781 147.916C471.664 147.882 471.509 147.865 471.315 147.865C470.872 147.865 470.552 147.977 470.355 148.2C470.162 148.424 470.065 148.751 470.065 149.183V158.797H468.724ZM477.085 158.979C476.297 158.979 475.606 158.791 475.011 158.416C474.42 158.041 473.958 157.517 473.625 156.842C473.295 156.168 473.131 155.38 473.131 154.479C473.131 153.57 473.295 152.776 473.625 152.098C473.958 151.42 474.42 150.893 475.011 150.518C475.606 150.143 476.297 149.956 477.085 149.956C477.873 149.956 478.563 150.143 479.153 150.518C479.748 150.893 480.21 151.42 480.54 152.098C480.873 152.776 481.04 153.57 481.04 154.479C481.04 155.38 480.873 156.168 480.54 156.842C480.21 157.517 479.748 158.041 479.153 158.416C478.563 158.791 477.873 158.979 477.085 158.979ZM477.085 157.774C477.684 157.774 478.176 157.621 478.562 157.314C478.949 157.007 479.235 156.604 479.42 156.104C479.606 155.604 479.699 155.062 479.699 154.479C479.699 153.895 479.606 153.352 479.42 152.848C479.235 152.344 478.949 151.937 478.562 151.626C478.176 151.316 477.684 151.161 477.085 151.161C476.487 151.161 475.994 151.316 475.608 151.626C475.222 151.937 474.936 152.344 474.75 152.848C474.564 153.352 474.472 153.895 474.472 154.479C474.472 155.062 474.564 155.604 474.75 156.104C474.936 156.604 475.222 157.007 475.608 157.314C475.994 157.621 476.487 157.774 477.085 157.774ZM483.087 158.797V150.07H484.382V151.388H484.473C484.632 150.956 484.92 150.606 485.337 150.337C485.753 150.068 486.223 149.933 486.746 149.933C486.844 149.933 486.967 149.935 487.115 149.939C487.263 149.943 487.375 149.948 487.45 149.956V151.32C487.405 151.308 487.301 151.291 487.138 151.268C486.979 151.242 486.81 151.229 486.632 151.229C486.208 151.229 485.829 151.318 485.496 151.496C485.166 151.67 484.905 151.912 484.712 152.223C484.522 152.53 484.428 152.88 484.428 153.274V158.797H483.087ZM489.04 158.797V150.07H490.335V151.433H490.449C490.631 150.967 490.924 150.606 491.33 150.348C491.735 150.087 492.222 149.956 492.79 149.956C493.366 149.956 493.845 150.087 494.227 150.348C494.614 150.606 494.915 150.967 495.131 151.433H495.222C495.445 150.982 495.78 150.625 496.227 150.359C496.674 150.09 497.21 149.956 497.835 149.956C498.616 149.956 499.254 150.2 499.75 150.689C500.246 151.174 500.494 151.929 500.494 152.956V158.797H499.153V152.956C499.153 152.312 498.977 151.852 498.625 151.575C498.273 151.299 497.858 151.161 497.381 151.161C496.767 151.161 496.292 151.346 495.955 151.717C495.617 152.085 495.449 152.551 495.449 153.115V158.797H494.085V152.82C494.085 152.323 493.924 151.924 493.602 151.621C493.28 151.314 492.866 151.161 492.358 151.161C492.009 151.161 491.684 151.253 491.381 151.439C491.081 151.625 490.839 151.882 490.653 152.212C490.472 152.537 490.381 152.914 490.381 153.342V158.797H489.04ZM510.014 159.001C509.461 159.001 508.959 158.897 508.509 158.689C508.058 158.477 507.7 158.172 507.435 157.774C507.17 157.373 507.037 156.888 507.037 156.32C507.037 155.82 507.135 155.414 507.332 155.104C507.529 154.789 507.793 154.543 508.122 154.365C508.452 154.187 508.815 154.054 509.213 153.967C509.615 153.876 510.018 153.804 510.423 153.751C510.954 153.683 511.384 153.632 511.713 153.598C512.046 153.56 512.289 153.498 512.44 153.411C512.596 153.323 512.673 153.172 512.673 152.956V152.911C512.673 152.35 512.52 151.914 512.213 151.604C511.91 151.293 511.45 151.138 510.832 151.138C510.192 151.138 509.69 151.278 509.327 151.558C508.963 151.839 508.707 152.138 508.56 152.456L507.287 152.001C507.514 151.471 507.817 151.058 508.196 150.763C508.579 150.464 508.995 150.255 509.446 150.138C509.901 150.017 510.348 149.956 510.787 149.956C511.067 149.956 511.389 149.99 511.753 150.058C512.12 150.123 512.474 150.257 512.815 150.462C513.16 150.666 513.446 150.975 513.673 151.388C513.901 151.801 514.014 152.354 514.014 153.047V158.797H512.673V157.615H512.605C512.514 157.804 512.363 158.007 512.151 158.223C511.938 158.439 511.656 158.623 511.304 158.774C510.952 158.926 510.522 159.001 510.014 159.001ZM510.219 157.797C510.749 157.797 511.196 157.693 511.56 157.484C511.927 157.276 512.204 157.007 512.389 156.678C512.579 156.348 512.673 156.001 512.673 155.638V154.411C512.616 154.479 512.491 154.541 512.298 154.598C512.109 154.651 511.889 154.698 511.639 154.74C511.393 154.778 511.152 154.812 510.918 154.842C510.687 154.869 510.499 154.892 510.355 154.911C510.007 154.956 509.681 155.03 509.378 155.132C509.079 155.231 508.836 155.38 508.651 155.581C508.469 155.778 508.378 156.047 508.378 156.388C508.378 156.854 508.55 157.206 508.895 157.445C509.243 157.679 509.685 157.797 510.219 157.797ZM517.803 153.547V158.797H516.462V150.07H517.757V151.433H517.871C518.075 150.99 518.386 150.634 518.803 150.365C519.219 150.092 519.757 149.956 520.416 149.956C521.007 149.956 521.524 150.077 521.967 150.32C522.411 150.558 522.755 150.922 523.001 151.411C523.248 151.895 523.371 152.509 523.371 153.251V158.797H522.03V153.342C522.03 152.657 521.852 152.123 521.496 151.74C521.14 151.354 520.651 151.161 520.03 151.161C519.602 151.161 519.219 151.253 518.882 151.439C518.549 151.625 518.286 151.895 518.092 152.251C517.899 152.607 517.803 153.039 517.803 153.547ZM529.116 158.979C528.389 158.979 527.747 158.795 527.19 158.428C526.634 158.056 526.198 157.534 525.884 156.859C525.569 156.181 525.412 155.38 525.412 154.456C525.412 153.539 525.569 152.744 525.884 152.07C526.198 151.395 526.635 150.875 527.196 150.507C527.757 150.14 528.404 149.956 529.139 149.956C529.707 149.956 530.156 150.051 530.486 150.24C530.819 150.426 531.073 150.638 531.247 150.876C531.425 151.111 531.563 151.304 531.662 151.456H531.776V147.161H533.116V158.797H531.821V157.456H531.662C531.563 157.615 531.423 157.816 531.241 158.058C531.06 158.297 530.8 158.511 530.463 158.7C530.126 158.886 529.677 158.979 529.116 158.979ZM529.298 157.774C529.836 157.774 530.291 157.634 530.662 157.354C531.033 157.07 531.315 156.678 531.509 156.178C531.702 155.674 531.798 155.092 531.798 154.433C531.798 153.782 531.704 153.212 531.514 152.723C531.325 152.231 531.045 151.848 530.673 151.575C530.302 151.299 529.844 151.161 529.298 151.161C528.73 151.161 528.257 151.306 527.878 151.598C527.503 151.886 527.221 152.278 527.031 152.774C526.846 153.267 526.753 153.82 526.753 154.433C526.753 155.054 526.848 155.619 527.037 156.126C527.23 156.63 527.514 157.032 527.889 157.331C528.268 157.626 528.738 157.774 529.298 157.774ZM542.236 158.797L539.577 150.07H540.986L542.872 156.751H542.963L544.827 150.07H546.259L548.099 156.729H548.19L550.077 150.07H551.486L548.827 158.797H547.509L545.599 152.092H545.463L543.554 158.797H542.236ZM556.621 158.979C555.78 158.979 555.054 158.793 554.445 158.422C553.839 158.047 553.371 157.524 553.041 156.854C552.715 156.179 552.553 155.395 552.553 154.501C552.553 153.607 552.715 152.82 553.041 152.138C553.371 151.452 553.829 150.918 554.416 150.536C555.007 150.149 555.696 149.956 556.484 149.956C556.939 149.956 557.388 150.032 557.831 150.183C558.274 150.335 558.678 150.581 559.041 150.922C559.405 151.259 559.695 151.706 559.911 152.263C560.126 152.82 560.234 153.505 560.234 154.32V154.888H553.507V153.729H558.871C558.871 153.236 558.772 152.797 558.575 152.411C558.382 152.024 558.106 151.719 557.746 151.496C557.39 151.272 556.969 151.161 556.484 151.161C555.95 151.161 555.488 151.293 555.098 151.558C554.712 151.82 554.414 152.161 554.206 152.581C553.998 153.001 553.893 153.452 553.893 153.933V154.706C553.893 155.365 554.007 155.924 554.234 156.382C554.465 156.837 554.786 157.183 555.195 157.422C555.604 157.657 556.079 157.774 556.621 157.774C556.973 157.774 557.291 157.725 557.575 157.626C557.863 157.524 558.111 157.373 558.32 157.172C558.528 156.967 558.689 156.714 558.803 156.411L560.098 156.774C559.962 157.214 559.732 157.6 559.411 157.933C559.089 158.263 558.691 158.52 558.217 158.706C557.744 158.888 557.212 158.979 556.621 158.979ZM563.433 147.161V151.161H562.183V147.161H563.433ZM567.162 147.161V158.797H565.821V147.161H567.162ZM570.959 147.161V158.797H569.618V147.161H570.959ZM578.097 158.797V147.161H579.438V151.456H579.551C579.65 151.304 579.786 151.111 579.96 150.876C580.138 150.638 580.392 150.426 580.722 150.24C581.055 150.051 581.506 149.956 582.074 149.956C582.809 149.956 583.456 150.14 584.017 150.507C584.578 150.875 585.015 151.395 585.33 152.07C585.644 152.744 585.801 153.539 585.801 154.456C585.801 155.38 585.644 156.181 585.33 156.859C585.015 157.534 584.58 158.056 584.023 158.428C583.466 158.795 582.824 158.979 582.097 158.979C581.536 158.979 581.087 158.886 580.75 158.7C580.413 158.511 580.153 158.297 579.972 158.058C579.79 157.816 579.65 157.615 579.551 157.456H579.392V158.797H578.097ZM579.415 154.433C579.415 155.092 579.511 155.674 579.705 156.178C579.898 156.678 580.18 157.07 580.551 157.354C580.922 157.634 581.377 157.774 581.915 157.774C582.475 157.774 582.943 157.626 583.318 157.331C583.697 157.032 583.981 156.63 584.17 156.126C584.364 155.619 584.46 155.054 584.46 154.433C584.46 153.82 584.366 153.267 584.176 152.774C583.991 152.278 583.708 151.886 583.33 151.598C582.955 151.306 582.483 151.161 581.915 151.161C581.369 151.161 580.911 151.299 580.54 151.575C580.169 151.848 579.888 152.231 579.699 152.723C579.509 153.212 579.415 153.782 579.415 154.433ZM591.511 158.979C590.67 158.979 589.945 158.793 589.335 158.422C588.729 158.047 588.261 157.524 587.932 156.854C587.606 156.179 587.443 155.395 587.443 154.501C587.443 153.607 587.606 152.82 587.932 152.138C588.261 151.452 588.72 150.918 589.307 150.536C589.898 150.149 590.587 149.956 591.375 149.956C591.83 149.956 592.278 150.032 592.722 150.183C593.165 150.335 593.568 150.581 593.932 150.922C594.295 151.259 594.585 151.706 594.801 152.263C595.017 152.82 595.125 153.505 595.125 154.32V154.888H588.398V153.729H593.761C593.761 153.236 593.663 152.797 593.466 152.411C593.273 152.024 592.996 151.719 592.636 151.496C592.28 151.272 591.86 151.161 591.375 151.161C590.841 151.161 590.379 151.293 589.989 151.558C589.602 151.82 589.305 152.161 589.097 152.581C588.888 153.001 588.784 153.452 588.784 153.933V154.706C588.784 155.365 588.898 155.924 589.125 156.382C589.356 156.837 589.676 157.183 590.085 157.422C590.494 157.657 590.97 157.774 591.511 157.774C591.864 157.774 592.182 157.725 592.466 157.626C592.754 157.524 593.002 157.373 593.21 157.172C593.419 156.967 593.58 156.714 593.693 156.411L594.989 156.774C594.852 157.214 594.623 157.6 594.301 157.933C593.979 158.263 593.581 158.52 593.108 158.706C592.634 158.888 592.102 158.979 591.511 158.979ZM384.43 182.797V174.07H385.771V182.797H384.43ZM385.112 172.615C384.851 172.615 384.625 172.526 384.436 172.348C384.25 172.17 384.158 171.956 384.158 171.706C384.158 171.456 384.25 171.242 384.436 171.064C384.625 170.886 384.851 170.797 385.112 170.797C385.374 170.797 385.597 170.886 385.783 171.064C385.972 171.242 386.067 171.456 386.067 171.706C386.067 171.956 385.972 172.17 385.783 172.348C385.597 172.526 385.374 172.615 385.112 172.615ZM389.568 177.547V182.797H388.227V174.07H389.523V175.433H389.636C389.841 174.99 390.152 174.634 390.568 174.365C390.985 174.092 391.523 173.956 392.182 173.956C392.773 173.956 393.29 174.077 393.733 174.32C394.176 174.558 394.521 174.922 394.767 175.411C395.013 175.895 395.136 176.509 395.136 177.251V182.797H393.795V177.342C393.795 176.657 393.617 176.123 393.261 175.74C392.905 175.354 392.417 175.161 391.795 175.161C391.367 175.161 390.985 175.253 390.648 175.439C390.314 175.625 390.051 175.895 389.858 176.251C389.665 176.607 389.568 177.039 389.568 177.547ZM405.882 174.07V175.206H401.359V174.07H405.882ZM402.678 171.979H404.018V180.297C404.018 180.676 404.073 180.96 404.183 181.149C404.297 181.335 404.441 181.46 404.615 181.524C404.793 181.585 404.981 181.615 405.178 181.615C405.325 181.615 405.446 181.607 405.541 181.592C405.636 181.573 405.712 181.558 405.768 181.547L406.041 182.751C405.95 182.786 405.823 182.82 405.661 182.854C405.498 182.892 405.291 182.911 405.041 182.911C404.662 182.911 404.291 182.829 403.928 182.666C403.568 182.503 403.268 182.255 403.03 181.922C402.795 181.589 402.678 181.168 402.678 180.661V171.979ZM411.351 182.979C410.563 182.979 409.872 182.791 409.277 182.416C408.686 182.041 408.224 181.517 407.891 180.842C407.561 180.168 407.396 179.38 407.396 178.479C407.396 177.57 407.561 176.776 407.891 176.098C408.224 175.42 408.686 174.893 409.277 174.518C409.872 174.143 410.563 173.956 411.351 173.956C412.139 173.956 412.828 174.143 413.419 174.518C414.014 174.893 414.476 175.42 414.805 176.098C415.139 176.776 415.305 177.57 415.305 178.479C415.305 179.38 415.139 180.168 414.805 180.842C414.476 181.517 414.014 182.041 413.419 182.416C412.828 182.791 412.139 182.979 411.351 182.979ZM411.351 181.774C411.949 181.774 412.442 181.621 412.828 181.314C413.214 181.007 413.5 180.604 413.686 180.104C413.872 179.604 413.964 179.062 413.964 178.479C413.964 177.895 413.872 177.352 413.686 176.848C413.5 176.344 413.214 175.937 412.828 175.626C412.442 175.316 411.949 175.161 411.351 175.161C410.752 175.161 410.26 175.316 409.874 175.626C409.487 175.937 409.201 176.344 409.016 176.848C408.83 177.352 408.737 177.895 408.737 178.479C408.737 179.062 408.83 179.604 409.016 180.104C409.201 180.604 409.487 181.007 409.874 181.314C410.26 181.621 410.752 181.774 411.351 181.774ZM422.852 179.229V174.07H424.193V182.797H422.852V181.32H422.761C422.557 181.763 422.239 182.14 421.807 182.45C421.375 182.757 420.83 182.911 420.17 182.911C419.625 182.911 419.14 182.791 418.716 182.553C418.292 182.31 417.958 181.946 417.716 181.462C417.473 180.973 417.352 180.357 417.352 179.615V174.07H418.693V179.524C418.693 180.161 418.871 180.668 419.227 181.047C419.587 181.426 420.045 181.615 420.602 181.615C420.936 181.615 421.275 181.53 421.619 181.359C421.968 181.189 422.259 180.928 422.494 180.575C422.733 180.223 422.852 179.774 422.852 179.229ZM430.195 182.979C429.376 182.979 428.672 182.786 428.081 182.399C427.49 182.013 427.036 181.481 426.717 180.803C426.399 180.125 426.24 179.35 426.24 178.479C426.24 177.592 426.403 176.81 426.729 176.132C427.058 175.45 427.517 174.918 428.104 174.536C428.695 174.149 429.384 173.956 430.172 173.956C430.786 173.956 431.339 174.07 431.831 174.297C432.323 174.524 432.727 174.842 433.041 175.251C433.356 175.661 433.551 176.138 433.626 176.683H432.286C432.183 176.286 431.956 175.933 431.604 175.626C431.255 175.316 430.786 175.161 430.195 175.161C429.672 175.161 429.214 175.297 428.82 175.57C428.429 175.839 428.125 176.219 427.905 176.712C427.689 177.2 427.581 177.774 427.581 178.433C427.581 179.107 427.687 179.695 427.899 180.195C428.115 180.695 428.418 181.083 428.808 181.359C429.202 181.636 429.664 181.774 430.195 181.774C430.543 181.774 430.859 181.714 431.143 181.592C431.428 181.471 431.668 181.297 431.865 181.07C432.062 180.842 432.202 180.57 432.286 180.251H433.626C433.551 180.767 433.363 181.231 433.064 181.643C432.768 182.053 432.376 182.378 431.888 182.621C431.403 182.859 430.839 182.979 430.195 182.979ZM436.928 177.547V182.797H435.587V171.161H436.928V175.433H437.041C437.246 174.982 437.553 174.625 437.962 174.359C438.375 174.09 438.924 173.956 439.609 173.956C440.204 173.956 440.725 174.075 441.172 174.314C441.619 174.549 441.965 174.911 442.212 175.399C442.462 175.884 442.587 176.501 442.587 177.251V182.797H441.246V177.342C441.246 176.649 441.066 176.113 440.706 175.734C440.35 175.352 439.856 175.161 439.223 175.161C438.784 175.161 438.39 175.253 438.041 175.439C437.696 175.625 437.424 175.895 437.223 176.251C437.026 176.607 436.928 177.039 436.928 177.547ZM455.722 176.024L454.517 176.365C454.441 176.164 454.33 175.969 454.182 175.78C454.038 175.587 453.841 175.428 453.591 175.303C453.341 175.178 453.021 175.115 452.631 175.115C452.097 175.115 451.652 175.238 451.295 175.484C450.943 175.727 450.767 176.036 450.767 176.411C450.767 176.744 450.888 177.007 451.131 177.2C451.373 177.393 451.752 177.554 452.267 177.683L453.562 178.001C454.343 178.191 454.924 178.481 455.307 178.871C455.689 179.257 455.881 179.755 455.881 180.365C455.881 180.865 455.737 181.312 455.449 181.706C455.165 182.1 454.767 182.411 454.256 182.638C453.744 182.865 453.15 182.979 452.472 182.979C451.581 182.979 450.845 182.786 450.261 182.399C449.678 182.013 449.309 181.448 449.153 180.706L450.426 180.388C450.547 180.857 450.777 181.21 451.114 181.445C451.455 181.679 451.9 181.797 452.449 181.797C453.074 181.797 453.57 181.664 453.938 181.399C454.309 181.13 454.494 180.808 454.494 180.433C454.494 180.13 454.388 179.876 454.176 179.672C453.964 179.464 453.638 179.308 453.199 179.206L451.744 178.865C450.945 178.676 450.358 178.382 449.983 177.984C449.612 177.583 449.426 177.081 449.426 176.479C449.426 175.986 449.564 175.551 449.841 175.172C450.121 174.793 450.502 174.496 450.983 174.28C451.468 174.064 452.017 173.956 452.631 173.956C453.494 173.956 454.172 174.145 454.665 174.524C455.161 174.903 455.513 175.403 455.722 176.024ZM461.445 182.979C460.657 182.979 459.965 182.791 459.371 182.416C458.78 182.041 458.318 181.517 457.984 180.842C457.655 180.168 457.49 179.38 457.49 178.479C457.49 177.57 457.655 176.776 457.984 176.098C458.318 175.42 458.78 174.893 459.371 174.518C459.965 174.143 460.657 173.956 461.445 173.956C462.232 173.956 462.922 174.143 463.513 174.518C464.107 174.893 464.57 175.42 464.899 176.098C465.232 176.776 465.399 177.57 465.399 178.479C465.399 179.38 465.232 180.168 464.899 180.842C464.57 181.517 464.107 182.041 463.513 182.416C462.922 182.791 462.232 182.979 461.445 182.979ZM461.445 181.774C462.043 181.774 462.536 181.621 462.922 181.314C463.308 181.007 463.594 180.604 463.78 180.104C463.965 179.604 464.058 179.062 464.058 178.479C464.058 177.895 463.965 177.352 463.78 176.848C463.594 176.344 463.308 175.937 462.922 175.626C462.536 175.316 462.043 175.161 461.445 175.161C460.846 175.161 460.354 175.316 459.967 175.626C459.581 175.937 459.295 176.344 459.109 176.848C458.924 177.352 458.831 177.895 458.831 178.479C458.831 179.062 458.924 179.604 459.109 180.104C459.295 180.604 459.581 181.007 459.967 181.314C460.354 181.621 460.846 181.774 461.445 181.774ZM470.991 182.979C470.204 182.979 469.512 182.791 468.918 182.416C468.327 182.041 467.865 181.517 467.531 180.842C467.202 180.168 467.037 179.38 467.037 178.479C467.037 177.57 467.202 176.776 467.531 176.098C467.865 175.42 468.327 174.893 468.918 174.518C469.512 174.143 470.204 173.956 470.991 173.956C471.779 173.956 472.469 174.143 473.06 174.518C473.654 174.893 474.116 175.42 474.446 176.098C474.779 176.776 474.946 177.57 474.946 178.479C474.946 179.38 474.779 180.168 474.446 180.842C474.116 181.517 473.654 182.041 473.06 182.416C472.469 182.791 471.779 182.979 470.991 182.979ZM470.991 181.774C471.59 181.774 472.082 181.621 472.469 181.314C472.855 181.007 473.141 180.604 473.327 180.104C473.512 179.604 473.605 179.062 473.605 178.479C473.605 177.895 473.512 177.352 473.327 176.848C473.141 176.344 472.855 175.937 472.469 175.626C472.082 175.316 471.59 175.161 470.991 175.161C470.393 175.161 469.901 175.316 469.514 175.626C469.128 175.937 468.842 176.344 468.656 176.848C468.471 177.352 468.378 177.895 468.378 178.479C468.378 179.062 468.471 179.604 468.656 180.104C468.842 180.604 469.128 181.007 469.514 181.314C469.901 181.621 470.393 181.774 470.991 181.774ZM478.334 177.547V182.797H476.993V174.07H478.288V175.433H478.402C478.607 174.99 478.917 174.634 479.334 174.365C479.75 174.092 480.288 173.956 480.947 173.956C481.538 173.956 482.055 174.077 482.499 174.32C482.942 174.558 483.286 174.922 483.533 175.411C483.779 175.895 483.902 176.509 483.902 177.251V182.797H482.561V177.342C482.561 176.657 482.383 176.123 482.027 175.74C481.671 175.354 481.182 175.161 480.561 175.161C480.133 175.161 479.75 175.253 479.413 175.439C479.08 175.625 478.817 175.895 478.624 176.251C478.43 176.607 478.334 177.039 478.334 177.547ZM487.33 182.888C487.049 182.888 486.809 182.787 486.608 182.587C486.407 182.386 486.307 182.145 486.307 181.865C486.307 181.585 486.407 181.344 486.608 181.143C486.809 180.943 487.049 180.842 487.33 180.842C487.61 180.842 487.85 180.943 488.051 181.143C488.252 181.344 488.352 181.585 488.352 181.865C488.352 182.051 488.305 182.221 488.21 182.376C488.119 182.532 487.996 182.657 487.841 182.751C487.689 182.842 487.519 182.888 487.33 182.888Z" fill="white"/>
<rect width="222" height="52.3906" transform="translate(383.203 321.797)" fill="#055B89"/>
<path d="M467.971 342.778V353.688H465.978L461.232 346.821H461.152V353.688H458.846V342.778H460.87L465.579 349.639H465.675V342.778H467.971ZM471.796 353.688V342.778H479.147V344.68H474.103V347.279H478.769V349.181H474.103V351.786H479.168V353.688H471.796ZM485.063 342.778L487.263 346.496H487.349L489.559 342.778H492.164L488.835 348.233L492.238 353.688H489.586L487.349 349.964H487.263L485.026 353.688H482.384L485.798 348.233L482.448 342.778H485.063ZM495.128 344.68V342.778H504.087V344.68H500.748V353.688H498.468V344.68H495.128Z" fill="white"/>
<g clip-path="url(#clip0_167_187)">
<path d="M547.104 343.193C546.669 342.932 546.148 343.019 545.887 343.367C545.627 343.801 545.713 344.323 546.061 344.584L550.233 347.452H539.369C538.848 347.452 538.5 347.799 538.5 348.321C538.5 348.842 538.848 349.19 539.369 349.19H550.233L546.061 352.058C545.627 352.319 545.54 352.84 545.8 353.275C545.974 353.535 546.235 353.622 546.496 353.622C546.669 353.622 546.843 353.535 547.017 353.448L554.491 348.321L547.104 343.193Z" fill="white"/>
</g>
<rect x="383.203" y="205.797" width="222" height="42" rx="21" fill="white"/>
<path d="M404.436 230.797V220.615H410.581V221.709H405.669V225.149H410.263V226.243H405.669V229.703H410.661V230.797H404.436ZM412.803 220.615H414.275L417.735 229.067H417.854L421.315 220.615H422.786V230.797H421.633V223.061H421.533L418.352 230.797H417.238L414.056 223.061H413.957V230.797H412.803V220.615ZM425.676 230.797H424.383L428.122 220.615H429.395L433.133 230.797H431.841L428.798 222.226H428.719L425.676 230.797ZM426.153 226.82H431.363V227.913H426.153V226.82ZM435.952 220.615V230.797H434.719V220.615H435.952ZM438.424 230.797V220.615H439.657V229.703H444.39V230.797H438.424Z" fill="#5E6468"/>
<rect x="383.203" y="263.797" width="222" height="42" rx="21" fill="white"/>
<path d="M413.303 281.297H411.982C411.903 280.917 411.767 280.583 411.571 280.295C411.38 280.008 411.145 279.766 410.868 279.571C410.595 279.372 410.291 279.223 409.957 279.124C409.624 279.024 409.276 278.974 408.913 278.974C408.253 278.974 407.654 279.141 407.118 279.475C406.586 279.809 406.161 280.301 405.845 280.951C405.533 281.6 405.376 282.398 405.376 283.342C405.376 284.287 405.533 285.084 405.845 285.734C406.161 286.384 406.586 286.876 407.118 287.21C407.654 287.543 408.253 287.71 408.913 287.71C409.276 287.71 409.624 287.661 409.957 287.561C410.291 287.462 410.595 287.314 410.868 287.119C411.145 286.92 411.38 286.677 411.571 286.389C411.767 286.098 411.903 285.764 411.982 285.388H413.303C413.203 285.945 413.022 286.444 412.759 286.885C412.496 287.325 412.17 287.7 411.779 288.009C411.388 288.314 410.95 288.547 410.463 288.706C409.98 288.866 409.464 288.946 408.913 288.946C407.983 288.946 407.156 288.719 406.431 288.264C405.707 287.81 405.137 287.163 404.721 286.325C404.306 285.487 404.098 284.493 404.098 283.342C404.098 282.192 404.306 281.197 404.721 280.359C405.137 279.521 405.707 278.875 406.431 278.42C407.156 277.966 407.983 277.739 408.913 277.739C409.464 277.739 409.98 277.819 410.463 277.978C410.95 278.138 411.388 278.373 411.779 278.681C412.17 278.987 412.496 279.36 412.759 279.8C413.022 280.237 413.203 280.736 413.303 281.297ZM424.642 283.342C424.642 284.493 424.434 285.487 424.019 286.325C423.603 287.163 423.033 287.81 422.309 288.264C421.584 288.719 420.757 288.946 419.826 288.946C418.896 288.946 418.069 288.719 417.344 288.264C416.62 287.81 416.05 287.163 415.634 286.325C415.219 285.487 415.011 284.493 415.011 283.342C415.011 282.192 415.219 281.197 415.634 280.359C416.05 279.521 416.62 278.875 417.344 278.42C418.069 277.966 418.896 277.739 419.826 277.739C420.757 277.739 421.584 277.966 422.309 278.42C423.033 278.875 423.603 279.521 424.019 280.359C424.434 281.197 424.642 282.192 424.642 283.342ZM423.363 283.342C423.363 282.398 423.205 281.6 422.889 280.951C422.577 280.301 422.152 279.809 421.616 279.475C421.084 279.141 420.487 278.974 419.826 278.974C419.166 278.974 418.568 279.141 418.031 279.475C417.499 279.809 417.074 280.301 416.758 280.951C416.446 281.6 416.29 282.398 416.29 283.342C416.29 284.287 416.446 285.084 416.758 285.734C417.074 286.384 417.499 286.876 418.031 287.21C418.568 287.543 419.166 287.71 419.826 287.71C420.487 287.71 421.084 287.543 421.616 287.21C422.152 286.876 422.577 286.384 422.889 285.734C423.205 285.084 423.363 284.287 423.363 283.342ZM426.863 277.888H428.44L432.147 286.943H432.275L435.982 277.888H437.559V288.797H436.323V280.509H436.217L432.808 288.797H431.614L428.205 280.509H428.099V288.797H426.863V277.888ZM440.208 288.797V277.888H443.894C444.75 277.888 445.449 278.042 445.993 278.351C446.539 278.657 446.944 279.07 447.207 279.592C447.47 280.114 447.601 280.697 447.601 281.339C447.601 281.982 447.47 282.566 447.207 283.092C446.948 283.618 446.547 284.037 446.003 284.349C445.46 284.658 444.764 284.812 443.915 284.812H441.273V283.641H443.873C444.458 283.641 444.929 283.539 445.284 283.337C445.639 283.135 445.897 282.861 446.056 282.517C446.22 282.169 446.301 281.776 446.301 281.339C446.301 280.903 446.22 280.512 446.056 280.168C445.897 279.823 445.637 279.553 445.279 279.358C444.92 279.159 444.444 279.06 443.851 279.06H441.529V288.797H440.208ZM449.063 288.797H447.678L451.684 277.888H453.048L457.053 288.797H455.669L452.409 279.614H452.323L449.063 288.797ZM449.575 284.536H455.157V285.707H449.575V284.536ZM467.403 277.888V288.797H466.125L460.18 280.232H460.074V288.797H458.753V277.888H460.031L465.997 286.474H466.104V277.888H467.403ZM469.109 277.888H470.622L473.647 282.98H473.775L476.801 277.888H478.314L474.372 284.301V288.797H473.051V284.301L469.109 277.888Z" fill="#5E6468"/>
<defs>
<filter id="filter0_d_167_187" x="336" y="254" width="314.621" height="81.5444" filterUnits="userSpaceOnUse" color-interpolation-filters="sRGB">
<feFlood flood-opacity="0" result="BackgroundImageFix"/>
<feColorMatrix in="SourceAlpha" type="matrix" values="0 0 0 0 0 0 0 0 0 0 0 0 0 0 0 0 0 0 127 0" result="hardAlpha"/>
<feOffset dy="4"/>
<feGaussianBlur stdDeviation="2"/>
<feComposite in2="hardAlpha" operator="out"/>
<feColorMatrix type="matrix" values="0 0 0 0 0 0 0 0 0 0 0 0 0 0 0 0 0 0 0.25 0"/>
<feBlend mode="normal" in2="BackgroundImageFix" result="effect1_dropShadow_167_187"/>
<feBlend mode="normal" in="SourceGraphic" in2="effect1_dropShadow_167_187" result="shape"/>
</filter>
<linearGradient id="paint0_linear_167_187" x1="666.734" y1="174.492" x2="666.734" y2="251.812" gradientUnits="userSpaceOnUse">
<stop stop-color="#CBCBCB" stop-opacity="0.275"/>
<stop offset="0.04" stop-color="#CBCBCB"/>
<stop offset="0.96" stop-color="#CBCBCB"/>
<stop offset="1" stop-color="#CBCBCB" stop-opacity="0.276"/>
</linearGradient>
<linearGradient id="paint1_linear_167_187" x1="321.672" y1="107.068" x2="321.672" y2="131.364" gradientUnits="userSpaceOnUse">
<stop stop-color="#CBCBCB" stop-opacity="0.275"/>
<stop offset="0.05" stop-color="#CBCBCB"/>
<stop offset="0.95" stop-color="#CBCBCB"/>
<stop offset="1" stop-color="#CBCBCB" stop-opacity="0.276"/>
</linearGradient>
<linearGradient id="paint2_linear_167_187" x1="321.671" y1="12.0576" x2="321.671" y2="59.8634" gradientUnits="userSpaceOnUse">
<stop stop-color="#CBCBCB" stop-opacity="0.275"/>
<stop offset="0.05" stop-color="#CBCBCB"/>
<stop offset="0.95" stop-color="#CBCBCB"/>
<stop offset="1" stop-color="#CBCBCB" stop-opacity="0.276"/>
</linearGradient>
<linearGradient id="paint3_linear_167_187" x1="321.672" y1="221.729" x2="321.672" y2="269.534" gradientUnits="userSpaceOnUse">
<stop stop-color="#CBCBCB" stop-opacity="0.275"/>
<stop offset="0.05" stop-color="#CBCBCB"/>
<stop offset="0.95" stop-color="#CBCBCB"/>
<stop offset="1" stop-color="#CBCBCB" stop-opacity="0.276"/>
</linearGradient>
<linearGradient id="paint4_linear_167_187" x1="649.973" y1="361.666" x2="658.647" y2="361.666" gradientUnits="userSpaceOnUse">
<stop stop-color="#404040"/>
<stop offset="0.6" stop-color="#838383"/>
<stop offset="1" stop-color="#A7A7A7"/>
</linearGradient>
<linearGradient id="paint5_linear_167_187" x1="338.433" y1="361.666" x2="329.759" y2="361.666" gradientUnits="userSpaceOnUse">
<stop stop-color="#404040"/>
<stop offset="0.6" stop-color="#838383"/>
<stop offset="1" stop-color="#A7A7A7"/>
</linearGradient>
<linearGradient id="paint6_linear_167_187" x1="350.003" y1="32.1629" x2="638.896" y2="32.1629" gradientUnits="userSpaceOnUse">
<stop stop-color="#4F4F4F" stop-opacity="0.131"/>
<stop offset="0.07" stop-color="#4F4F4F"/>
<stop offset="0.937" stop-color="#4F4F4F" stop-opacity="0.953"/>
<stop offset="1" stop-color="#4F4F4F" stop-opacity="0"/>
</linearGradient>
<linearGradient id="paint7_linear_167_187" x1="614.97" y1="32.1621" x2="613.987" y2="905.104" gradientUnits="userSpaceOnUse">
<stop stop-color="#404040"/>
<stop offset="0.022" stop-color="#464646"/>
<stop offset="0.999" stop-color="#525252" stop-opacity="0.016"/>
<stop offset="1" stop-color="#444444" stop-opacity="0"/>
</linearGradient>
<clipPath id="clip0_167_187">
<rect width="16.0781" height="10.6029" fill="white" transform="translate(538.5 343.019)"/>
</clipPath>
</defs>
</svg>
